<?xml version="1.0" encoding="UTF-8"?>
<!-- Generator: Adobe Illustrator 25.0.0, SVG Export Plug-In . SVG Version: 6.00 Build 0)  -->
<svg xmlns="http://www.w3.org/2000/svg" xmlns:xlink="http://www.w3.org/1999/xlink" version="1.1" id="Ebene_1" x="0px" y="0px" viewBox="0 0 838.51 226.77" style="enable-background:new 0 0 838.51 226.77;" xml:space="preserve">
<style type="text/css">
	.st0{fill:#C6C6C6;}
	.st1{clip-path:url(#SVGID_2_);}
	.st2{fill:#FFFFFF;}
	.st3{clip-path:url(#SVGID_4_);}
	.st4{clip-path:url(#SVGID_6_);}
	.st5{fill:#B61F29;}
	.st6{fill:#706F6F;}
</style>
<g>
	<g>
		<polygon class="st0" points="50.97,17 50.97,9.41 59.57,9.43 59.57,0.18 67.16,0.18 67.16,9.41 75.76,9.41 75.76,17 67.18,16.98     67.16,201.88 59.57,201.88 59.57,16.98   "></polygon>
		<g>
			<g>
				<defs>
					<rect id="SVGID_1_" width="124.47" height="202.09"></rect>
				</defs>
				<clipPath id="SVGID_2_">
					<use xlink:href="#SVGID_1_" style="overflow:visible;"></use>
				</clipPath>
				<path class="st1" d="M67.47,202.2h-8.22V17.29h-8.62V9.1h8.62v-9.22h8.22V9.1h8.6v8.22h-8.6V202.2z M59.9,201.57h6.95      l0.02-184.9h8.6V9.72h-8.6V0.5h-6.95v9.22H51.3v6.97h8.62v184.88H59.9z"></path>
			</g>
		</g>
		<path class="st2" d="M115.96,103.51c0,0,1.89,2.59,2.33,3.54c0.44,0.95,0.86,3.59,0.86,3.59s-0.72-1.8-2.11-2.6    c-1.16-0.66-3.65-0.83-4.05-0.57c-0.4,0.24,1.78-0.99,2.16-1.56C115.54,105.34,115.96,103.51,115.96,103.51L115.96,103.51z"></path>
		<path class="st2" d="M7.46,114.17c0,0-1.49-1.5-1.67-1.98c-0.18-0.48-1.69-1.69-3.04-3.04c-1.36-1.34-1.25-3.76-1.25-3.76    c-0.22-3.01,2.38-5.34,2.57-5.69c0.18-0.35,0.53-1.41,0.88-1.82c0.35-0.4,1.38-1.61,1.38-1.61s1.54-2.35,2.26-3.92    s0.26-2.55,0.09-4.55s0.92-4.71,3.14-10.23c2.24-5.52,5.25-6.79,5.25-6.79s1.1-13.63-0.97-12.62c-2.07,1.01-8.82,9.79-10.8,13    S0.42,82.75,0.24,84s0.22,3.89,1.23,4.9s1.6,0.94,2.13,1.06s1.85-0.15,2.77-0.28c0.92-0.13,2.11,0.13,2.35,0.15    c0.26,0.04,0,0,2.48,1.01c2.48,1.01,4.24,2.66,4.18,4.77c-0.06,2.11-2.13,4.84-2.13,4.84s-4.42,5.25-5.65,9.3s0.17,5.04,1.45,6.09    c1.28,1.03,3.23,0.88,3.23,0.88c0.7,0,1.58-0.18,1.8-0.4c0.22-0.22,1.94-1.38,2.11-4.05c0,0,0.04-1.36-2.02-2.7    c-2.05-1.36-4.71-3.67-4.71-3.76c0,0-1.93,3.34-2.15,4.93"></path>
		<g>
			<g>
				<defs>
					<rect id="SVGID_3_" width="124.47" height="202.09"></rect>
				</defs>
				<clipPath id="SVGID_4_">
					<use xlink:href="#SVGID_3_" style="overflow:visible;"></use>
				</clipPath>
				<path class="st3" d="M11.96,117.03c-0.62,0-2.07-0.11-3.14-0.95L8.73,116c-0.55-0.44-1.12-0.92-1.5-1.61l0,0      c-0.26-0.26-1.52-1.58-1.72-2.09c-0.09-0.22-0.81-0.9-1.49-1.52c-0.48-0.44-0.99-0.92-1.49-1.41c-1.43-1.43-1.36-3.89-1.36-4      c-0.18-2.6,1.69-4.75,2.38-5.54c0.11-0.15,0.2-0.24,0.24-0.29c0.06-0.11,0.13-0.29,0.22-0.51c0.18-0.48,0.42-1.05,0.7-1.36      c0.35-0.4,1.38-1.61,1.38-1.61l0,0c0,0,1.5-2.31,2.22-3.85c0.35-0.77,0.4-1.38,0.35-2.07c-0.04,0-0.11-0.02-0.18-0.04      c-0.44-0.07-1.36-0.22-2.05-0.13c-0.22,0.04-0.48,0.07-0.72,0.11c-0.83,0.13-1.69,0.28-2.16,0.17      c-0.07-0.02-0.17-0.04-0.26-0.06c-0.5-0.09-1.12-0.18-2.04-1.1c-1.08-1.1-1.5-3.83-1.32-5.17c0.18-1.28,3.1-9.72,5.1-12.97      c1.89-3.06,8.73-12.05,10.93-13.11c0.26-0.13,0.51-0.11,0.73,0.04c1.56,1.06,0.84,10.91,0.68,12.89l-0.02,0.18l-0.18,0.07      c-0.04,0.02-2.93,1.3-5.08,6.62c-2.27,5.63-3.26,8.2-3.12,10.09c0.04,0.53,0.11,0.97,0.17,1.39c0.04,0.22,0.07,0.39,0.09,0.57      h0.02c0.28,0.13,0.84,0.37,2.07,0.86c2.82,1.16,4.42,2.99,4.36,5.06c-0.06,2.18-2.11,4.9-2.2,5.03c-0.04,0.04-2,2.38-3.65,5.12      c0.53,0.51,2.7,2.37,4.49,3.54c2.16,1.43,2.15,2.9,2.15,2.97c-0.15,2.53-1.61,3.78-2.11,4.18c-0.04,0.04-0.07,0.06-0.09,0.07      c-0.33,0.35-1.39,0.5-2.02,0.5C12.25,117.03,12.14,117.03,11.96,117.03z M8.16,114.62c0.29,0.33,0.62,0.62,0.97,0.9l0.09,0.07      c1.17,0.95,2.99,0.81,3.01,0.81c0.75,0,1.49-0.2,1.6-0.31c0.04-0.02,0.07-0.07,0.13-0.13c0.44-0.37,1.74-1.47,1.89-3.72l0,0      c0,0-0.02-1.17-1.82-2.38c-0.51-0.11-1.45-0.29-2.93,0.22c1.93,0.28,2.57,1.23,2.53,2c-0.04,0.81-0.81,1.41-1.78,1.41v-0.62      c0.73,0,1.12-0.4,1.14-0.83c0.04-0.57-0.66-1.23-2.27-1.38c-0.53,0-0.95,0.09-1.21,0.28c-0.18,0.13-0.28,0.29-0.28,0.51      c0,0.72,0.92,1.61,1.65,1.61v0.62c-0.97,0-2.07-1.01-2.26-1.98C7.87,112.84,8.09,114.28,8.16,114.62z M7.98,109.54      c-0.04,0.09-0.06,0.18-0.09,0.28c-0.48,1.54-0.55,2.6-0.4,3.39c0.11-1.05,0.55-2.33,1.96-3.1c1.52-0.83,2.68-1.03,3.5-1.03      c-1.14-0.84-2.7-2.07-3.43-2.79C9.17,106.94,8.42,108.35,7.98,109.54z M9.28,90.38c0.04,0.66-0.06,1.32-0.42,2.09      c-0.72,1.58-2.22,3.87-2.27,3.96c-0.02,0.04-1.06,1.23-1.41,1.63c-0.18,0.24-0.4,0.79-0.57,1.19c-0.09,0.24-0.18,0.46-0.26,0.59      c-0.04,0.07-0.13,0.18-0.31,0.39c-0.66,0.75-2.4,2.73-2.24,5.12c0,0.06-0.07,2.33,1.17,3.58c0.5,0.5,1.01,0.97,1.47,1.39      c0.99,0.92,1.5,1.41,1.65,1.76c0.06,0.17,0.39,0.55,0.75,0.95c-0.07-0.62-0.04-1.39,0.18-2.35H7.01      c0.06-0.37,0.18-0.83,0.37-1.32c0.5-1.47,1.36-3.06,2.26-4.49l0.15-0.24v0.02c1.52-2.38,3.12-4.27,3.23-4.42      c0.02-0.02,2-2.66,2.05-4.64c0.06-1.8-1.39-3.43-3.98-4.47C10.16,90.76,9.63,90.53,9.28,90.38z M16.3,58.41      c-0.02,0-0.04,0-0.07,0.02c-1.93,0.94-8.55,9.43-10.67,12.89C3.59,74.5,0.73,82.79,0.55,84.05c-0.18,1.19,0.24,3.72,1.14,4.62      c0.77,0.77,1.25,0.84,1.71,0.94c0.09,0.02,0.18,0.04,0.29,0.06c0.35,0.09,1.21-0.06,1.91-0.17c0.26-0.04,0.51-0.09,0.73-0.11      c0.81-0.11,1.78,0.06,2.26,0.13l0,0c-0.02-0.07-0.02-0.17-0.04-0.26c-0.06-0.42-0.13-0.88-0.17-1.43      c-0.17-2.04,0.86-4.66,3.15-10.38c1.96-4.88,4.53-6.51,5.23-6.88c0.37-4.73,0.48-11.52-0.42-12.14      C16.32,58.41,16.32,58.41,16.3,58.41z"></path>
			</g>
		</g>
		<path d="M5.39,111.84c0-0.13-0.22-3.32,0.57-4.88c0.7-1.39,0.7-1.41,0.86-1.34l0.13,0.06l-0.06,0.17L6.8,105.8l0.07,0.06    c-0.02,0.02-0.11,0.18-0.64,1.23c-0.73,1.49-0.53,4.68-0.53,4.71L5.39,111.84z M4.18,110.77c0-0.42-0.04-4.11,0.22-4.75l0.29,0.11    c-0.2,0.5-0.22,3.5-0.2,4.64H4.18z M2.86,109.27c-0.02-0.4-0.07-2.46,0.09-2.81c0.13-0.29,0.17-0.68,0.17-0.68l0.31,0.04    c0,0.02-0.04,0.42-0.2,0.79c-0.09,0.2-0.09,1.69-0.06,2.68L2.86,109.27z M13.68,96.54l-0.24-0.2c0,0,0.57-0.7,0.84-1.49    c0.28-0.79,0.15-1.52,0.15-1.52l0.31-0.06c0,0.04,0.15,0.83-0.15,1.69C14.29,95.83,13.72,96.52,13.68,96.54z M12.16,95.59    l-0.18-0.26c0,0,0.35-0.26,0.83-1.08c0.48-0.83,0.39-2.24,0.39-2.26l0.31-0.02c0,0.06,0.11,1.52-0.42,2.44    C12.56,95.31,12.18,95.57,12.16,95.59z M10.49,94.62l-0.15-0.28l0,0c0,0,0.22-0.17,0.44-0.86c0.26-0.77,0.44-2.55,0.44-2.57    l0.31,0.04c0,0.07-0.18,1.82-0.44,2.62C10.82,94.39,10.55,94.58,10.49,94.62z"></path>
		<path class="st2" d="M81.37,42.6c0,0,2.9-2.99,4.03-3.04c1.16-0.07,2.62-0.09,3.37-0.92c0.75-0.83,2.44-2.55,2.18-4.6    c-0.26-2.07-4.68-8.73-27.97-8.73c-13.85,0-28.85,2-28.79,9.08c0,0,0.57,4.31,4.62,6.13s4.97,2.57,4.86,3.58s-2.57,3.04-2.59,4.25    l-12.75,0.53c0,0,0.28-0.99,2-2.07c1.72-1.08,5.8-3.94,6.11-4.6c0.29-0.66,1.06-2.09,0.97-2.42c-0.09-0.35-1.56-0.55-0.11-1.82    c1.45-1.27,4.51-3.48,13.81-3.96c9.28-0.48,8.97-0.64,12.32-0.7c3.37-0.04,8.03-0.09,13.64,0.94c5.61,1.03,11.17,2.62,10.82,4.47    c-0.11,0.61-0.15,1.08-0.13,1.47c0,0.02,0,0.04,0,0.06c0.06,0.73,0.31,1.08,0.66,1.34c0.5,0.39,5.52,4.47,6.77,5.3    c1.19,0.81,2.66,2.64,2.66,2.64l-8.55,1.69c0,0-8.11-5.32-7.98-8.18l0.79-7.61c0,0,5.85,1.5,5.81,3.28l-0.13,0.72"></path>
		<path d="M89.26,51.53l-0.11-0.07c-0.84-0.55-8.25-5.5-8.12-8.45l0.77-7.41c-1.39-0.37-2.99-0.72-4.81-1.05    c-5.65-1.05-10.42-0.99-13.57-0.94c-1.72,0.02-2.44,0.07-4.03,0.18c-1.49,0.11-3.74,0.26-8.27,0.5    c-8.73,0.46-11.96,2.44-13.61,3.89c-0.5,0.42-0.53,0.64-0.53,0.72l0,0c0.53,0.5,1.19,0.95,1.98,1.3c4.14,1.85,5.19,2.66,5.04,3.91    c-0.06,0.55-0.61,1.25-1.25,2.04c-0.62,0.77-1.34,1.65-1.34,2.2v0.29l-13.46,0.55l0.11-0.42c0.02-0.04,0.33-1.12,2.13-2.24    c2.04-1.27,5.74-3.96,5.98-4.47c0.07-0.15,0.15-0.33,0.26-0.53c0.22-0.48,0.7-1.45,0.7-1.71c0,0,0,0-0.02,0s-0.09-0.04-0.15-0.07    c-0.17-0.11-0.37-0.26-0.5-0.48c-2.16-2.05-2.55-4.73-2.57-4.88c-0.02-1.45,0.55-2.73,1.65-3.83c4.84-4.86,19.28-5.59,27.45-5.59    c26.85,0,28.24,8.64,28.28,9c0.26,2.13-1.38,3.89-2.16,4.75l-0.09,0.11c-0.24,0.26-0.53,0.46-0.86,0.59v0.02h-0.02    c-0.02,0-0.02,0-0.04,0.02c-0.02,0.26-0.04,0.48-0.02,0.68c0.04,0.66,0.24,0.94,0.53,1.16c0.13,0.09,0.5,0.4,1.03,0.81    c1.67,1.34,4.79,3.85,5.72,4.47c1.27,0.84,2.71,2.66,2.77,2.73l0.33,0.4L89.26,51.53z M81.69,42.73l-0.04,0.33    c-0.11,2.15,5.45,6.31,7.72,7.81l7.9-1.56c-0.5-0.59-1.47-1.63-2.29-2.2c-0.95-0.64-4.09-3.15-5.78-4.51    c-0.51-0.42-0.9-0.72-1.01-0.81c-0.33-0.26-0.72-0.66-0.77-1.56c-0.02-0.18-0.02-0.39,0-0.59c-0.59,0.13-1.23,0.17-1.78,0.2    l-0.24,0.02C84.69,39.93,82.79,41.61,81.69,42.73z M37.65,40.24c-0.11,0.35-0.33,0.84-0.7,1.6c-0.09,0.18-0.18,0.37-0.24,0.51    c-0.37,0.83-4.84,3.89-6.22,4.75c-0.92,0.57-1.39,1.1-1.63,1.47l11.94-0.5c0.17-0.7,0.81-1.5,1.43-2.29    c0.5-0.62,1.06-1.34,1.12-1.71c0.09-0.75-0.59-1.43-4.68-3.26C38.31,40.62,37.96,40.44,37.65,40.24z M82.4,35.8l-0.62,5.94    c0.95-0.92,2.68-2.44,3.59-2.49l0.24-0.02c0.61-0.04,1.3-0.07,1.89-0.24c0.02-0.11,0.04-0.22,0.06-0.35    c0.02-0.13,0-0.26-0.06-0.39C86.91,37.38,84.42,36.37,82.4,35.8z M88.14,38.18c0.07,0.17,0.11,0.33,0.11,0.5    c0.11-0.07,0.2-0.15,0.28-0.24l0.09-0.11c0.77-0.84,2.22-2.42,2-4.25c0-0.09-1.36-8.45-27.66-8.45c-8.09,0-22.34,0.7-27.01,5.41    c-0.97,0.99-1.47,2.11-1.47,3.36c0,0,0.31,2.18,1.98,4.03c0.11-0.22,0.31-0.44,0.61-0.7c1.74-1.52,5.06-3.58,13.99-4.03    c4.53-0.24,6.77-0.39,8.27-0.5c1.56-0.11,2.35-0.17,4.07-0.18c3.19-0.04,8-0.11,13.7,0.95c4.27,0.79,9.63,2.09,10.82,3.81    C88.03,37.89,88.1,38.04,88.14,38.18z"></path>
		<path class="st2" d="M43.14,45.13c0.97-1.34,0.66-1.98,0.75-2.81c0.09-0.83-0.29-3.01-0.62-3.78c-0.33-0.77-0.4-3.28-0.4-3.28    s-6.66,2.15-5.89,4C37.05,40.05,46.18,42.47,43.14,45.13L43.14,45.13z"></path>
		<path d="M43.36,45.35l-0.46-0.42c0.28-0.37,0.46-0.72,0.55-1.03c-0.15-1.19-2.82-2.42-4.6-3.25c-1.52-0.7-2.09-0.97-2.16-1.36    c-0.11-0.29-0.09-0.61,0.06-0.92c0.81-1.72,5.52-3.28,6.05-3.45l0.4-0.13l0.02,0.42c0.02,0.68,0.13,2.59,0.39,3.17    c0.35,0.83,0.73,3.04,0.64,3.94c-0.02,0.18-0.02,0.37-0.02,0.53c0,0.31,0,0.68-0.11,1.1C44.09,44.47,43.83,44.93,43.36,45.35z     M42.57,35.67c-1.6,0.55-4.75,1.85-5.28,2.99c-0.07,0.17-0.09,0.31-0.04,0.46l0.02,0.09c0.11,0.11,1.05,0.55,1.82,0.9    c1.63,0.75,3.56,1.63,4.46,2.7c0-0.17,0-0.33,0.02-0.51c0.09-0.79-0.29-2.9-0.61-3.63C42.71,38.02,42.6,36.44,42.57,35.67z"></path>
		<path class="st2" d="M115.93,103.47c0,2.42-1.78,3.25-2.75,3.83c-0.79,0.46-3.94,2.29-3.94,3.72c0,3.1,2.92,4.22,4.25,4.22    c1.36,0,5.21-0.5,5.48-3.21c0.28-2.73-0.09-3.98-1.56-6.46c-1.47-2.48-3.37-4.2-4.29-4.99c-0.92-0.79-1.47-1.8-1.47-1.8    s-0.64-1.91-1.89-5.08c-1.25-3.19,1.1-3.8,1.41-3.8c0.31,0,1.93-0.09,2.24-0.24c0.31-0.15,2.29-0.55,2.88-0.61    c0.59-0.07,2.15-0.46,4.58-1.27c2.46-0.79,3.37-2.7,3.43-6.05c0.06-3.37-7.56-15.77-7.56-15.77c-0.88-1.28-8.09-8.78-8.09-8.78    l0.13,13.37c0.7,0.15,4.38,4.75,6.49,10.34c2.11,5.61,1.61,9.83,1.61,10.78c0,0.95,4.84,8.18,5.98,9.7    c1.14,1.54,1.23,3.7,1.23,3.7c-0.09,4.33-5.36,7.87-5.36,7.87"></path>
		<g>
			<g>
				<defs>
					<rect id="SVGID_5_" width="124.47" height="202.09"></rect>
				</defs>
				<clipPath id="SVGID_6_">
					<use xlink:href="#SVGID_5_" style="overflow:visible;"></use>
				</clipPath>
				<path class="st4" d="M113.49,115.58c-1.6,0-4.57-1.34-4.57-4.53c0-1.41,2.29-2.93,4.03-3.96l0.31-0.18      c0.97-0.57,2.31-1.34,2.37-3.3c-1.14-1.39-2.26-2.37-2.71-2.77c-0.95-0.83-1.52-1.85-1.54-1.89c-0.04-0.07-0.68-1.98-1.91-5.12      c-0.53-1.34-0.51-2.42,0.02-3.23c0.57-0.83,1.49-1.01,1.67-1.01c0.44,0,1.87-0.11,2.09-0.22c0.37-0.18,2.44-0.59,2.99-0.64      c0.09,0,0.2-0.04,0.35-0.06c-0.09-1.91-0.46-4.58-1.61-7.67c-2.13-5.65-5.7-9.96-6.27-10.16l-0.24-0.06v-0.24l-0.13-14.18      l0.55,0.57c0.29,0.31,7.23,7.54,8.11,8.82c0.33,0.51,7.68,12.53,7.61,15.96c-0.07,3.65-1.16,5.54-3.65,6.35      c-1.69,0.55-2.92,0.9-3.72,1.1c0.02,0.9,0,1.6-0.02,2.05c0,0.18-0.02,0.35-0.02,0.44c0.02,0.79,4.4,7.48,5.91,9.52      c1.17,1.6,1.28,3.78,1.28,3.87c-0.09,4.33-4.99,7.79-5.47,8.12C117.92,115.05,115.08,115.58,113.49,115.58z M116.16,104.32      c-0.33,1.82-1.72,2.62-2.6,3.14l-0.31,0.18c-3.08,1.82-3.72,2.86-3.72,3.41c0,2.99,2.88,3.91,3.94,3.91      c0.06,0,4.88-0.04,5.17-2.93c0.28-2.73-0.11-3.91-1.52-6.27C116.82,105.23,116.49,104.76,116.16,104.32z M111.95,98.69      c0,0,0.53,0.94,1.38,1.67c0.68,0.59,2.77,2.4,4.35,5.06c1.47,2.46,1.89,3.76,1.61,6.66c0,0.04,0,0.06-0.02,0.09      c1.41-1.14,4.44-3.92,4.49-7.08c0,0-0.11-2.07-1.16-3.5c-0.68-0.9-6.03-8.73-6.03-9.89c0-0.11,0-0.28,0.02-0.48      c0.02-0.42,0.04-1.08,0.02-1.89c-0.13,0.02-0.22,0.04-0.31,0.06c-0.62,0.06-2.53,0.46-2.77,0.59c-0.42,0.22-2.35,0.28-2.37,0.28      c-0.11,0-0.79,0.17-1.17,0.75c-0.4,0.62-0.39,1.5,0.06,2.62C111.27,96.72,111.93,98.63,111.95,98.69L111.95,98.69z       M109.09,70.37c1.25,0.81,4.6,5.48,6.47,10.44c1.17,3.1,1.56,5.8,1.65,7.74c0.79-0.18,1.96-0.53,3.56-1.05      c2.22-0.72,3.15-2.38,3.21-5.76c0.06-3.25-7.45-15.48-7.52-15.61c-0.72-1.03-5.8-6.38-7.5-8.16L109.09,70.37z"></path>
			</g>
		</g>
		<path class="st2" d="M115.78,114.99c3.81-0.86,3.15-3.85,3.15-3.85c0-2.66-2.49-3.59-4.11-3.76c-1.52-0.17-2.44,0.4-2.44,0.4    s-3.1,1.8-3.17,3.21C109.12,112.4,110.35,116.2,115.78,114.99L115.78,114.99z"></path>
		<path d="M113.8,115.54L113.8,115.54c-1.54,0-2.79-0.48-3.69-1.43c-0.92-0.97-1.28-2.27-1.23-3.14c0.09-1.54,3.01-3.28,3.34-3.47    c0.02-0.02,1.01-0.61,2.64-0.44c2.02,0.22,4.38,1.41,4.38,4.07l0,0c0,0,0.64,3.25-3.41,4.16    C115.12,115.45,114.44,115.54,113.8,115.54z M114.28,107.65c-1.08,0-1.72,0.39-1.72,0.39c-0.83,0.48-2.97,1.94-3.03,2.97    c-0.04,0.51,0.15,1.72,1.06,2.68c0.77,0.81,1.85,1.23,3.23,1.23l0,0c0.59,0,1.23-0.07,1.91-0.24c3.47-0.77,2.95-3.36,2.92-3.48    c0-2.97-3.19-3.45-3.83-3.52C114.62,107.65,114.44,107.65,114.28,107.65z"></path>
		<path class="st2" d="M108.85,86.67c0,0,3.83-5.08,5.36-4.95c1.21,0.09,1.87,0.59,2.15,2.97c0,0,0.73,4.22,0.61,4.36    c-0.18,0.22-3.21,0.35-3.37,0.55c-0.17,0.2-1.91,0.28-2.37,0.29c-0.46,0.02-1.74,0.86-1.8,1.49c-0.06,0.62-1.12,0.42-1.12,0.42    L108.85,86.67L108.85,86.67z"></path>
		<path d="M108.68,92.14c-0.22,0-0.4-0.04-0.4-0.04L108,92.05l0.57-5.5l0.06-0.07c0.39-0.51,3.87-5.08,5.56-5.08h0.07    c1.54,0.13,2.16,0.97,2.44,3.25c0.75,4.35,0.66,4.47,0.55,4.6c-0.15,0.18-0.46,0.24-1.98,0.4c-0.53,0.06-1.25,0.13-1.43,0.18    c-0.17,0.15-0.57,0.26-2.48,0.35c-0.44,0.02-1.54,0.79-1.58,1.19C109.73,91.61,109.58,92.14,108.68,92.14z M108.66,91.5    C108.66,91.5,108.68,91.52,108.66,91.5c0.15,0,0.44-0.02,0.46-0.17c0.07-0.81,1.5-1.74,2.09-1.76c1.76-0.09,2.11-0.18,2.2-0.24    c0.09-0.13,0.33-0.17,1.76-0.31c0.5-0.06,1.21-0.13,1.5-0.2c-0.04-0.55-0.33-2.42-0.62-4.09c-0.28-2.4-0.92-2.64-1.87-2.71l0,0    c-1.05,0-3.61,2.9-5.03,4.77L108.66,91.5z"></path>
		<path class="st2" d="M10.12,82.02c0,0,5.61,0.73,6.14,4.16c0.51,3.43,0.11,8.33,0.11,8.33l-0.83,0.62l-0.15,0.06    c0,0-0.22-2.59-3.91-4.16c-3.67-1.58-2.55-1.14-2.55-1.14s-0.5-2.6-0.02-4.49C9.41,83.52,10.12,82.02,10.12,82.02L10.12,82.02z"></path>
		<path d="M15.13,95.7l-0.04-0.48c0-0.09-0.28-2.44-3.7-3.91c-1.5-0.64-2.26-0.97-2.6-1.16c-0.02,0-0.04-0.02-0.06-0.02v-0.02    c-0.28-0.17-0.26-0.24-0.24-0.35l0.06-0.26h0.04c-0.13-0.83-0.31-2.71,0.06-4.2c0.48-1.89,1.19-3.37,1.21-3.45l0.09-0.2l0.22,0.04    c0.24,0.04,5.85,0.81,6.4,4.42c0.51,3.43,0.13,8.2,0.11,8.4l-0.02,0.15l-1.12,0.81L15.13,95.7z M9.24,89.7    c0.31,0.15,0.99,0.44,2.38,1.03c2.88,1.23,3.72,3.06,3.98,3.94l0.46-0.35c0.06-0.83,0.35-5.08-0.11-8.11    c-0.42-2.79-4.62-3.69-5.65-3.85c-0.2,0.48-0.72,1.71-1.08,3.12C8.84,87.02,9.15,89.15,9.24,89.7z"></path>
		<path class="st2" d="M115.01,108.68c1.06,0,2.18,0.97,2.18,2.18s-1.8,1.43-2.27,1.43c-0.5,0-2.57-0.61-2.57-2.05    C112.35,108.81,113.95,108.68,115.01,108.68L115.01,108.68z"></path>
		<path d="M114.92,112.61c-0.51,0-2.88-0.61-2.88-2.37c0-1.87,2.24-1.87,2.97-1.87c1.17,0,2.51,1.06,2.51,2.49    S115.65,112.61,114.92,112.61z M115.01,108.99c-1.65,0-2.35,0.37-2.35,1.25c0,1.23,1.94,1.74,2.26,1.74    c0.42,0,1.96-0.18,1.96-1.12C116.88,109.82,115.87,108.99,115.01,108.99z"></path>
		<path d="M5.39,87.65c-1.28,0-2.22-1.28-2.09-2.71c0.13-1.43,0.61-1.27,0.72-0.88c0.09,0.39-0.55,2.48,1.28,2.48    s1.87-1.39,1.87-1.71c0-0.31-1.45-1.83-2.49-2.26c-1.03-0.42-1.32-0.55-1.32-0.9c0-0.35,3.78-1.45,3.78-1.65    c0-0.2-3.1-1.3-3.1-1.3s0.64-2.51,1.41-2.46c0.77,0.07,1.52,1.1,1.49,1.19c-0.04,0.09,1.83-0.22,1.91-0.51    c0.07-0.29-3.32-1.96-3.32-1.96S6,73.91,6.46,74.09c0.46,0.2,3.03,1.61,3.17,1.58c0.13-0.04-0.81,2.62-0.81,2.62    s-1.32,0.07-0.94,0.55c0.39,0.5,0.22,2.13,0.22,2.13l-1.74,0.55l0.13,1.06c0,0,1.19,0.39,1.19,2.55    C7.68,86.07,7.98,87.65,5.39,87.65L5.39,87.65z"></path>
		<path class="st2" d="M5.83,77.78c0,0.13-0.17,0.22-0.39,0.22c-0.22,0-0.39-0.11-0.39-0.22c0-0.13,0.17-0.22,0.39-0.22    C5.67,77.54,5.83,77.65,5.83,77.78L5.83,77.78z"></path>
		<path class="st2" d="M5.28,81.7c0,0.13-0.17,0.22-0.39,0.22s-0.39-0.11-0.39-0.22c0-0.13,0.18-0.22,0.39-0.22    C5.12,81.48,5.28,81.59,5.28,81.7L5.28,81.7z"></path>
		<path d="M11.04,73.32c0,0-2.88-1.71-2.86-1.89c0.04-0.18,0.28-0.94,0.28-0.94L7.9,70.28l-1.39,2.86l0.33,0.22l0.7-0.7l2.86,1.67    L11.04,73.32L11.04,73.32z"></path>
		<path d="M11.7,72c0,0-0.4-1.28-0.13-1.71s0.4-0.5,0.75-0.4c0.37,0.09,1.21-0.18,1.49-0.75c0.28-0.57,0.42-0.73,0.61-0.88    c0.18-0.15,0.77-0.73,0.7-1.21c-0.06-0.5-0.33-1.3-1.16-1.28c-0.83,0.04-1.03,0.55-1.76,0.5s-0.51-0.59-0.51-0.59    s0.7-0.7,0.88-0.7c0.18,0-0.46-0.51-0.46-0.51s-1.19,0.92-1.03,1.63c0.15,0.73,0.66,1.19,1.19,1.16c0.51-0.04,2.27-0.46,2.18-0.04    c-0.09,0.42-0.73,0.84-1.21,0.84c-0.5,0-0.04,0.42-0.04,0.42l0.39,0.18c0,0,0.11,0.22-0.22,0.22c-0.66-0.04-2.11-0.35-3.06-0.42    c-1.43-0.11-1.47,0.07-1.47,0.07l2.55,3.89L11.7,72L11.7,72z"></path>
		<path d="M51.19,27.14c-0.83,0-2.95,0.88-2.95,3.04c0,2.15,1.16,2.86,2.86,2.86c1.71,0,2-1.1,2-1.34c0-0.24-0.37-0.31-0.46-0.22    c0,0-3.04,1.72-3.04-1.38c0-2.4,1.65-2.27,1.65-2.27l1.12,0.24l0.31-0.57C52.67,27.51,52.21,27.14,51.19,27.14L51.19,27.14z"></path>
		<path d="M53.61,27.45l0.7,5.28h1.16l-0.09-2.62l1.94-0.06l0.33,2.26l1.43-0.15l-0.64-5.32c0,0-1.01-0.07-1.06,0.11    c-0.06,0.18,0.09,2,0.09,2l-2.31,0.06l-0.31-1.54L53.61,27.45L53.61,27.45z"></path>
		<path d="M60.01,32.19l0.06-5.45c0,0,3.56-0.28,3.52,1.36c-0.02,1.38-0.83,1.71-0.83,1.71l1.28,2.4l-1.16,0.15    c0,0-1.27-2.04-1.25-1.85c0,0-0.18,0-0.24,0.18c-0.15,0.48-0.28,1.52-0.28,1.52L60.01,32.19L60.01,32.19z"></path>
		<path class="st2" d="M62.12,28.45c0,0.44-0.15,0.81-0.35,0.81c-0.18,0-0.35-0.37-0.35-0.81s0.17-0.81,0.35-0.81    C61.95,27.64,62.12,28,62.12,28.45L62.12,28.45z"></path>
		<polygon points="66.17,32.3 65.01,32.3 65.01,26.87 66.17,26.87   "></polygon>
		<polygon points="76.73,32.86 75.58,32.75 76.07,27.34 77.23,27.45   "></polygon>
		<path d="M69.78,27.78c0,0-0.46-0.42-0.83-0.39c-0.37,0.04-0.55,0.44-0.55,0.7c0,1.1,2,0.5,2,2.49c0,1.45-1.45,1.82-1.94,1.82    c-0.5,0-1.25-0.24-1.28-0.84c-0.04-0.61-0.04-0.61-0.04-0.61v-0.18c0,0,0.84,0.97,1.45,0.95c0.61-0.04,0.73-0.28,0.7-0.86    c-0.04-0.57-2.18-1.12-2.18-2.62c0-1.5,1.03-1.45,1.8-1.52c0.75-0.06,1.34,0.64,1.34,0.64L69.78,27.78L69.78,27.78z"></path>
		<polygon points="71.12,26.96 75.1,27.29 75.03,28.3 73.56,28.26 73.12,32.42 71.86,32.33 72.42,28.11 71.03,27.93   "></polygon>
		<path d="M112.94,64.96l0.51,0.57c0,0-2.55,2.26-2.46,2.77s0.84,1.52,1.61,0.94c0.75-0.57,2.18-1.89,2.18-1.89l0.33,0.55    c0,0-2.26,2-3.14,2s-1.91-1.52-1.98-2.26C109.95,66.94,112.94,64.96,112.94,64.96L112.94,64.96z"></path>
		<path d="M112.68,71.1l3.37-2.07c0,0,2.04,1.91,1.12,2.88c-0.75,0.81-1.89,0.37-1.89,0.37l-0.75,1.49l-0.7-0.68l0.48-1.12    l-0.06-0.24l-0.94,0.31L112.68,71.1L112.68,71.1z"></path>
		<path class="st2" d="M116.49,70.85c0-0.26-0.22-0.48-0.5-0.48c-0.28,0-0.5,0.2-0.5,0.48c0,0.26,0.22,0.46,0.5,0.46    C116.26,71.31,116.49,71.1,116.49,70.85L116.49,70.85z"></path>
		<path d="M119.37,76.35c0,0,0.18-2.55-2.35-1.67c-1.54,0.59-1.16,2.33-0.55,2.33s1.1-0.51,1.1-0.51l0.46,0.75l-1.49,0.94    c0,0-1.3-1.71-1.3-2.73c0-1.03,0.37-1.61,1.52-1.98s3.81,0.68,3.06,2.92C119.76,76.61,119.37,76.35,119.37,76.35L119.37,76.35z"></path>
		<path d="M121.54,79.63l-0.94-2.18l-3.85,1.54l0.84,2.33l0.7-0.22c0,0-0.55-1.12-0.37-1.21c0.18-0.09,0.84-0.46,1.01-0.22    c0.15,0.24,0.55,1.03,0.55,1.03l0.73-0.22c0,0-0.55-1.27-0.46-1.36c0.09-0.09,0.73-0.39,0.84-0.31c0.13,0.09,0.55,1.1,0.55,1.1    L121.54,79.63L121.54,79.63z"></path>
		<path d="M122.93,83.72l-0.73,0.24l-0.37-0.97c0,0-3.01,0.94-3.34,0.94s-0.22-1.06-0.22-1.06s1.98-0.48,3.17-0.92    c-0.13-0.42-0.31-0.97-0.31-0.97l0.77-0.29"></path>
		<path d="M111.74,94.63c0,0,3.45-2.64,3.76-2.22c0.31,0.44-0.81,3.78-0.81,3.78s2.26-1.39,2.6-1.03c0.35,0.37-3.65,2.49-3.65,2.49    s-0.39-0.5-0.26-0.95c0.26-0.99,1.08-2.4,0.79-2.75c-0.44-0.51-2.16,1.21-2.16,1.21L111.74,94.63L111.74,94.63z"></path>
		<path d="M117.19,97.07c0.68,0,2.44,1.01,2.44,2.44c0,1.43-1.16,2.29-2.2,2.29s-2.48-1.23-2.48-2.49    C114.97,98.04,116.64,97.07,117.19,97.07L117.19,97.07z"></path>
		<path class="st2" d="M117.8,98.28c0.61,0,1.05,0.28,1.05,0.83c0,0.53-0.77,1.69-1.83,1.69s-1.28-0.55-1.28-0.94    C115.72,99.48,116.48,98.28,117.8,98.28L117.8,98.28z"></path>
		<path d="M117.92,102.72l0.37,0.37c0,0-0.57,1.17,0.44,1.23c0.99,0.07-0.4-2.93,1.78-2.86c2.2,0.07,1.38,1.69,1.38,1.69l-0.59,0.07    c0,0,0.37-1.03-0.48-1.05c-0.84-0.02,0.33,3.04-1.85,2.88C116.79,104.92,117.25,102.79,117.92,102.72L117.92,102.72z"></path>
		<path class="st2" d="M10.91,69.56c-0.06,0.11-0.26,0.13-0.44,0.06c-0.2-0.09-0.31-0.24-0.28-0.37c0.06-0.11,0.24-0.15,0.44-0.06    C10.84,69.29,10.95,69.45,10.91,69.56L10.91,69.56z"></path>
		<polygon class="st5" points="109.29,111.29 16.01,111.29 16.01,48.18 109.29,48.18   "></polygon>
		<path d="M109.6,111.6H15.7V47.87h93.9C109.6,47.87,109.6,111.6,109.6,111.6z M16.34,110.97h92.63V48.49H16.34V110.97z"></path>
		<path d="M16.29,108.63c0,15.68,0.09,27.36,9.89,36.04c9.79,8.67,13.86,10.09,27.73,18.93c4.95,3.45,9.63,8.31,9.63,9.11v-64.08    C63.51,108.63,17.77,108.63,16.29,108.63L16.29,108.63z"></path>
		<path d="M63.2,172.72c-0.09-0.7-4.38-5.3-9.48-8.88c-3.89-2.48-6.97-4.36-9.7-6.02c-6.84-4.16-10.99-6.68-18.05-12.93    c-10.01-8.86-10.01-20.96-10.01-36.28v-0.31h47.87v64.39L63.2,172.72z M16.6,108.94c0,15.02,0.07,26.89,9.78,35.49    c7.02,6.22,11.13,8.71,17.95,12.87c2.73,1.65,5.81,3.54,9.72,6.03c3.72,2.6,7.65,6.27,9.13,8.23v-62.63H16.6z"></path>
		<path class="st0" d="M109.29,108.63c0,15.68-0.09,27.16-9.63,35.84c-9.56,8.67-13.5,10.09-27.01,18.95    c-4.82,3.45-9.37,8.29-9.37,9.11v-63.9C63.27,108.63,107.82,108.63,109.29,108.63L109.29,108.63z"></path>
		<path d="M63.58,172.52h-0.62v-64.21h46.64v0.31c0,15.2,0,27.22-9.74,36.07c-6.9,6.25-10.91,8.78-17.61,12.95    c-2.66,1.65-5.65,3.54-9.44,6.02C67.84,167.22,63.66,171.83,63.58,172.52z M63.58,108.94v62.41c1.47-1.96,5.28-5.61,8.88-8.2    c3.8-2.49,6.8-4.36,9.46-6.03c6.66-4.16,10.67-6.66,17.51-12.87c9.46-8.6,9.54-20.38,9.54-35.29H63.58V108.94z"></path>
		<path class="st2" d="M52.4,84.78c0,0-0.46-0.68-1.38-0.68c-2.29,0-3.17,2.77-4.14,2.77c0,0-13.81-0.75-13.68,6.95    c0.15,7.7,19.77,9.87,33.67,9.87c14.01-0.61,24.21-5.23,24.21-10.18c0,0,1.03-6.9-7.61-6.9c-3.43,0-4.03,0.31-4.03,0.31    s-1.28-2.77-2.15-2.62c-0.86,0.15-1.34,0.46-1.38,0.97c-0.04,0.51-1.74-0.72-2.6-3.23s-1.23-6.14-1.23-6.14s1.34-0.06,1.58-0.04    c0.22,0.04,0.51,0.26,0.95,0.28c0.42,0.04,0.37-0.04,1.03-0.04s1.06,0,1.21,0c0.15,0,0.66,0,0.66-0.07c0-0.09,0.26-0.09,0.4-0.04    s0.15,0.15,0.81,0.15s0.86-0.06,1.08,0.04c0.24,0.09,0.15,0.17,0.42,0.2c0.29,0.02,0.51,0.11,0.61,0.11c0.09,0,0.83,0.2,0.94,0.29    c0.11,0.09,0.86,0.46,1.01,0.42c0.15-0.02,0.51-0.17,0.72,0.04s1.14,0.97,1.49,0.97s0.86,0.31,1.01,0.46s0.51,0.29,0.86,0.29    s0.61,0.11,0.68,0.2c0.09,0.09,1.38,1.01,1.98,1.03s1.47,0.15,1.69,0.35c0.22,0.2,0.29,0.37,0.92,0.46    c0.62,0.09,0.95-0.15,1.49,0.17c0.55,0.31,2.24,0.17,2.66,0.17c0.42,0,0.66-0.11,0.75-0.22s0.48-0.11,0.88-0.11    c0.4,0,0.77-0.26,0.77-0.66c0-0.4-4.4-5.78-5.69-6.86c-1.28-1.08-2.04-1.43-2.24-1.85c-0.2-0.44-2.05-2.77-3.01-4.35    c-0.95-1.58-4.71-9.67-9.78-9.72c-5.06-0.06-4.03,4.14-4.03,4.14s1.14,4.71,1.03,5.03c-0.11,0.31-3.23,2.13-3.87,2.81    c-0.62,0.68-0.86,0.95-0.86,0.95s-1.98-0.46-2.49-1.08c-0.51-0.62-1.67-1.74-1.23-2.75c0.42-1.01,2.35-5.21,2.35-7.56    c0-2.35-1.14-6.14-5.87-6.14c-4.71,0-6.07,3.67-6.07,7.3s1.38,4.03,1.38,4.03s0.86,1.93,0.88,2.64c0.04,0.72-0.04,1.72-0.04,1.72    s-1.72,0.37-3.08,0.37c-1.38,0-3.92-0.15-3.69-2.44c0.22-2.15,0.37-2.37,0.37-2.37s1.34-4.64-3.21-5.61c0,0-2.46-1.06-8.29,7.45    c-6.29,9.15-3.48,5.43-7.24,9.3c-3.74,3.87-8.62,8.12-8.69,8.69c-0.09,0.57,0.15,0.83,0.75,0.88c0.61,0.06,0.51,0.11,1.03,0.26    c0.51,0.15,0.77,0.15,0.92,0.11s2.51-0.92,2.95-1.23c0.42-0.31,1.34-0.68,1.78-0.66c0.42,0.02,0.75-0.15,0.94-0.2    c0.2-0.06,2.05-1.23,2.31-1.27c0.26-0.02,1.34-0.28,1.47-0.4c0.11-0.11,1.19-0.42,1.65-0.46c0.46-0.02,0.94-0.29,1.03-0.37    c0.09-0.09,0.88-1.08,1.43-1.14s1.06-0.42,1.19-0.62c0.15-0.2,1.89-1.49,2.71-1.58s3.47-0.26,4.05-0.26c0.61,0,2-0.2,2.24-0.4    c0.22-0.2,0.75-1.38,1.63-1.34s2.82,0,2.95,0.2c0.11,0.2,0.44,1.41,0.88,1.6c0.46,0.2,1.41,0.42,1.43,0.68    c0.02,0.26-1.12,0.81-1.12,0.81s-2.29-0.22-2.7,0.86c-0.4,1.08-0.46,3.41-0.92,4.24C53.46,84.53,53.41,84.73,52.4,84.78    L52.4,84.78z"></path>
		<path d="M66.89,104.01c-5.65,0-33.8-0.5-33.98-10.18c-0.04-1.58,0.5-2.93,1.58-4.03c2.88-2.93,8.95-3.26,11.43-3.26    c0.62,0,0.99,0.02,0.99,0.02c0.22,0,0.59-0.44,0.95-0.84c0.7-0.81,1.65-1.93,3.19-1.93c0.79,0,1.3,0.44,1.52,0.68    c0.62-0.04,0.68-0.15,1.03-0.79l0.07-0.11c0.22-0.4,0.35-1.28,0.48-2.13c0.11-0.75,0.22-1.54,0.42-2.07    c0.33-0.9,1.54-1.08,2.49-1.08c0.18,0,0.33,0,0.42,0.02c0.31-0.15,0.61-0.33,0.77-0.44c-0.18-0.09-0.46-0.18-0.64-0.24    c-0.18-0.06-0.37-0.13-0.5-0.18c-0.42-0.18-0.7-0.81-0.94-1.49c-0.02-0.07-0.06-0.15-0.07-0.18c-0.31-0.07-1.39-0.09-2-0.11    c-0.28,0-0.51,0-0.72-0.02l0,0c-0.51,0-0.9,0.55-1.14,0.92c-0.11,0.15-0.18,0.28-0.28,0.35c-0.35,0.31-1.94,0.48-2.44,0.48    c-0.59,0-3.23,0.17-4.03,0.26c-0.7,0.07-2.31,1.23-2.49,1.45c-0.18,0.26-0.77,0.68-1.41,0.75c-0.13,0.02-0.46,0.15-1.16,0.95    c-0.04,0.06-0.07,0.07-0.07,0.09c-0.15,0.15-0.72,0.44-1.23,0.46c-0.4,0.02-1.34,0.31-1.49,0.39c-0.2,0.22-1.5,0.46-1.63,0.46    c-0.13,0.04-0.86,0.48-1.3,0.73c-0.66,0.39-0.84,0.5-0.95,0.51c-0.04,0.02-0.09,0.04-0.13,0.06c-0.18,0.07-0.46,0.17-0.81,0.17    h-0.11l0,0c-0.39,0-1.17,0.31-1.56,0.61c-0.5,0.35-2.9,1.25-3.06,1.28c-0.2,0.04-0.57,0.02-1.06-0.13    c-0.18-0.06-0.29-0.09-0.4-0.13c-0.15-0.06-0.22-0.07-0.59-0.11c-0.4-0.04-0.68-0.17-0.86-0.39c-0.17-0.22-0.22-0.5-0.17-0.86    c0.06-0.4,0.95-1.28,3.74-3.92c1.6-1.52,3.41-3.25,5.04-4.93c0.95-0.99,1.5-1.49,1.85-1.82c0.77-0.72,0.77-0.72,2.62-3.43    c0.64-0.95,1.52-2.24,2.73-4.02c4.55-6.62,7.12-7.61,8.25-7.61c0.26,0,0.39,0.06,0.42,0.07c1.34,0.28,2.37,0.95,2.97,1.94    c1.06,1.76,0.44,3.94,0.42,4.03c0,0.02-0.02,0.06-0.04,0.07l0,0c0,0-0.13,0.37-0.33,2.24c-0.06,0.53,0.06,0.95,0.35,1.28    c0.73,0.81,2.46,0.81,3.04,0.81c1.03,0,2.27-0.22,2.79-0.31c0.02-0.33,0.04-0.95,0.02-1.45c-0.02-0.5-0.55-1.82-0.81-2.4    c-0.4-0.22-1.45-1.08-1.45-4.27c0-2.84,0.83-7.61,6.38-7.61c4.57,0,6.18,3.48,6.18,6.46c0,2.24-1.63,5.98-2.26,7.39l-0.13,0.28    c-0.29,0.7,0.46,1.58,0.95,2.16c0.07,0.09,0.17,0.18,0.22,0.26c0.29,0.37,1.39,0.75,2.15,0.94c0.13-0.15,0.37-0.4,0.73-0.81    c0.35-0.39,1.32-1.01,2.26-1.63c0.61-0.4,1.34-0.88,1.54-1.06c-0.02-0.46-0.53-2.77-1.03-4.84c-0.02-0.07-0.42-1.83,0.61-3.15    c0.72-0.92,1.94-1.39,3.63-1.39H78c4.68,0.06,8.14,6.4,9.63,9.11c0.18,0.33,0.31,0.59,0.42,0.77c0.53,0.88,1.36,2.02,2.02,2.93    c0.59,0.81,0.9,1.25,1.01,1.45c0.07,0.18,0.39,0.4,0.81,0.7c0.35,0.26,0.81,0.59,1.34,1.05c1.1,0.94,5.81,6.46,5.81,7.1    c0,0.55-0.48,0.97-1.08,0.97c-0.2,0-0.55,0-0.68,0.04c-0.13,0.15-0.4,0.31-0.95,0.31c-0.07,0-0.2,0-0.33,0.02    c-0.24,0-0.55,0.02-0.88,0.02c-0.81,0-1.3-0.07-1.6-0.24c-0.28-0.17-0.48-0.15-0.72-0.13c-0.2,0.02-0.4,0.02-0.66-0.02    c-0.57-0.07-0.77-0.24-0.99-0.44l-0.09-0.09c-0.11-0.09-0.73-0.24-1.49-0.26c-0.75-0.04-2.11-1.05-2.18-1.12    c-0.02-0.02-0.2-0.11-0.46-0.11c-0.4,0-0.86-0.17-1.08-0.37c-0.11-0.11-0.55-0.37-0.79-0.37c-0.55,0-1.71-1.05-1.71-1.06    c-0.15-0.02-0.26,0.02-0.33,0.04l-0.11,0.02l0,0c-0.39,0-1.14-0.4-1.25-0.5c-0.09-0.04-0.66-0.2-0.77-0.22l0,0    c-0.06,0-0.13-0.02-0.22-0.04s-0.24-0.06-0.39-0.07c-0.22-0.02-0.33-0.07-0.42-0.17c-0.02-0.02-0.04-0.04-0.07-0.04    c-0.06-0.02-0.11-0.04-0.22-0.04h-0.22c-0.15,0-0.31,0-0.53,0c-0.57,0-0.73-0.06-0.88-0.15c-0.04-0.02-0.07-0.04-0.11-0.04    c-0.17,0.15-0.51,0.15-0.88,0.15h-1.21c-0.29,0-0.44,0.02-0.55,0.02c-0.15,0-0.24,0.02-0.5,0c-0.31-0.02-0.55-0.13-0.73-0.2    c-0.09-0.04-0.18-0.07-0.22-0.07c-0.15-0.02-0.79,0-1.19,0.02c0.11,0.95,0.5,3.74,1.17,5.74c0.61,1.76,1.6,2.79,2.04,3.06    c0.13-0.4,0.51-0.84,1.6-1.01c0.02,0,0.11-0.02,0.11-0.02c0.88,0,1.83,1.74,2.24,2.57c0.46-0.11,1.5-0.24,3.87-0.24    c2.97,0,5.15,0.79,6.51,2.37c1.82,2.09,1.43,4.77,1.41,4.9C91.39,98.81,80.64,103.42,66.89,104.01L66.89,104.01z M45.9,87.17    c-2.4,0-8.27,0.29-10.99,3.06c-0.95,0.97-1.43,2.18-1.39,3.58c0.13,7.06,18.05,9.56,33.36,9.56c13.41-0.57,23.9-4.92,23.9-9.87    c0-0.07,0.35-2.57-1.27-4.44c-1.23-1.41-3.26-2.15-6.03-2.15c-3.21,0-3.87,0.28-3.91,0.28c-0.15,0.06-0.35,0-0.42-0.15    c-0.55-1.19-1.39-2.46-1.8-2.46c-0.73,0.11-1.1,0.35-1.14,0.68c-0.02,0.24-0.18,0.4-0.42,0.4c-0.62,0-2.05-1.43-2.79-3.56    c-0.86-2.51-1.23-6.07-1.25-6.22c0-0.09,0.02-0.17,0.07-0.24c0.06-0.06,0.13-0.11,0.22-0.11c0,0,1.39-0.06,1.63-0.04    c0.13,0.02,0.26,0.07,0.39,0.13c0.17,0.07,0.33,0.15,0.53,0.15c0.2,0.02,0.28,0,0.39,0c0.13-0.02,0.28-0.02,0.61-0.02h1.21    c0.26,0,0.39-0.02,0.44-0.02c0.11-0.13,0.48-0.18,0.73-0.07c0.04,0.02,0.07,0.04,0.11,0.06c0.06,0.04,0.13,0.07,0.59,0.07    c0.22,0,0.39,0,0.51-0.02c0.28,0,0.44-0.04,0.68,0.06c0.15,0.06,0.22,0.11,0.28,0.17c0,0,0.02,0.02,0.09,0.02    c0.18,0.02,0.35,0.06,0.46,0.09c0.06,0.02,0.09,0.02,0.11,0.02l0,0c0.13,0,0.94,0.22,1.12,0.35c0.11,0.07,0.68,0.35,0.81,0.37    c0.11-0.04,0.28-0.07,0.42-0.07c0.26,0,0.42,0.11,0.51,0.2c0.26,0.26,1.06,0.86,1.27,0.88c0.44,0,1.03,0.37,1.23,0.55    c0.06,0.06,0.35,0.18,0.64,0.18c0.42,0,0.75,0.15,0.9,0.29c0.15,0.13,1.32,0.92,1.78,0.95c0.15,0,1.49,0.07,1.87,0.42    c0.04,0.04,0.09,0.07,0.13,0.11c0.13,0.13,0.22,0.22,0.62,0.28c0.2,0.02,0.39,0.02,0.53,0c0.29-0.02,0.59-0.07,1.06,0.2    c0.11,0.06,0.4,0.17,1.28,0.17c0.31,0,0.62-0.02,0.86-0.02c0.15,0,0.28,0,0.37,0c0.39,0,0.5-0.11,0.5-0.11    c0.17-0.22,0.51-0.24,1.14-0.24c0.22,0,0.46-0.13,0.46-0.35c-0.17-0.46-4.29-5.54-5.58-6.62c-0.53-0.44-0.95-0.77-1.3-1.03    c-0.53-0.39-0.84-0.62-1.01-0.95c-0.07-0.17-0.5-0.73-0.94-1.34c-0.66-0.92-1.5-2.07-2.05-2.97c-0.11-0.18-0.26-0.46-0.44-0.79    c-1.3-2.38-4.77-8.75-9.08-8.78h-0.09c-1.49,0-2.53,0.39-3.14,1.14c-0.84,1.08-0.5,2.6-0.5,2.62c1.17,4.81,1.05,5.12,1.03,5.21    c-0.07,0.22-0.44,0.48-1.8,1.38c-0.81,0.53-1.83,1.21-2.13,1.54c-0.62,0.68-0.84,0.94-0.86,0.94c-0.07,0.09-0.18,0.11-0.31,0.09    c-0.22-0.06-2.09-0.5-2.66-1.19c-0.06-0.07-0.13-0.17-0.22-0.26c-0.61-0.7-1.52-1.76-1.06-2.81l0.13-0.28    c0.55-1.25,2.2-5.04,2.2-7.15c0-0.97-0.28-5.83-5.56-5.83c-4.75,0-5.76,3.8-5.76,6.99c0,3.28,1.14,3.72,1.16,3.74    c0.07,0.04,0.15,0.09,0.18,0.17c0.09,0.2,0.88,2,0.92,2.75c0.04,0.72-0.04,1.71-0.04,1.74c0,0.15-0.11,0.26-0.24,0.29    c-0.07,0.02-1.76,0.39-3.15,0.39c-1.12,0-2.68-0.11-3.5-1.01c-0.4-0.46-0.57-1.05-0.5-1.76c0.09-0.77,0.24-2.07,0.39-2.44    c0.06-0.18,0.51-2.05-0.37-3.52c-0.51-0.84-1.39-1.41-2.6-1.67c-0.06-0.02-0.11-0.04-0.24-0.04c-0.62,0-3.06,0.53-7.74,7.34    c-1.21,1.76-2.09,3.04-2.73,4c-1.89,2.77-1.89,2.77-2.71,3.54c-0.35,0.33-0.88,0.83-1.83,1.8c-1.63,1.69-3.45,3.43-5.06,4.95    c-1.69,1.6-3.43,3.26-3.56,3.59c-0.02,0.17,0,0.29,0.04,0.35c0.06,0.07,0.2,0.13,0.42,0.15c0.42,0.04,0.53,0.07,0.73,0.15    c0.07,0.04,0.18,0.07,0.35,0.11c0.37,0.09,0.64,0.13,0.77,0.11c0.22-0.06,2.46-0.9,2.82-1.17c0.46-0.33,1.39-0.72,1.91-0.72h0.15    c0.24,0,0.42-0.07,0.59-0.13c0.07-0.02,0.13-0.06,0.18-0.06c0.07-0.04,0.48-0.28,0.81-0.46c1.03-0.61,1.38-0.79,1.56-0.81    c0.26-0.02,1.16-0.26,1.3-0.33c0.18-0.18,1.43-0.5,1.83-0.51c0.37-0.02,0.77-0.24,0.84-0.29l0.04-0.06    c0.46-0.51,1.05-1.12,1.56-1.17c0.46-0.06,0.9-0.39,0.97-0.5c0.18-0.26,2.02-1.61,2.93-1.71c0.84-0.09,3.47-0.26,4.09-0.26    s1.83-0.2,2.04-0.33c0.02-0.02,0.09-0.13,0.17-0.22c0.31-0.44,0.83-1.19,1.63-1.19c0.24,0,0.48,0.02,0.75,0.02    c1.98,0.04,2.35,0.09,2.49,0.35c0.04,0.06,0.07,0.18,0.15,0.35c0.11,0.28,0.39,1.03,0.61,1.12c0.13,0.06,0.28,0.11,0.46,0.17    c0.62,0.22,1.12,0.39,1.16,0.77c0.02,0.15,0.06,0.48-1.3,1.12c-0.06,0.02-0.11,0.02-0.17,0.04c0,0-0.18-0.02-0.46-0.02    c-0.5,0-1.69,0.07-1.91,0.68c-0.17,0.46-0.28,1.21-0.39,1.94c-0.15,0.95-0.28,1.83-0.55,2.33l-0.06,0.11    c-0.44,0.81-0.64,1.06-1.71,1.12c-0.09,0.02-0.22-0.04-0.28-0.15c-0.02-0.02-0.39-0.55-1.12-0.55c-1.25,0-2.05,0.95-2.71,1.71    c-0.5,0.57-0.92,1.06-1.45,1.06C46.86,87.19,46.49,87.17,45.9,87.17z"></path>
		<path class="st2" d="M69.49,71.4c0,0,1.01-1.27,1.34-1.63"></path>
		<path d="M69.49,71.71c-0.07,0-0.13-0.02-0.2-0.07c-0.13-0.11-0.17-0.31-0.06-0.44c0.04-0.06,1.01-1.28,1.36-1.65    c0.11-0.13,0.31-0.13,0.44-0.02s0.13,0.31,0.02,0.44c-0.33,0.37-1.32,1.6-1.32,1.61C69.67,71.67,69.58,71.71,69.49,71.71z"></path>
		<path class="st5" d="M62.85,66.94c0,0-0.2-3.37,0.5-4.44c0.7-1.05,2.04-2.71,1.93-4.77c-0.09-2.05-1.5-2.68-3.14-2.31    c-1.63,0.39-1.63,0.97-1.83,1.78c-0.06,1.49,2.62,3.89,2.2,5.26C62.08,63.86,62.85,66.94,62.85,66.94L62.85,66.94z"></path>
		<path d="M62.54,67.01c-0.04-0.13-0.77-3.17-0.31-4.62c0.18-0.61-0.44-1.58-1.05-2.53c-0.61-0.95-1.19-1.87-1.17-2.66l0.06-0.26    c0.17-0.73,0.33-1.43,2.02-1.82c0.31-0.07,0.62-0.11,0.92-0.11c1.54,0,2.51,1.01,2.59,2.7c0.09,1.93-1.01,3.52-1.72,4.58    l-0.26,0.37c-0.53,0.79-0.51,3.34-0.46,4.24L62.54,67.01z M63,55.66c-0.24,0-0.51,0.04-0.79,0.09c-1.3,0.29-1.39,0.7-1.54,1.34    l-0.06,0.2c0,0.53,0.55,1.39,1.08,2.22c0.72,1.12,1.39,2.18,1.12,3.04c-0.07,0.22-0.11,0.5-0.11,0.81    c0.09-0.42,0.22-0.79,0.39-1.05l0.26-0.39c0.72-1.05,1.71-2.48,1.61-4.2C64.89,56.41,64.19,55.66,63,55.66z"></path>
		<path d="M59.99,61.95c0,0.46-0.37,0.83-0.83,0.83c-0.46,0-0.83-0.37-0.83-0.83c0-0.46,0.37-0.83,0.83-0.83    C59.6,61.13,59.99,61.49,59.99,61.95L59.99,61.95z"></path>
		<path d="M65.53,97.62c-0.02,0-0.02,0-0.04,0c-0.13-0.02-0.22-0.09-0.26-0.22c-0.02-0.04-0.18-0.57-0.68-1.1    c-0.9-0.15-2.37-0.26-2.82,0.06c-0.81,0.55-1.3,0.75-1.32,0.75c-0.15,0.07-0.35,0-0.4-0.17c-0.07-0.17,0.02-0.35,0.17-0.4    c0,0,0.46-0.2,1.21-0.7c0.48-0.31,1.36-0.35,2.13-0.29c-0.39-0.17-0.86-0.29-1.41-0.31c-0.55,0-0.59,0.07-0.7,0.22    c-0.31,0.42-0.72,0.72-2.53,0.66c-1.03-0.04-1.65-0.83-1.69-0.86c-0.07-0.09-0.09-0.2-0.06-0.29c-0.13,0.09-0.26,0.13-0.35,0.15    c-0.4,0.04-0.72-0.24-0.9-0.4c-0.04-0.02-0.06-0.06-0.07-0.06c-0.04-0.02-0.31-0.09-0.53-0.15c-0.17-0.04-0.28-0.2-0.22-0.39    c0.04-0.17,0.22-0.26,0.39-0.24c0.13,0.04,0.51,0.13,0.68,0.2c0.06,0.04,0.11,0.07,0.18,0.13c0.09,0.07,0.31,0.26,0.42,0.26    c0.02,0,0.02,0.04,0.07-0.06c0.11-0.13,0.09-0.53,0.09-0.88c-0.02-0.57-0.04-1.23,0.29-1.74c0.61-0.97,1.63-3.25,1.34-3.98    c-0.04-0.09-0.09-0.15-0.18-0.17c-1.14-0.29-1.58-0.11-1.58-0.11c-0.09,0.04-0.18,0.04-0.28-0.02s-0.15-0.13-0.17-0.22    c-0.17-0.86-0.62-3.7-0.04-4.42c0.22-0.26,0.57-0.51,0.95-0.79c0.5-0.37,1.19-0.86,1.17-1.19c0-0.11,0-0.24,0-0.39    c0-0.94-0.06-1.6-0.88-1.65c-0.17,0-0.31-0.17-0.29-0.33c0.02-0.17,0.17-0.26,0.33-0.29c1.47,0.09,1.47,1.5,1.47,2.27    c0,0.13,0,0.24,0,0.35c0.02,0.66-0.72,1.21-1.43,1.72c-0.35,0.24-0.66,0.48-0.84,0.68c-0.26,0.31-0.15,2.04,0.11,3.58    c0.31-0.04,0.83-0.02,1.6,0.17c0.29,0.07,0.5,0.26,0.61,0.55c0.53,1.32-1.38,4.51-1.39,4.55c-0.22,0.35-0.2,0.9-0.2,1.39    c0.02,0.5,0.02,0.95-0.18,1.25c0.13-0.06,0.28-0.02,0.37,0.09c0,0,0.5,0.61,1.21,0.62c1.65,0.06,1.85-0.2,2-0.4    c0.04-0.04,0.06-0.07,0.09-0.11c-0.42-0.5-1.34-1.67-1.5-2.38c-0.17-0.7-0.62-3.8,0.39-5.15c0.31-0.42,0.75-0.66,1.27-0.68    c0.7-0.09,1.1,0.11,1.3,0.31c0.37-0.33,1.03-1.14,0.4-2.22c-0.28-0.5-0.55-0.9-0.81-1.28c-0.64-0.97-1.19-1.8-1.19-3.06    c0-0.68,0.26-1.82,2-1.83c0.48-0.02,1.25-0.02,1.82,0.51c0.46,0.42,0.68,1.05,0.66,1.87c-0.02,1.5-0.26,2.37-0.39,2.88    c-0.06,0.24-0.11,0.4-0.09,0.5c0.04,0.26,0.55,1.71,0.97,2.84c0.07-0.13,0.15-0.24,0.15-0.33c0.07-0.57,0.88-1.1,1.34-1.1    c0.29,0,0.97,0.22,1.5,0.79c0.2,0.2,0.4,0.5,0.57,0.88c0.09-0.33,0.22-0.61,0.37-0.81c0.51-0.72,1.61-0.83,2.2-0.79    c-0.15-0.59-0.51-1.72-1.21-2.48c-0.5-0.53-1.1-0.81-1.69-1.08c-0.64-0.29-1.27-0.59-1.69-1.16c-0.33-0.44-0.35-0.97-0.04-1.45    c0.42-0.68,1.54-1.27,2.99-0.99c2.04,0.4,3.69,4.29,3.74,4.46c0.07,0.17,0,0.35-0.17,0.4c-0.15,0.07-0.35,0-0.4-0.17    c-0.44-1.05-1.87-3.8-3.28-4.07c-1.1-0.2-2.02,0.2-2.33,0.72c-0.17,0.26-0.17,0.51,0.02,0.75c0.33,0.44,0.84,0.68,1.43,0.95    c0.62,0.29,1.32,0.61,1.89,1.23c1.1,1.19,1.45,3.12,1.45,3.19c0.02,0.09-0.02,0.2-0.09,0.28c-0.07,0.07-0.17,0.11-0.28,0.09    c-0.42-0.04-1.63-0.07-2.05,0.51c-0.53,0.72-0.73,2.62,0.95,4.62c1.74,2.05,2.11,2.22,2.82,2.13c0.26-0.04,0.51-0.07,0.77-0.07    c-0.11-0.11-0.22-0.26-0.35-0.4c-0.06,0.06-0.11,0.11-0.2,0.15c-0.17,0.07-0.35,0-0.4-0.17c-0.07-0.17,0-0.35,0.17-0.42l0,0    c-0.02,0-0.04-0.07-0.06-0.13c0,0,0-0.02-0.02-0.02c-0.22-0.24-0.44-0.51-0.66-0.77c-0.07,0.55-0.22,0.59-0.33,0.62    c-0.17,0.07-0.33-0.04-0.39-0.2c-0.04-0.11,0-0.24,0.07-0.31c0.04-0.13,0.07-0.48,0.07-0.79c0-0.02,0-0.02,0-0.04    c-0.02-0.02-0.04-0.06-0.06-0.07c-0.04,0.46-0.13,0.51-0.2,0.57c-0.13,0.11-0.33,0.07-0.44-0.06c-0.09-0.11-0.09-0.26,0-0.37    C72,91.2,72,90.75,72,90.34c-0.09-0.15-0.17-0.28-0.18-0.39l-0.24-0.79c-0.06-0.17,0.04-0.35,0.2-0.39    c0.17-0.06,0.35,0.04,0.39,0.2l0.24,0.79c0.02,0.06,0.06,0.13,0.11,0.22c0.04,0.04,0.07,0.09,0.09,0.15    c0.55,0.83,2.02,2.51,3.01,3.58c0.37,0,0.68,0,0.9-0.02c0.18-0.02,0.57-0.35,0.92-0.64s0.73-0.62,1.17-0.9    c0.28-0.17,0.44-0.31,0.57-0.42c0.06-0.04,0.11-0.07,0.15-0.11c-0.04-0.02-0.06-0.04-0.09-0.04c-0.06,0.06-0.09,0.11-0.17,0.13    c-0.15,0.09-0.35,0.02-0.42-0.13c-0.06-0.11-0.04-0.22,0.02-0.31c-0.13-0.07-0.24-0.17-0.37-0.24c-0.04,0.22-0.13,0.42-0.29,0.51    c-0.15,0.07-0.35,0.02-0.42-0.15c-0.07-0.13-0.04-0.29,0.09-0.39c0.02-0.07,0.04-0.28,0.04-0.44c-0.04-0.04-0.07-0.07-0.13-0.09    c-0.04,0.07-0.07,0.15-0.13,0.2c-0.13,0.11-0.33,0.09-0.44-0.06c-0.09-0.11-0.09-0.26-0.02-0.39c0-0.07,0-0.2-0.04-0.31    c0,0,0,0,0-0.02c-0.24-0.22-0.39-0.39-0.4-0.4c-0.11-0.13-0.11-0.33,0.02-0.44c0.13-0.11,0.33-0.11,0.44,0.02    c0.02,0.02,1.85,1.96,3.34,2.24c0.11,0,0.26,0,0.4,0.02c0.62,0.04,1.36,0.07,1.93,0.09c-0.97-0.81-2.6-2.38-3.56-4.4    c-0.07-0.17,0-0.35,0.15-0.42c0.15-0.07,0.35,0,0.42,0.15c1.28,2.75,4.07,4.73,4.11,4.75c0.11,0.07,0.17,0.22,0.11,0.35    c-0.04,0.13-0.17,0.22-0.29,0.22l0,0c-0.02,0-1.65-0.04-2.9-0.11c-0.02,0-0.04,0-0.06,0c-0.04,0.02-0.07,0.02-0.11,0.02    c-0.09,0-0.17-0.02-0.26-0.04c-0.39,0-0.48,0.07-0.72,0.28c-0.15,0.11-0.35,0.28-0.64,0.46c-0.4,0.24-0.77,0.55-1.08,0.83    c-0.5,0.42-0.9,0.77-1.3,0.79c-0.51,0.04-1.56-0.02-2.42,0.11c-0.22,0.04-0.44,0.06-0.64,0.02c-0.04,0-0.07,0-0.11,0    c-0.04,0-3.41-0.29-5.03,0.59c-1.61,0.9-2.55,2.4-2.57,2.42C65.75,97.57,65.64,97.62,65.53,97.62z M65.03,95.94    c0.24,0.28,0.42,0.53,0.55,0.75c0.42-0.57,1.27-1.52,2.48-2.18c0.13-0.07,0.26-0.13,0.39-0.18c0.09-0.57,0.44-2.7,0.57-4.97    c0.06-0.99-0.17-1.76-0.68-2.29c-0.46-0.48-0.97-0.59-1.06-0.59c-0.2,0-0.68,0.35-0.72,0.55c-0.06,0.46-0.55,0.99-0.64,1.1    c-0.07,0.07-0.18,0.11-0.29,0.09s-0.2-0.09-0.24-0.2c-0.18-0.51-1.14-3.06-1.21-3.5c-0.04-0.22,0.02-0.44,0.11-0.75    c0.13-0.51,0.35-1.28,0.37-2.73c0.02-0.64-0.15-1.1-0.46-1.39c-0.42-0.39-1.05-0.39-1.28-0.35H62.8c-0.95,0-1.38,0.37-1.38,1.19    c0,1.08,0.46,1.76,1.08,2.71c0.26,0.39,0.55,0.83,0.83,1.32c0.88,1.58-0.17,2.81-0.84,3.23c-0.07,0.06-0.18,0.06-0.28,0.04    c-0.09-0.04-0.17-0.11-0.18-0.2c-0.04-0.09-0.29-0.28-0.9-0.2c-0.35,0.02-0.61,0.17-0.83,0.44c-0.81,1.08-0.48,3.81-0.28,4.64    c0.13,0.55,1.01,1.67,1.45,2.2c0.15-0.04,0.33-0.06,0.59-0.04c1.28,0.04,2.16,0.55,2.75,1.1C64.94,95.77,65.01,95.84,65.03,95.94z     M69.6,90.25c-0.13,1.65-0.35,3.14-0.46,3.85c1.05-0.28,2.27-0.29,3.15-0.31c-0.42-0.37-0.9-0.92-1.56-1.69    C70.19,91.48,69.82,90.86,69.6,90.25z M51.42,95.48c-0.81,0-1.19-0.59-1.21-0.62c-0.02-0.04-0.04-0.07-0.04-0.11    c-0.02-0.04-0.29-1.12-2.44-1.12c-2.07,0-2.37-0.26-2.68-1.38c-0.06-0.18-0.11-0.39-0.18-0.62c-0.33-0.94-2.4-0.46-3.12-0.2    c-0.15,0.06-0.31-0.02-0.39-0.17c-0.07-0.15-0.02-0.33,0.13-0.4c0.04-0.02,1.1-0.64,1.8-1.01c0.48-0.24,2.22-1.96,3.26-3.06    c0.13-0.11,0.31-0.13,0.44,0c0.13,0.13,0.13,0.31,0,0.44c-0.2,0.2-1.58,1.63-2.57,2.51c1.03-0.02,2.2-0.11,2.53-0.31    c0.15-0.09,0.35-0.04,0.42,0.11c0.09,0.15,0.04,0.35-0.11,0.42c-0.68,0.4-3.03,0.4-3.65,0.4c-0.02,0-0.04,0.02-0.06,0.02    c-0.04,0.02-0.07,0.04-0.11,0.06c0.83-0.04,1.71,0.15,2,0.95c0.09,0.26,0.15,0.48,0.2,0.66c0.11,0.39,0.17,0.61,0.4,0.73    c0.2-0.17,0.59-0.48,0.94-0.72c0.33-0.22,0.64-0.48,0.94-0.73c-0.15-0.13-0.4-0.33-0.68-0.48c-0.15-0.09-0.2-0.28-0.11-0.42    c0.09-0.15,0.28-0.2,0.42-0.11c0.37,0.22,0.64,0.4,0.83,0.59c2.66-2.6,3.76-6.13,3.76-6.16c0.06-0.17,0.22-0.26,0.39-0.2    c0.17,0.06,0.26,0.22,0.2,0.39c-0.06,0.18-1.23,3.92-4.14,6.66c-0.02,0.02-0.02,0.06-0.04,0.07c-0.04,0.04-0.09,0.07-0.15,0.09    c-0.33,0.29-0.68,0.57-1.06,0.84c-0.17,0.11-0.33,0.24-0.5,0.37c0.24,0.02,0.51,0.02,0.86,0.02c1.67,0,2.44,0.59,2.79,1.06    c0.11-0.31,0.29-0.72,0.59-1.27c0.07-0.15,0.28-0.22,0.42-0.13c0.15,0.07,0.22,0.28,0.13,0.42c-0.31,0.61-0.64,1.38-0.68,1.61    c0.13,0.07,0.29,0.11,0.53,0.11c0-0.37,0.24-0.86,0.48-1.25c0.09-0.15,0.29-0.18,0.42-0.11c0.15,0.09,0.18,0.29,0.11,0.44    c-0.17,0.26-0.29,0.55-0.35,0.73c0.22-0.09,0.46-0.2,0.66-0.29c0.35-0.17,0.64-0.31,0.86-0.31c0.17,0,0.31,0.15,0.31,0.31    c0,0.17-0.15,0.31-0.31,0.31c-0.09,0-0.39,0.15-0.61,0.24c-0.39,0.18-0.86,0.42-1.36,0.51C51.63,95.48,51.53,95.48,51.42,95.48z     M66.63,94.62c-0.06,0-0.13-0.02-0.18-0.06c-0.15-0.09-0.18-0.29-0.07-0.44c0.28-0.4,0.37-1.17,0.39-1.83    c-0.09,0.11-0.15,0.17-0.17,0.17c-0.13,0.11-0.31,0.11-0.44-0.02c-0.11-0.13-0.11-0.33,0.02-0.44c0,0,0.39-0.37,0.46-0.83    c-0.18,0.24-0.35,0.39-0.37,0.4c-0.13,0.11-0.33,0.09-0.44-0.04c-0.11-0.13-0.09-0.33,0.04-0.44c0.15-0.13,0.53-0.55,0.51-0.95    c0-0.17,0.13-0.31,0.29-0.33h0.02c0.17,0,0.31,0.13,0.31,0.29c0.02,0.22-0.04,0.42-0.11,0.61l0,0c0.13-0.02,0.28,0.02,0.35,0.13    c0.18,0.26,0.35,2.62-0.35,3.61C66.83,94.56,66.74,94.62,66.63,94.62z M62.59,93.62c-0.13,0-0.26-0.09-0.29-0.22    c-0.28-0.92-0.66-2-0.81-2.16c-0.13-0.11-0.15-0.31-0.02-0.44c0.11-0.13,0.31-0.15,0.44-0.02c0.29,0.26,0.73,1.65,0.99,2.46    c0.06,0.17-0.04,0.35-0.2,0.39C62.65,93.62,62.63,93.62,62.59,93.62z M26.68,85.39c-0.02,0-0.02,0-0.02,0    c-0.17-0.02-0.29-0.18-0.26-0.37c0.02-0.17,0.18-0.29,0.35-0.26c0.68-0.2,6.57-5.76,10.09-9.21c0.13-0.11,0.31-0.13,0.44,0    c0.13,0.13,0.11,0.31,0,0.44C32.9,80.29,27.53,85.39,26.68,85.39z M30.52,84.53c-0.13,0-0.24-0.07-0.29-0.2    c-0.07-0.17,0.02-0.35,0.17-0.4c2.15-0.88,7.74-7.52,7.81-7.57c0.11-0.13,0.31-0.15,0.44-0.04c0.13,0.11,0.15,0.31,0.04,0.44    c-0.24,0.28-5.78,6.82-8.05,7.76C30.59,84.53,30.55,84.53,30.52,84.53z M34.75,82.82c-0.13,0-0.26-0.07-0.29-0.2    c-0.06-0.17,0.04-0.35,0.18-0.4c1.47-0.51,4.31-4.22,5.28-5.61c0.09-0.15,0.29-0.18,0.44-0.07s0.18,0.29,0.07,0.44    c-0.15,0.2-3.63,5.15-5.59,5.83C34.83,82.8,34.79,82.82,34.75,82.82z M38.28,81.5c-0.11,0-0.22-0.07-0.28-0.18    c-0.07-0.17,0-0.35,0.15-0.42c0.72-0.35,2.79-3.04,4-4.75c0.09-0.15,0.29-0.18,0.44-0.07c0.15,0.09,0.18,0.29,0.07,0.44    c-0.31,0.46-3.14,4.44-4.24,4.97C38.37,81.48,38.31,81.5,38.28,81.5z M93.15,81.32c-0.04,0-0.07,0-0.11-0.02    c-1.25-0.44-5.23-7.37-6-8.75c-0.09-0.15-0.04-0.35,0.11-0.42s0.35-0.04,0.42,0.13c1.91,3.36,4.92,8.2,5.67,8.47    c0.17,0.06,0.24,0.24,0.18,0.4C93.39,81.25,93.28,81.32,93.15,81.32z M97.05,81.32c-0.07,0-0.17-0.04-0.22-0.09    c-0.02-0.02-1.43-1.49-3.15-2.68c-1.8-1.25-3.43-3.76-3.48-3.87c-0.09-0.15-0.06-0.33,0.09-0.44c0.15-0.09,0.35-0.06,0.44,0.09    c0.02,0.02,1.61,2.51,3.32,3.69c1.78,1.23,3.19,2.7,3.25,2.75c0.13,0.13,0.11,0.33,0,0.44C97.22,81.3,97.15,81.32,97.05,81.32z     M90.65,80.66c-0.06,0-0.11-0.02-0.17-0.06c-1.05-0.68-4.2-6.73-4.57-7.41c-0.07-0.15-0.02-0.35,0.13-0.42    c0.15-0.09,0.35-0.02,0.42,0.13c1.32,2.53,3.67,6.73,4.36,7.17c0.15,0.09,0.18,0.29,0.09,0.44    C90.86,80.62,90.76,80.66,90.65,80.66z M72.68,79.94c-0.11,0-0.2-0.06-0.26-0.15c-0.02-0.02-1.28-1.98-2.46-2.46    c-0.17-0.07-0.24-0.26-0.17-0.4c0.07-0.17,0.26-0.24,0.4-0.17c1.36,0.55,2.7,2.6,2.75,2.7c0.09,0.15,0.06,0.33-0.09,0.44    C72.81,79.94,72.75,79.94,72.68,79.94z M87.83,79.72c-0.06,0-0.11-0.02-0.17-0.06c-1.65-1.05-3.5-5.92-3.59-6.13    c-0.06-0.17,0.02-0.35,0.18-0.4c0.17-0.07,0.35,0.02,0.4,0.18c0.51,1.36,2.13,5.04,3.34,5.83c0.15,0.09,0.18,0.29,0.09,0.44    C88.03,79.67,87.92,79.72,87.83,79.72z M85.74,78.81c-0.06,0-0.13-0.02-0.18-0.06c-1.3-0.95-2.6-5.23-2.75-5.72    c-0.06-0.17,0.06-0.33,0.22-0.39c0.17-0.06,0.35,0.04,0.39,0.22c0.37,1.27,1.56,4.69,2.51,5.39c0.15,0.11,0.17,0.29,0.07,0.44    C85.92,78.77,85.83,78.81,85.74,78.81z M43.37,78.7c-0.09,0-0.18-0.04-0.24-0.11c-0.11-0.13-0.09-0.33,0.04-0.44    c0.18-0.15,0.81-1.27,1.3-2.2c0.07-0.15,0.28-0.2,0.42-0.13c0.15,0.07,0.22,0.28,0.13,0.42c-0.26,0.48-1.08,2.07-1.45,2.38    C43.5,78.68,43.43,78.7,43.37,78.7z M64.59,78.27c-0.26,0-0.33-0.31-0.37-0.44c-0.18-0.73-0.73-1.36-1.14-1.82    c-0.22-0.26-0.4-0.44-0.5-0.64c-0.13-0.26-0.9-1.19-1.52-1.94c-0.46-0.55-0.9-1.1-1.19-1.47c-0.75-0.99-1.05-3.23-1.06-3.32    c-0.02-0.17,0.09-0.33,0.28-0.35c0.18,0.02,0.33,0.09,0.35,0.28c0,0.02,0.29,2.16,0.94,3.03c0.28,0.37,0.72,0.9,1.17,1.45    c0.11,0.13,0.2,0.24,0.29,0.35c0-0.07-0.02-0.11-0.02-0.15c-0.02-0.07-0.04-0.13-0.04-0.26c0-0.44-0.61-2.82-0.84-3.54    c-0.24-0.72-0.59-3.3-0.68-4.05l0,0c-0.04-0.33-1.12-0.72-2.05-0.84c-0.17-0.02-0.29-0.18-0.26-0.35    c0.02-0.17,0.18-0.29,0.35-0.26c0.46,0.07,1.71,0.29,2.29,0.84c0.22-0.33,0.51-0.7,0.66-0.81c0.15-0.11,1.06-1.01,1.01-2.07    c-0.02-0.55-0.64-1.49-1.19-2.31c-0.55-0.83-1.06-1.6-1.12-2.16c-0.04-0.39,0.07-0.97,0.53-1.49c0.39-0.4,1.12-0.9,2.49-0.9    c0.04,0,0.09,0,0.15,0c1.72,0.04,2.48,1.47,2.46,2.86c-0.04,2.62-1.65,4.29-1.72,4.36l0,0c0,0-0.68,0.83-0.68,2.13    c0,1.38-0.04,2.29-0.04,2.29c0,0.04-0.02,0.07-0.02,0.11c0.07,0.35,0.17,0.73,0.26,1.17c0.15,0.7,0.33,1.5,0.53,2.46    c0.02,0.07,1.58,7.65,0.75,7.85C64.65,78.26,64.61,78.27,64.59,78.27z M62.5,74.18c0.35,0.44,0.57,0.73,0.66,0.9    c0.06,0.11,0.22,0.29,0.4,0.5c0.2,0.22,0.44,0.5,0.68,0.81c-0.15-1.43-0.46-3.67-0.92-5.85c-0.2-0.95-0.39-1.76-0.53-2.46    c-0.44-2-0.7-3.12-0.7-4.09c-0.2,0.26-0.39,0.42-0.46,0.48c-0.09,0.07-0.44,0.55-0.72,0.97c0.11,0.97,0.42,3.23,0.62,3.8    c0.22,0.64,0.88,3.15,0.88,3.74c0,0.06,0,0.09,0.02,0.13C62.47,73.25,62.5,73.43,62.5,74.18z M62.78,62.74c0,0.09,0,0.2-0.02,0.33    c0.24-0.75,0.62-1.19,0.64-1.21c0.04-0.04,1.52-1.6,1.56-3.94c0.02-1.05-0.48-2.2-1.85-2.22c-0.95-0.02-1.72,0.22-2.16,0.7    c-0.35,0.39-0.4,0.81-0.39,0.99c0.06,0.42,0.55,1.17,1.03,1.89c0.62,0.94,1.27,1.91,1.3,2.62C62.92,62.17,62.87,62.47,62.78,62.74    z M83.46,77.54c-0.07,0-0.13-0.02-0.2-0.07c-0.83-0.64-1.54-3.94-1.69-4.58c-0.04-0.17,0.07-0.33,0.24-0.37    c0.18-0.06,0.33,0.07,0.37,0.24c0.29,1.43,0.95,3.83,1.45,4.22c0.13,0.11,0.17,0.31,0.06,0.44C83.65,77.5,83.56,77.54,83.46,77.54    z M72.2,77.34c-0.07,0-0.15-0.02-0.2-0.07c-0.99-0.81-2.49-1.96-2.7-2.07c-0.17-0.06-0.24-0.22-0.2-0.39    c0.06-0.17,0.22-0.26,0.4-0.2c0.06,0.02,0.26,0.07,2.88,2.16c0.13,0.11,0.17,0.31,0.06,0.44C72.39,77.3,72.3,77.34,72.2,77.34z     M81.3,76.9c-0.06,0-0.09-0.02-0.15-0.04c-0.95-0.48-1.67-4.64-1.85-5.91c-0.02-0.17,0.09-0.33,0.26-0.35    c0.18-0.02,0.33,0.09,0.35,0.26c0.37,2.46,1.08,5.23,1.52,5.43c0.15,0.07,0.22,0.26,0.15,0.42C81.52,76.83,81.41,76.9,81.3,76.9z     M79.78,76.5c-0.04,0-0.07,0-0.13-0.02c-1.27-0.53-2.31-5.04-2.51-5.94c-0.04-0.17,0.07-0.33,0.24-0.37    c0.18-0.04,0.33,0.07,0.37,0.24c0.46,2.11,1.43,5.21,2.13,5.5c0.17,0.07,0.24,0.26,0.17,0.4C80.02,76.42,79.91,76.5,79.78,76.5z     M78.46,76.46c-0.02,0-0.04,0-0.04,0c-1.08-0.15-1.8-1.83-2.44-3.52l-0.06-0.13c-0.44-1.19-0.37-3.14-0.37-3.21    c0-0.17,0.15-0.29,0.31-0.29h0.02c0.17,0,0.31,0.15,0.29,0.33c0,0.02-0.07,1.89,0.33,2.97l0.06,0.13    c0.37,0.97,1.12,3.01,1.93,3.14c0.17,0.02,0.29,0.18,0.28,0.35C78.75,76.35,78.62,76.46,78.46,76.46z M74.61,76.46    c-0.51,0-1.12-0.73-1.14-0.75L73.4,75.6c-0.07-0.11-0.15-0.22-0.39-0.42c-0.4-0.33-0.5-1.47-0.51-1.94c0-0.17,0.13-0.31,0.29-0.33    c0,0,0,0,0.02,0c0.17,0,0.31,0.13,0.31,0.29c0.02,0.66,0.17,1.38,0.29,1.49c0.29,0.26,0.4,0.4,0.5,0.53l0.06,0.09    c0.09,0.11,0.28,0.28,0.42,0.39c-0.06-0.07-0.09-0.15-0.13-0.22c-0.04-0.07-0.07-0.13-0.11-0.18c-0.26-0.31-0.24-1.38-0.18-2.22    c0.02-0.17,0.17-0.28,0.33-0.29c0.17,0.02,0.31,0.17,0.29,0.33c-0.06,0.73-0.04,1.61,0.06,1.8c0.06,0.07,0.11,0.17,0.17,0.28    c0.09,0.2,0.2,0.39,0.48,0.5c-0.15-0.18-0.24-0.37-0.28-0.44c-0.02-0.06-0.04-0.09-0.04-0.15v-1.23c0-0.17,0.15-0.31,0.31-0.31    c0.17,0,0.31,0.15,0.31,0.31v1.16c0.2,0.35,0.55,0.77,0.77,0.77c0.18,0,0.31,0.15,0.31,0.31c0,0.17-0.15,0.31-0.31,0.31    s-0.33-0.06-0.48-0.15c-0.06,0.09-0.17,0.17-0.31,0.15c-0.29-0.04-0.5-0.11-0.68-0.2C74.88,76.35,74.75,76.46,74.61,76.46z     M51.53,76.33c-0.07,0-0.13,0-0.2-0.02C51,76.26,50.8,76.11,50.69,76c-0.55,0.22-1.08,0.11-1.41-0.06    c-0.66,0.17-1.34-0.15-1.74-0.42c-0.04,0.02-0.06,0.04-0.09,0.06c-0.72,0.39-1.47-0.15-1.85-0.59c-0.04,0.02-0.07,0.04-0.13,0.06    c-0.42,0.17-0.72,0.06-0.88-0.06c-0.24-0.17-0.37-0.46-0.42-0.72c-0.31,0.15-0.59,0.2-0.79,0.22c-0.4-0.02-0.72-0.35-0.88-0.57    c-0.02,0-0.04,0.02-0.04,0.02c-0.77,0.4-1.39-0.06-1.67-0.42c-0.79,0.26-1.54,0.15-1.83,0.11c-0.94,0.42-1.93,0.31-2.26,0.26    c-0.33,0.06-0.66-0.02-0.95-0.22c-0.17-0.04-0.26-0.2-0.2-0.39c0.04-0.17,0.24-0.26,0.4-0.22c0.04,0,0.13,0.06,0.17,0.07    c0.13,0.09,0.28,0.15,0.46,0.13c0.04,0,0.09-0.02,0.11-0.02c0.4-0.07,0.9-0.46,1.47-1.1c1.67-1.89,5.3-6.88,5.34-6.93    c0.11-0.15,0.29-0.17,0.44-0.07c0.15,0.11,0.17,0.29,0.07,0.44c-0.04,0.06-3.69,5.06-5.37,6.97c-0.26,0.28-0.5,0.51-0.72,0.72    c0.26-0.04,0.55-0.11,0.83-0.22c0.04-0.02,0.07-0.04,0.11-0.06c0.29-0.15,0.57-0.37,0.79-0.68c1.08-1.5,4.02-4.99,4.13-5.14    c0.11-0.13,0.31-0.15,0.44-0.04c0.13,0.11,0.15,0.31,0.04,0.44c-0.04,0.04-3.04,3.61-4.11,5.1c-0.11,0.15-0.22,0.28-0.33,0.39    c0.31-0.02,0.66-0.07,1.01-0.22c0.24-0.11,0.46-0.26,0.64-0.42c1.06-1.05,1.58-1.91,1.58-1.91c0.09-0.15,0.28-0.2,0.42-0.11    c0.15,0.09,0.2,0.28,0.11,0.42c-0.02,0.04-0.55,0.94-1.69,2.04c-0.15,0.15-0.33,0.28-0.51,0.39c0.15,0.15,0.42,0.33,0.77,0.13    c0.75-0.4,2.49-2.31,2.62-2.71c0.17-0.48,1.45-2.88,2.18-3.28c0.15-0.09,0.35-0.04,0.42,0.11c0.09,0.15,0.04,0.35-0.11,0.42    c-0.48,0.28-1.72,2.42-1.89,2.95c-0.18,0.53-1.45,1.93-2.37,2.68c0.11,0.15,0.28,0.31,0.4,0.31c0.11-0.02,0.44-0.13,0.79-0.31    c0.04-0.04,0.09-0.07,0.15-0.09c0.37-0.22,0.72-0.46,0.84-0.64c0.09-0.15,0.29-0.18,0.44-0.09c0.15,0.09,0.18,0.29,0.09,0.44    c-0.15,0.22-0.53,0.53-0.97,0.79c0.02,0.2,0.09,0.42,0.2,0.5c0.06,0.04,0.15,0.04,0.29-0.02c0.92-0.37,3.3-2.6,3.47-3.15    c0.06-0.17,0.22-0.26,0.4-0.2c0.17,0.06,0.26,0.22,0.2,0.39c-0.22,0.68-2,2.37-3.17,3.15c0.22,0.22,0.66,0.57,1.01,0.37    c0.68-0.37,2.99-3.23,3.14-3.59c0-0.17,0.13-0.28,0.31-0.28c0.17,0,0.31,0.17,0.31,0.35c0,0.42-1.83,2.6-2.88,3.59    c0.35,0.2,1.08,0.53,1.58-0.07c0.83-1.03,2.16-3.5,2.16-3.52c0.09-0.17,0.28-0.2,0.42-0.13c0.15,0.07,0.2,0.28,0.13,0.42    c-0.06,0.11-1.38,2.55-2.24,3.63c-0.02,0.04-0.06,0.06-0.07,0.09c0.31,0.04,0.81-0.13,1.23-0.83c0.92-1.52,1.8-3.01,1.8-3.01    c0.09-0.15,0.28-0.2,0.42-0.11c0.15,0.09,0.2,0.28,0.11,0.42c0,0-0.88,1.49-1.8,3.01c-0.17,0.28-0.33,0.48-0.51,0.64    c0.2,0.07,0.61,0.13,1.27-0.37c0.07-0.06,0.15-0.07,0.24-0.06c0-0.02,0.02-0.02,0.02-0.04l1.36-2.38c0.09-0.15,0.28-0.2,0.42-0.11    s0.2,0.28,0.11,0.42l-1.36,2.38c-0.07,0.11-0.18,0.18-0.31,0.15c-0.02,0.06-0.06,0.09-0.11,0.13    C52.42,76.13,51.96,76.33,51.53,76.33z M72.72,76.15c-0.07,0-0.15-0.02-0.2-0.07c-0.66-0.61-2.84-2.6-3.06-3.15l-0.2-0.51    c-0.06-0.17,0.02-0.35,0.18-0.4c0.17-0.07,0.35,0.02,0.4,0.18l0.2,0.51c0.13,0.29,1.56,1.71,2.9,2.92    c0.13,0.11,0.15,0.31,0.02,0.44C72.88,76.11,72.81,76.15,72.72,76.15z M54.62,75.6c-0.06,0-0.11-0.02-0.17-0.04    c-0.15-0.09-0.2-0.28-0.11-0.42l0.72-1.23c0.09-0.15,0.28-0.2,0.42-0.11s0.2,0.28,0.11,0.42l-0.72,1.23    C54.82,75.54,54.71,75.6,54.62,75.6z M90.97,72.26c-0.06,0-0.11-0.02-0.15-0.04c-0.09-0.04-0.62-0.17-1.05-0.26    c-0.68-0.17-1.47-0.35-1.91-0.51c-0.17-0.06-0.31-0.13-0.46-0.22h-0.02l-1.58-0.39c-0.17-0.02-0.42-0.09-0.86-0.22    c-0.07-0.02-0.18-0.09-0.29-0.2c-0.06-0.02-0.11-0.06-0.15-0.11c0,0-0.18-0.22-1.3-0.46c-0.5-0.11-1.05-0.64-1.54-1.27    c-0.04-0.02-0.09-0.02-0.24-0.02c-0.17,0-0.39,0-0.68-0.02c-0.9-0.11-1.93-2-2.13-2.37c-0.07-0.15-0.02-0.35,0.13-0.42    s0.35-0.02,0.42,0.13c0.5,0.95,1.27,2,1.65,2.04c0.15,0.02,0.28,0.02,0.39,0.02c-0.48-0.7-0.84-1.36-0.92-1.5    c-0.07-0.15-0.02-0.35,0.13-0.42c0.15-0.07,0.35-0.02,0.42,0.13c0.31,0.59,0.79,1.36,1.28,1.98c0.04,0.04,0.09,0.09,0.13,0.15    c0.02,0.02,0.02,0.04,0.04,0.06c0.39,0.48,0.77,0.84,1.06,0.9c0.13,0.02,0.26,0.06,0.39,0.09c-1.05-1.36-2.4-3.45-3.1-4.57    c-0.09-0.15-0.06-0.33,0.09-0.44c0.15-0.09,0.35-0.06,0.44,0.09C82.82,67,84.77,69.8,85.19,70c0.26,0.07,0.44,0.13,0.55,0.17    c0.02,0,0.06,0,0.07,0l0.53,0.13c-0.02-0.02-0.02-0.02-0.02-0.02l-4.02-5.74c-0.09-0.15-0.07-0.33,0.07-0.44    c0.15-0.11,0.33-0.07,0.44,0.07l4,5.72l0,0c0,0,0.42,0.5,0.97,0.79c-0.04-0.06-0.06-0.11-0.09-0.18    c-0.15-0.28-0.33-0.62-0.61-1.05c-0.81-1.21-3.14-4.24-3.15-4.27c-0.11-0.15-0.07-0.33,0.06-0.44s0.33-0.07,0.44,0.06    c0.09,0.13,2.37,3.08,3.19,4.31c0.29,0.44,0.5,0.81,0.64,1.1c0.28,0.51,0.39,0.73,0.79,0.88c0,0,0.02,0,0.04,0.02    c0.29,0.07,0.62,0.15,0.9,0.22c0.79,0.18,1.08,0.26,1.21,0.33c0.15,0.09,0.2,0.28,0.11,0.42C91.19,72.2,91.08,72.26,90.97,72.26z"></path>
		<path d="M66.72,102.78c-0.04,0-0.07-0.02-0.11-0.04l0,0c0,0-0.17-0.13-0.75-0.39c-0.59-0.26-1.21-0.13-1.23-0.13    c-0.07,0.02-0.17-0.04-0.18-0.13c-0.02-0.07,0.04-0.17,0.11-0.18c0.04-0.02,0.73-0.17,1.41,0.15c0.64,0.28,0.81,0.42,0.83,0.44    c0.07,0.06,0.07,0.17,0.02,0.22C66.81,102.76,66.76,102.78,66.72,102.78z M62.26,102.7c-0.06,0-0.11-0.04-0.15-0.09    c-0.04-0.07,0-0.17,0.07-0.2c0.04-0.02,0.75-0.39,1.1-0.44c0.09-0.02,0.17,0.04,0.18,0.13c0.02,0.09-0.04,0.17-0.13,0.18    c-0.26,0.06-0.83,0.31-1.01,0.42C62.32,102.7,62.28,102.7,62.26,102.7z M57.04,101.4c-0.04,0-0.07-0.02-0.11-0.06    c-0.06-0.06-0.06-0.17,0-0.22c0.07-0.07,1.71-1.65,3.41-1.49c0.9,0.09,1.54,0.48,2.04,0.79c0.44,0.28,0.77,0.5,1.17,0.42    c0.37-0.06,0.77-0.33,1.17-0.62c0.55-0.39,1.17-0.83,1.85-0.83l0,0c0.09,0,0.15,0.07,0.17,0.15c0,0.09-0.07,0.17-0.15,0.17    c-0.59,0.02-1.14,0.4-1.69,0.77c-0.46,0.31-0.88,0.62-1.32,0.68c-0.48,0.06-0.9-0.18-1.38-0.48c-0.51-0.31-1.08-0.66-1.91-0.75    c-0.07,0-0.15-0.02-0.22-0.02c-1.49,0-2.92,1.39-2.93,1.41C57.13,101.4,57.09,101.4,57.04,101.4z M70.09,99.92    C70.09,99.92,70.08,99.92,70.09,99.92c-0.22-0.02-0.59-0.04-0.68-0.07c-0.06-0.02-0.07-0.06-0.09-0.09c-0.02,0-0.04,0-0.06,0    l-0.59-0.04c-0.09,0-0.15-0.07-0.15-0.17c0-0.07,0.07-0.15,0.15-0.15l0,0l0.59,0.04c0.07,0,0.13,0.06,0.15,0.11    c0.04,0,0.07-0.02,0.09,0c0.06,0.02,0.35,0.04,0.59,0.06c0.09,0,0.15,0.07,0.15,0.17C70.24,99.84,70.17,99.92,70.09,99.92z     M75.21,99.7c-0.04,0-0.07-0.02-0.11-0.06c-0.06-0.06-0.06-0.17,0-0.22c0.04-0.04,3.43-3.25,6.9-4.2c2.38-0.64,3.65-0.81,3.8-0.46    c0.02,0.07,0,0.15-0.06,0.18c-0.5,0.37-1.74,1.49-1.61,2.29c0.02,0.09-0.06,0.17-0.13,0.18c-0.09,0.02-0.17-0.06-0.18-0.13    c-0.15-0.92,0.95-1.94,1.49-2.38l0,0c-0.28,0-0.81,0.06-1.87,0.29h-0.02c-1.5,0.39-2.37,3.58-2.37,3.61    c-0.02,0.07-0.11,0.15-0.18,0.11c-0.09-0.02-0.13-0.11-0.11-0.18c0.04-0.11,0.61-2.24,1.69-3.28c-0.11,0.02-0.22,0.06-0.33,0.09    c-0.73,0.2-1.47,0.51-2.18,0.86c-0.02,0.02-0.04,0.04-0.06,0.06c-0.75,0.37-1.1,2.16-1.17,2.82c0,0.07-0.07,0.15-0.17,0.15h-0.02    c-0.09,0-0.15-0.09-0.15-0.17c0-0.07,0.17-1.43,0.68-2.35c-2.09,1.23-3.69,2.75-3.7,2.77C75.3,99.68,75.25,99.7,75.21,99.7z     M48.14,99.37c-0.06,0-0.11-0.02-0.13-0.07c-0.06-0.09-0.13-0.2-0.22-0.33c-0.02-0.02-0.06-0.04-0.06-0.06    c-0.11-0.15-1.14-0.07-2.18,0.18c-0.09,0.02-0.17-0.04-0.18-0.11c-0.02-0.07,0.04-0.17,0.11-0.18c0.48-0.11,1.43-0.29,2.02-0.24    c-0.4-0.57-0.9-1.23-1.17-1.41c-0.09-0.06-0.2-0.07-0.29-0.07c-0.26,0.06-0.48,0.4-0.48,0.4c-0.04,0.07-0.15,0.09-0.22,0.06    c-0.07-0.04-0.09-0.15-0.06-0.22c0.02-0.02,0.28-0.46,0.68-0.55c0.18-0.04,0.37,0,0.53,0.11c0.57,0.39,1.72,2.2,1.78,2.29    c0.04,0.07,0.02,0.17-0.06,0.22C48.2,99.37,48.18,99.37,48.14,99.37z M64.46,99.35c-0.02,0-0.04,0-0.06,0    c-0.07-0.04-0.13-0.13-0.09-0.2c0.11-0.28,0.48-0.79,1.16-0.73c0.09,0,0.15,0.07,0.15,0.17s-0.09,0.13-0.17,0.15    c-0.04,0-0.06,0-0.07,0c-0.55,0-0.75,0.53-0.75,0.53C64.57,99.31,64.52,99.35,64.46,99.35z M53.33,99.27    c-0.06,0-0.11-0.02-0.13-0.07c-0.7-1.12-1.67-0.9-1.71-0.88c-0.07,0.02-0.17-0.04-0.18-0.11c-0.02-0.09,0.04-0.17,0.11-0.18    c0.02,0,1.23-0.29,2.05,1.03c0.04,0.07,0.02,0.17-0.06,0.22C53.39,99.25,53.37,99.27,53.33,99.27z M39.49,98.65    c-0.07,0-0.13-0.04-0.15-0.11c0-0.02-0.5-1.65-1.01-2.38c-0.51-0.72-1.58-1.12-1.6-1.14c-0.07-0.04-0.13-0.13-0.09-0.2    c0.04-0.07,0.11-0.13,0.2-0.09c0.06,0.02,1.17,0.44,1.74,1.25c0.55,0.79,1.05,2.42,1.06,2.48c0.02,0.07-0.02,0.17-0.11,0.2    C39.5,98.63,39.49,98.65,39.49,98.65z M72.92,97.88c-0.28,0-0.48-0.24-0.66-0.44c-0.06-0.06-0.09-0.11-0.13-0.15    c-0.2-0.2-1.12-0.46-1.63-0.59c-0.09-0.02-0.15-0.11-0.13-0.18c0.02-0.07,0.11-0.15,0.18-0.11c0.15,0.04,1.45,0.33,1.8,0.66    c0.06,0.06,0.09,0.11,0.15,0.17c0.15,0.17,0.29,0.33,0.44,0.33l0,0c0.11,0,0.22-0.13,0.29-0.24c0.48-0.68,0.68-0.97,1.08-1.08    c0.07-0.04,0.17,0.02,0.2,0.11c0.02,0.07-0.02,0.17-0.11,0.2c-0.29,0.09-0.46,0.31-0.9,0.95c-0.17,0.24-0.35,0.37-0.53,0.39    C72.96,97.88,72.94,97.88,72.92,97.88z M54.36,97.66c-0.04,0-0.07-0.02-0.11-0.06c-0.79-0.83-2.27-0.7-2.29-0.7h-0.02    c-0.07,0-0.15-0.06-0.15-0.15c0-0.09,0.06-0.17,0.15-0.17c0.07,0,1.65-0.15,2.55,0.79c0.06,0.06,0.06,0.17,0,0.22    C54.43,97.66,54.4,97.66,54.36,97.66z M56.6,97.38c-0.04,0-0.06,0-0.07-0.02c-0.07-0.04-0.09-0.15-0.06-0.22    c0.02-0.04,0.4-0.66,0.99-0.66c0.07,0,0.18,0.06,0.18,0.17c0,0.09-0.07,0.15-0.15,0.15h-0.02c-0.4,0-0.72,0.51-0.72,0.51    C56.71,97.37,56.65,97.38,56.6,97.38z M45.32,95.7c-0.06,0-0.11-0.04-0.13-0.07c0,0-0.2-0.31-0.46-0.7    c-0.22-0.09-0.95,0.15-1.54,0.48c-0.07,0.04-0.17,0.02-0.22-0.06c-0.04-0.07-0.02-0.17,0.06-0.22c0.26-0.15,0.95-0.5,1.47-0.53    c-0.18-0.24-0.37-0.48-0.53-0.66c-0.48-0.51-1.61-0.44-1.61-0.44c-0.07,0-0.17-0.06-0.17-0.15c0-0.09,0.06-0.17,0.15-0.17    c0.06,0,1.3-0.07,1.87,0.55c0.24,0.26,0.51,0.64,0.75,0.97c0.02,0.02,0.04,0.04,0.06,0.06c0.02,0.02,0.04,0.06,0.04,0.09    c0.22,0.33,0.39,0.59,0.4,0.61c0.04,0.07,0.02,0.17-0.06,0.22C45.37,95.7,45.34,95.7,45.32,95.7z M79.08,94.76    c-0.04,0-0.07-0.02-0.11-0.04c-0.06-0.06-0.06-0.17,0-0.22s1.28-1.3,2.38-1.5c0.09-0.04,0.17,0.04,0.18,0.13    c0.02,0.09-0.04,0.17-0.13,0.18c-1.01,0.18-2.2,1.41-2.22,1.43C79.15,94.76,79.12,94.76,79.08,94.76z M85.3,92.56    c-0.07,0-0.15-0.06-0.15-0.13c-0.09-0.59-0.26-1.58-0.39-1.78c-0.04-0.07-0.02-0.17,0.06-0.22c0.07-0.04,0.17-0.02,0.22,0.06    c0.18,0.33,0.39,1.74,0.42,1.91c0.02,0.09-0.06,0.17-0.13,0.18C85.32,92.56,85.32,92.56,85.3,92.56z M35.6,92.34L35.6,92.34    c-0.09,0-0.17-0.07-0.15-0.17c0.04-0.46,0.83-1.28,0.99-1.45c0.06-0.07,0.17-0.07,0.22,0c0.06,0.06,0.06,0.17,0,0.22    c-0.33,0.35-0.88,0.99-0.9,1.25C35.76,92.29,35.69,92.34,35.6,92.34z M87.11,91.35c-0.09,0-0.15-0.07-0.15-0.15    c0-0.46-0.15-1.74-0.64-2.07c-0.07-0.06-0.09-0.15-0.04-0.22c0.06-0.07,0.15-0.09,0.22-0.04c0.73,0.5,0.77,2.26,0.77,2.33    C87.28,91.28,87.21,91.35,87.11,91.35L87.11,91.35z M89.5,91.28c-0.07,0-0.13-0.04-0.15-0.11c-0.18-0.64-0.86-2.33-1.65-2.48    c-0.09-0.02-0.15-0.09-0.13-0.18c0.02-0.07,0.09-0.15,0.18-0.13c1.14,0.22,1.85,2.59,1.89,2.7c0.02,0.07-0.02,0.17-0.11,0.2    C89.53,91.28,89.52,91.28,89.5,91.28z M38.17,90.75c-0.07,0-0.15-0.06-0.15-0.13c-0.06-0.46,0.75-0.86,1.01-0.97    c0.07-0.04,0.17,0,0.2,0.07c0.04,0.07,0,0.17-0.07,0.2c-0.4,0.18-0.84,0.5-0.83,0.64c0.02,0.09-0.06,0.17-0.13,0.18    C38.17,90.75,38.17,90.75,38.17,90.75z"></path>
		<path d="M58.65,78.11c-0.07,0-0.17-0.04-0.22-0.09c-0.06-0.06-0.07-0.11-0.09-0.17c-0.06-0.02-0.09-0.06-0.13-0.09    c-0.02-0.04-0.26-0.29-0.92-1.38c-0.73-1.17,0.15-4.49,0.24-4.88c0.04-0.17,0.22-0.26,0.39-0.22c0.17,0.06,0.28,0.22,0.22,0.39    c-0.35,1.32-0.75,3.67-0.31,4.38c0.39,0.62,0.62,0.97,0.75,1.14c0.17-0.57,0.4-1.61,0.59-2.55c0.04-0.17,0.18-0.29,0.37-0.24    c0.17,0.04,0.28,0.2,0.26,0.37c-0.26,1.34-0.64,2.99-0.92,3.26C58.8,78.09,58.72,78.11,58.65,78.11z"></path>
		<path d="M58.83,81.1l2.44-4.11c0,0-2.31,0.26-3.59,1.45C57.81,78.97,58.67,79.04,58.83,81.1L58.83,81.1z"></path>
		<path d="M61.03,79.96c0,0,0.95-3.54,1.25-3.98c0.29-0.44,1.87,3.08,1.87,3.08S61.59,78.57,61.03,79.96L61.03,79.96z"></path>
		<path d="M65.4,76.81c0,0,3.39,2.13,3.91,2.11c0.51-0.02-1.91,0.29-1.91,1.61C67.38,81.37,65.67,77.89,65.4,76.81L65.4,76.81z"></path>
		<path d="M55.92,92.41l-0.57-0.26c0.15-0.33,0.37-0.83,0.57-1.28c-0.39,0.22-0.51,0.17-0.61,0.11c-0.15-0.07-0.22-0.22-0.2-0.39    c0.04-0.42,0.7-1.32,0.99-1.69l0.5,0.39c-0.18,0.22-0.35,0.46-0.48,0.68c0.11-0.09,0.24-0.18,0.35-0.28l0.5,0.37    C56.95,90.05,56.27,91.66,55.92,92.41z M59.88,89.24h-0.62c0.04-3.25-0.04-8.34-0.33-9.04l-0.44-1.03l0.59-0.24l0.44,1.03    C59.93,80.99,59.88,88.4,59.88,89.24z"></path>
		<path class="st2" d="M31.67,131.99l1.21,1.06l-0.9,2.93c0,0,2.7-0.86,3.32-0.39c0.61,0.48,0.66,0.77,0.66,0.77    s-6.46,8.2-9.39,5.06C23.64,138.26,31.67,131.99,31.67,131.99L31.67,131.99z"></path>
		<path class="st2" d="M35.49,131.07l1.87,1.82c0,0-2.16,1.5-3.08,1.39C33.36,134.19,35.49,131.07,35.49,131.07L35.49,131.07z"></path>
		<polygon class="st2" points="38.33,132.36 36.11,130.16 53.7,112.57 55.92,114.77   "></polygon>
		<polygon points="46.2,125.65 41.89,129.96 38.28,126.34 42.6,122.03   "></polygon>
		<path class="st2" d="M47.85,136.34l1.06-1.21l2.92,0.9c0,0-0.86-2.7-0.39-3.3c0.48-0.61,0.77-0.66,0.77-0.66s8.2,6.46,5.06,9.39    C54.12,144.37,47.85,136.34,47.85,136.34L47.85,136.34z"></path>
		<path class="st2" d="M46.93,132.52l1.82-1.87c0,0,1.5,2.16,1.39,3.08C50.05,134.65,46.93,132.52,46.93,132.52L46.93,132.52z"></path>
		<polygon class="st2" points="48.22,129.7 46.01,131.9 28.43,114.31 30.63,112.11   "></polygon>
		<path class="st2" d="M73.85,130.05c0,0-1.93,5.17-3.17,5.69c-1.25,0.51-2.22,0.62-2.22,0.62s-2.6-2.77-2.16-3.98    c0.46-1.19,2.49-4.14,3.98-3.87c1.47,0.29,2.6,0.46,2.6,0.46s2.05,1.14,0.68,4.93c-0.68,1.89-1.25,2.16-3.23,3.12    s-2.11,0.84-2.11,0.84l-2.09-2.55c0,0-0.22-2.22,0.22-3.12"></path>
		<path d="M68.21,138.52c-0.2,0-0.31-0.07-0.42-0.18l-2.27-2.75l-0.02-0.18c-0.02-0.24-0.24-2.42,0.29-3.47h0.02    c0.57-1.21,2.6-4.4,4.58-4.03c1.45,0.29,2.59,0.46,2.59,0.46l0.2,0.07c0.11,0.06,2.49,1.43,0.97,5.7    c-0.77,2.11-1.52,2.48-3.52,3.45C69.2,138.26,68.57,138.52,68.21,138.52z M70.06,129.11c-0.92,0-2.68,2.18-3.17,3.48    c-0.15,0.4,0.7,1.82,1.8,3.06c0.37-0.07,1.01-0.22,1.74-0.53c0.57-0.22,1.82-2.68,2.7-4.95c-0.17-0.33-0.37-0.53-0.48-0.61    c-0.35-0.06-1.32-0.22-2.49-0.44C70.11,129.11,70.09,129.11,70.06,129.11z M73.05,133.46c-0.39,0.77-0.81,1.52-1.25,2.05    c0.55-0.4,0.83-0.86,1.17-1.82C73.01,133.61,73.03,133.53,73.05,133.46z"></path>
		<path d="M86.34,117.54c2.11,0,2.9-0.51,3.06-0.57c0.17-0.06,3.01,0,4.6,0.06c1.6,0.06,4.55,0.46,5.91,0.06    c1.36-0.4,2.9-1.14,2.84-0.84c-0.06,0.28-2.9,3.12-4.82,4.09s-2.27,1.19-2.33,1.41c-0.06,0.24,3.23-0.11,6.02-0.79    c2.79-0.68,2.66-0.28,2.66-0.28s-1.36,3.36-4.31,4.36c-2.95,1.03-6.42,1.41-6.42,1.41s-1.36,1.49-1.82,1.54s-0.51,0.22-0.51,0.4    c0,0.17,1.03,0.84,1.25,1.25c0.22,0.4,4.31,4.03,7.15,4.09c2.84,0.06,3.58,0.28,2.95,1.03c-0.62,0.73-1.65,1.65-1.65,1.98    c0,0.33-0.22,0.79-1.08,0.79c-0.86,0-5.28-2.11-7.78-1.93c-2.49,0.17-2.55,0.73-2.9,0.73s-1.14,0-1.14,0s-1.36,2.27-1.54,2.33    c-0.17,0.06,1.93,1.93,1.19,2.38c-0.73,0.46-0.86,0.73-1.14,0.51c-0.28-0.22-0.92-1.08-1.3-1.08c-0.4,0-2.16,0.29-2.16,0.29    s-1.69,1.45-1.71,1.14c-0.06-1.71-0.97-1.08-1.41-0.97c-0.46,0.11,0.11-0.51,0.28-1.03c0.17-0.51-0.79-0.68-0.73-1.14    c0.06-0.46,0.46-1.52,1.76-1.3c1.3,0.24,2.49,1.08,2.73,0.24c0.22-0.86,0.22-0.86,0.22-0.86s-2.66-1.25-4.47-3.36    c-1.82-2.11-1.71-3.41-2.49-3.52c-0.79-0.11-2.49-0.22-3.58,0.4c-1.08,0.62-2.44,1.87-2.44,1.87s1.47-2.49,1.25-4.44    c-0.22-1.93,0.68-5.1,2.95-4.77c2.27,0.35,4.49,2.11,4.88,1.03c0.39-1.08-0.29-6.02,1.98-6.25    C84.58,117.59,86.34,117.54,86.34,117.54L86.34,117.54z"></path>
		<path class="st2" d="M74.86,125.98c0,0.29-0.24,0.53-0.53,0.53c-0.29,0-0.53-0.24-0.53-0.53s0.24-0.53,0.53-0.53    C74.62,125.44,74.86,125.68,74.86,125.98L74.86,125.98z"></path>
		<path d="M68.9,135.26c-0.07,0-0.15-0.02-0.22-0.04c-0.24-0.09-0.4-0.33-0.4-0.59v-2.9c0-0.15,0.06-0.31,0.17-0.42l1.76-1.98    c0.17-0.2,0.44-0.28,0.68-0.17c0.24,0.09,0.4,0.31,0.42,0.57l0.11,2.68c0,0.17-0.04,0.31-0.15,0.42l-1.87,2.22    C69.27,135.18,69.09,135.26,68.9,135.26z"></path>
		<polygon points="68.9,137.68 67.66,137.51 67.84,136.25 69.07,136.43   "></polygon>
	</g>
	<g>
		<path d="M196.05,83.7c-1.72-7.45-7.02-11.88-15.22-11.88c-21.93,0-25.6,29.16-25.6,36.4c0,11.24,4.86,18.05,15.99,18.05    c6.8,0,12.21-3.58,18.25-9.3l4.22,2.81c-6.91,8.75-14.91,14.58-23.99,14.58c-15.22,0-25.27-9.94-25.27-25.91    c0-16.21,9.5-43.96,37.6-43.96c7.56,0,14.91,3.67,18.25,7.45c0,3.03,0.22,8.11,0.44,11.77C200.71,83.7,196.05,83.7,196.05,83.7z"></path>
		<path d="M217.97,90.4l-5.94,27.77c-0.44,2.16-0.97,4.22-0.97,5.94c0,1.5,0.86,2.38,2.92,2.38c2.27,0,5.19-0.53,6.8-0.86    l-0.75,4.75l-10.05,2.81c-1.52,0.44-3.25,0.86-4.33,0.86c-2.48,0-4.64-1.52-4.64-5.28c0-3.14,0.33-4.55,1.19-8.53l8.64-38.77    c1.19-5.08,2.16-9.3,2.16-12.31c0-2.38-0.53-2.48-2.92-2.81l-2.92-0.44l0.53-4.33h18.47C223.47,68.57,220.24,79.92,217.97,90.4z"></path>
		<path d="M258.46,110.28c-6.16,2.27-12.21,2.81-20.1,2.81c-0.11,0.64-0.22,1.52-0.22,2.37c0,7.78,3.56,11.66,8.97,11.66    c5.83,0,10.47-2.92,13.61-6.47l3.89,3.14c-5.61,6.91-11.44,10.58-19.33,10.58c-7.24,0-16.96-4.97-16.96-19.02    c0-12.42,9.08-30.77,26.24-30.77c2.48,0,14.14,0.22,14.14,13.72C268.73,103.67,264.29,108.22,258.46,110.28z M253.18,91.04    c-6.05,0-11.99,6.69-13.94,15.99c6.27,0,11.33-0.86,14.36-1.83c4.44-1.41,6.05-4.53,6.05-6.69    C259.65,96.45,259.43,91.04,253.18,91.04z"></path>
		<path d="M352,130.36l-9.94,2.81c-1.52,0.44-3.36,0.86-4.33,0.86c-2.49,0-4.86-1.52-4.86-5.19c0-2.81,0.33-4.33,1.41-8.53    l2.7-11.02c0.97-3.89,1.72-8.75,1.72-11.44c0-5.3-1.61-5.83-4.64-5.83c-4,0-10.47,7.02-15.13,15.24l-5.3,25.71h-10.05    c0.75-2.27,2.27-8.42,2.7-10.58l2.7-12.97c0.75-3.58,2.05-8.64,2.05-11.02c0-5.5-1.5-6.38-4.53-6.38    c-4.75,0-10.05,6.8-15.13,15.13l-5.72,25.82h-9.94c0.75-2.27,1.94-6.47,2.81-10.58l3.89-18.25c0.75-3.36,1.19-7.13,1.19-8.97    c0-2.16-0.86-3.78-4-4.22l-3.67-0.55l0.44-4.75h16.74c0,2.7-0.33,8-0.97,11.55c5.3-7.35,10.16-12.64,17.61-12.64    c9.28,0,10.16,6.38,10.36,11.88c7.45-9.83,12.31-11.88,17.07-11.88c5.72,0,10.8,2.27,10.8,12.53c0,2.48-0.64,7.02-1.39,10.05    L344,118.16c-0.97,4-1.08,4.53-1.08,5.83c0,1.52,0.86,2.49,2.92,2.49c1.72,0,5.08-0.44,6.91-0.86L352,130.36z"></path>
		<path d="M387.96,110.28c-6.16,2.27-12.21,2.81-20.1,2.81c-0.11,0.64-0.22,1.52-0.22,2.37c0,7.78,3.56,11.66,8.97,11.66    c5.83,0,10.47-2.92,13.61-6.47l3.89,3.14c-5.61,6.91-11.44,10.58-19.33,10.58c-7.24,0-16.96-4.97-16.96-19.02    c0-12.42,9.08-30.77,26.24-30.77c2.49,0,14.16,0.22,14.16,13.72C398.23,103.67,393.79,108.22,387.96,110.28z M382.66,91.04    c-6.05,0-11.99,6.69-13.94,15.99c6.27,0,11.35-0.86,14.36-1.83c4.42-1.41,6.05-4.53,6.05-6.69    C389.15,96.45,388.93,91.04,382.66,91.04z"></path>
		<path d="M454.39,130.36l-10.16,2.81c-1.52,0.44-3.36,0.86-4.22,0.86c-2.59,0-4.97-1.52-4.97-5.19c0-3.25,0.42-4.64,1.3-8.53    l2.81-12.09c1.19-4.75,1.61-8.22,1.61-11.33c0-4.42-1.72-4.86-4.53-4.86c-4.22,0-9.08,5.3-15.22,15.02l-5.61,25.93h-10.16    c0.75-2.48,2.7-9.94,3.56-14.05l3.14-14.91c0.75-3.36,1.19-7.02,1.19-8.97c0-2.05-0.86-3.67-4-4.11l-3.67-0.55l0.44-4.75h16.85    c0,3.25-0.53,8.53-1.08,11.77c5.28-7.67,10.58-12.86,16.85-12.86c7.13,0,11.55,2.92,11.55,11.88c0,2.48-0.75,7.56-1.41,10.58    l-2.49,11.13c-0.42,2.16-0.97,4.22-0.97,5.83c0,1.52,0.86,2.49,2.92,2.49c1.83,0,5.3-0.44,6.8-0.86L454.39,130.36z"></path>
		<path d="M489.38,98.28c-0.86-3.47-3.25-6.91-8-6.91c-4.86,0-8.33,1.94-8.33,7.02c0,2.16,1.08,4,3.78,5.61l6.25,3.78    c4.75,2.81,7.24,6.36,7.24,11.66c0,4.44-3.67,14.91-19.44,14.91c-3.78,0-8.75-1.08-11.66-3.25c0-2.81-0.11-7.45-0.44-10.58h4.86    c0.64,3.78,3.67,7.02,8.33,7.02c4.33,0,8.75-0.97,8.75-7.13c0-3.14-0.97-4.64-5.19-7.13l-5.08-3.03    c-4.33-2.6-7.02-5.61-7.02-10.69c0-6.38,5.41-15.02,19.22-15.02c3.78,0,8.97,2.05,11.02,3.78c0,2.6,0,7.35,0.33,9.94h-4.62V98.28z    "></path>
		<path d="M547.15,130.36l-9.94,2.81c-1.61,0.44-3.45,0.86-4.33,0.86c-2.7,0-4.86-1.52-4.86-5.19c0-3.25,0.33-4.64,1.17-8.53    l2.92-12.2c0.86-3.67,1.61-8.11,1.61-11.24c0-4.42-1.83-4.86-4.64-4.86c-4.22,0-9.5,6.16-15.11,15.02    c-0.86,4-4.64,20.74-5.61,25.93h-10.05c0.64-2.05,2.05-7.02,2.81-10.58l4.75-21.71c4.2-18.8,6.03-27.11,6.03-31.54    c0-1.52-0.86-2.7-2.7-2.81l-3.45-0.33l0.44-4.44h18.25c-0.75,1.94-2.38,8-3.58,13.19l-2.48,10.91c-0.53,2.37-1.3,6.36-2.27,9.94    c4.64-6.05,9.08-11.02,15.33-11.02c7.13,0,11.44,2.92,11.44,11.88c0,2.48-0.53,7.56-1.19,10.58l-2.7,11.24    c-0.53,2.05-0.86,4.22-0.86,5.83c0,1.5,0.86,2.38,2.81,2.38c2.26,0,5.61-0.53,6.8-0.75L547.15,130.36z"></path>
		<path d="M570.26,134.47c-13.83,0-17.72-11.02-17.72-18.69c0-14.36,10.58-31.21,24.94-31.21c13.08,0,18.05,9.72,18.05,18.47    C595.53,118.7,585.61,134.47,570.26,134.47z M576.95,91.37c-11.66,0-14.58,19.55-14.58,24.19c0,10.91,6.8,11.99,9.39,11.99    c9.39,0,13.94-13.61,13.94-24.41C585.7,92.34,579.76,91.37,576.95,91.37z"></path>
		<path d="M632.04,98.28c-0.86-3.47-3.25-6.91-8-6.91c-4.86,0-8.33,1.94-8.33,7.02c0,2.16,1.08,4,3.78,5.61l6.25,3.78    c4.75,2.81,7.24,6.36,7.24,11.66c0,4.44-3.67,14.91-19.44,14.91c-3.78,0-8.75-1.08-11.66-3.25c0-2.81-0.11-7.45-0.42-10.58h4.86    c0.64,3.78,3.67,7.02,8.33,7.02c4.33,0,8.75-0.97,8.75-7.13c0-3.14-0.97-4.64-5.19-7.13l-5.08-3.03    c-4.33-2.6-7.02-5.61-7.02-10.69c0-6.38,5.41-15.02,19.22-15.02c3.78,0,8.97,2.05,11.02,3.78c0,2.6,0,7.35,0.33,9.94h-4.64V98.28z    "></path>
		<path d="M663.24,134.36c-4.86,0-8.33-1.72-10.16-3.14l-1.52,7.89c-0.22,1.3-0.64,3.89-0.64,5.3c0,1.3,0.53,2.59,2.26,2.7    l3.89,0.22l-1.08,4.86h-17.39c1.83-6.69,3.67-14.8,5.08-21.27l6.27-29.05c0.75-3.36,0.86-5.61,0.86-7.45c0-1.72-0.86-3.03-4-3.45    l-3.67-0.55l0.42-4.75h16.85c0,2.7-0.11,6.05-0.75,9.5c3.25-5.08,9.72-10.58,15.33-10.58c8.64,0,14.36,5.08,14.36,17.61    C689.39,117.08,679.01,134.36,663.24,134.36z M672.65,91.9c-4.44,0-9.72,5.83-13.61,11.77l-4.2,19.33    c1.72,2.27,4.64,4.97,9.28,4.97c8.53,0,15.22-12.97,15.22-24.63C679.34,93.31,675.88,91.9,672.65,91.9z"></path>
		<path d="M714.65,101.09l-3.67,16.85c-0.44,2.16-0.97,4.42-0.97,6.16c0,1.5,0.86,2.38,2.92,2.38s5.28-0.44,6.91-0.86l-0.86,4.86    l-9.72,2.7c-1.52,0.44-3.45,0.86-4.33,0.86c-2.59,0-4.86-1.52-4.86-5.28c0-3.14,0.44-4.55,1.3-8.53l4.33-19.99    c0.53-2.38,0.97-4.44,0.97-6.38c0-2.05-0.86-2.7-4.64-3.14l-3.25-0.42l0.33-4.64h21.07C718.11,89.53,716.37,92.98,714.65,101.09z     M717.45,74.84c-3.67,0-6.47-3.03-6.47-6.58c0-3.67,2.92-6.69,6.58-6.69s6.58,3.03,6.58,6.58    C724.17,71.82,721.14,74.84,717.45,74.84z"></path>
		<path d="M758.61,92.78c-2.7-0.75-8.86-0.97-12.64-0.97l-3.58,17.39c-0.97,4.86-2.26,8.64-2.26,11.77c0,3.67,0.86,5.08,3.78,5.08    c1.94,0,6.38-1.3,9.61-2.38l1.08,3.89l-6.69,4.22c-2.26,1.5-4.86,2.16-7.12,2.16c-6.8,0-10.58-4-10.58-10.69    c0-2.59,1.19-7.78,2.27-12.1l5.08-19.22h-9.19l0.64-3.89c8.64-2.48,12.64-6.58,17.28-14.8h5.08c-1.3,4.22-2.7,8.31-3.78,12.53    h12.75C759.8,87.48,759.05,90.62,758.61,92.78z"></path>
		<path d="M807.21,130.36l-7.02,2.27c-2.16,0.75-3.78,1.3-5.39,1.3c-2.7,0-5.41-2.05-5.41-5.19c0-1.41,0-4,0.22-5.19    c-4.75,6.25-9.39,10.91-15.33,10.91c-2.38,0-13.72-0.22-13.72-17.06c0-12.1,9.83-32.85,28.08-32.85c5.83,0,12.21,2.27,16.3,4.75    l-5.83,26.9c-0.44,2.05-0.86,5.39-0.86,7.56c0,1.94,0.77,2.7,3.03,2.7c1.3,0,3.89-0.33,6.69-0.86L807.21,130.36z M787.22,91.48    c-8.33,0-16.85,11.33-16.85,25.16c0,8.86,3.14,10.27,5.61,10.27c4.33,0,10.36-6.16,14.03-12.21l4.64-21.27    C792.3,92.01,789.82,91.48,787.22,91.48z"></path>
		<path d="M830.32,90.4l-5.94,27.77c-0.44,2.16-0.97,4.22-0.97,5.94c0,1.5,0.86,2.38,2.92,2.38c2.27,0,5.19-0.53,6.8-0.86    l-0.75,4.75l-10.05,2.81c-1.52,0.44-3.25,0.86-4.33,0.86c-2.49,0-4.64-1.52-4.64-5.28c0-3.14,0.33-4.55,1.19-8.53l8.64-38.77    c1.19-5.08,2.16-9.3,2.16-12.31c0-2.38-0.53-2.48-2.92-2.81l-2.92-0.44l0.53-4.33h18.47C835.82,68.57,832.59,79.92,830.32,90.4z"></path>
	</g>
	<g>
		<path class="st6" d="M149.74,167.57h10.95l-0.35,1.91h-8.82l-1.63,7.92h8.31l-0.35,1.91h-8.34l-1.78,8.56h9.13l-0.31,1.91h-11.39    L149.74,167.57z"></path>
		<path class="st6" d="M164.23,173.55h2.11l-3.43,16.23h-2.11L164.23,173.55z M167.39,169.22H165l0.57-2.68h2.38L167.39,169.22z"></path>
		<path class="st6" d="M170.67,176.12c0.18-1.08,0.31-1.78,0.39-2.59h2c-0.09,1.03-0.18,1.87-0.35,2.44h0.07    c1.12-1.72,3.15-2.82,5.15-2.82c2.93,0,5.1,1.65,5.1,4.71c0,1.12-0.26,2.33-0.48,3.34l-1.82,8.56h-2.11l1.85-8.95    c0.22-1.05,0.35-1.74,0.35-2.82c0-1.91-1.08-3.12-3.12-3.12c-3.5,0-5.37,3.47-6.14,7.19l-1.6,7.7h-2.09L170.67,176.12z"></path>
		<path class="st6" d="M188.02,182.22c-0.07,0.42-0.09,0.86-0.09,1.3c0,3.12,2.07,4.9,4.93,4.9c2,0,3.47-0.53,4.73-1.08l-0.17,1.94    c-0.95,0.35-2.2,0.86-4.84,0.86c-3.78,0-6.68-2.26-6.68-6.62c0-5.45,3.19-10.38,8.4-10.38c3.81,0,5.72,2.35,5.72,6.05    c0,0.99-0.13,2-0.22,3.03C199.81,182.22,188.02,182.22,188.02,182.22z M197.94,180.52c0.04-0.44,0.09-0.86,0.09-1.25    c0-2.64-1.12-4.38-3.72-4.38c-3.12,0-5.41,2.68-5.94,5.63H197.94z"></path>
		<path class="st6" d="M215.2,167.57h10.95l-0.35,1.91h-8.82l-1.63,7.92h8.31l-0.35,1.91h-8.33l-1.78,8.56h9.13l-0.31,1.91h-11.39    L215.2,167.57z"></path>
		<path class="st6" d="M229.69,173.55h2.09l-3.43,16.23h-2.11L229.69,173.55z M232.82,169.22h-2.38l0.57-2.68h2.38L232.82,169.22z"></path>
		<path class="st6" d="M236.11,176.12c0.18-1.08,0.31-1.78,0.39-2.59h2c-0.09,1.03-0.18,1.87-0.35,2.44h0.06    c1.12-1.72,3.15-2.82,5.15-2.82c2.93,0,5.1,1.65,5.1,4.71c0,1.12-0.26,2.33-0.48,3.34l-1.82,8.56h-2.09l1.85-8.95    c0.22-1.05,0.35-1.74,0.35-2.82c0-1.91-1.08-3.12-3.12-3.12c-3.5,0-5.37,3.47-6.14,7.19l-1.6,7.7h-2.11L236.11,176.12z"></path>
		<path class="st6" d="M253.75,176.45c0.18-0.92,0.35-1.87,0.44-2.9h2c-0.09,1.03-0.18,1.87-0.35,2.44h0.07    c1.03-1.6,2.42-2.82,4.51-2.82c0.66,0,1.21,0.13,1.74,0.22l-0.48,2.13c-0.53-0.22-1.14-0.26-1.72-0.26    c-3.28,0-4.58,3.59-5.19,6.53l-1.65,8H251L253.75,176.45z"></path>
		<path class="st6" d="M265.05,173.55h2.09l-3.43,16.23h-2.11L265.05,173.55z M268.2,169.22h-2.38l0.57-2.68h2.38L268.2,169.22z"></path>
		<path class="st6" d="M282.07,175.62c-0.61-0.31-2.48-0.73-3.76-0.73c-4.62,0-7.1,3.37-7.1,7.7c0,3.34,2.22,5.85,5.25,5.85    c1.21,0,2.42-0.4,3.43-0.77l-0.26,2c-0.77,0.26-2.04,0.48-3.69,0.48c-4.68,0-6.93-3.91-6.93-7.41c0-5.72,3.25-9.57,9.52-9.57    c1.34,0,3.28,0.31,4.11,0.64L282.07,175.62z"></path>
		<path class="st6" d="M287.93,165.9h2.09l-2.42,10.27h0.07c1.14-1.91,2.6-2.86,5.19-3.03c2.93,0,5.1,1.65,5.1,4.71    c0,1.12-0.22,2.26-0.48,3.34l-1.82,8.56h-2.09l1.85-8.95c0.22-1.05,0.35-1.74,0.35-2.82c0-1.91-1.08-3.12-3.12-3.12    c-3.5,0-5.25,3.5-5.98,6.93l-1.74,7.96h-2.09L287.93,165.9z"></path>
		<path class="st6" d="M305.94,169.92l2.29-0.79l-0.99,4.42h4.24l-0.42,1.72h-4.16l-1.72,8.01c-0.22,1.08-0.48,2.13-0.48,3.17    c0,1.27,0.66,1.98,1.85,1.98c0.61,0,1.14-0.13,1.72-0.44l-0.18,1.72c-0.61,0.29-1.21,0.44-2.04,0.44c-2.26,0-3.54-1.27-3.54-3.03    c0-1.39,0.57-3.98,0.73-4.68l1.56-7.19h-3.25l0.44-1.72h3.19L305.94,169.92z"></path>
		<path class="st6" d="M324.38,187.19c-0.2,1.08-0.31,1.78-0.39,2.59h-2c0.09-1.03,0.2-1.87,0.35-2.44h-0.06    c-1.12,1.72-3.15,2.82-5.15,2.82c-2.93,0-5.1-1.65-5.1-4.71c0-1.12,0.26-2.33,0.48-3.34l1.82-8.56h2.09l-1.85,8.95    c-0.22,1.05-0.35,1.76-0.35,2.82c0,1.91,1.08,3.12,3.12,3.12c3.5,0,5.37-3.47,6.14-7.19l1.6-7.7h2.09L324.38,187.19z"></path>
		<path class="st6" d="M331.6,176.12c0.2-1.08,0.31-1.78,0.39-2.59h2c-0.09,1.03-0.18,1.87-0.35,2.44h0.07    c1.12-1.72,3.15-2.82,5.15-2.82c2.93,0,5.1,1.65,5.1,4.71c0,1.12-0.26,2.33-0.48,3.34l-1.82,8.56h-2.11l1.85-8.95    c0.22-1.05,0.35-1.74,0.35-2.82c0-1.91-1.08-3.12-3.12-3.12c-3.5,0-5.37,3.47-6.14,7.19l-1.6,7.7h-2.09L331.6,176.12z"></path>
		<path class="st6" d="M345.94,193.52c1.6,1.05,3.21,1.39,4.97,1.39c4.64,0,5.89-2.29,6.84-6.33l0.26-1.17h-0.07    c-1.43,1.6-3.28,2.35-5.45,2.35c-3.85,0-5.8-3.12-5.8-6.62c0-5.14,2.86-10,8.27-10c2.55,0,4.73,1.05,5.25,3.69h0.06    c0.2-1.08,0.44-2.2,0.77-3.3h2c-0.17,0.66-0.44,1.91-0.77,3.3L359.85,188c-1.21,5.63-2.38,8.62-8.97,8.62    c-1.87,0-3.56-0.22-5.5-1.08L345.94,193.52z M353.22,188.06c4.03,0,6.11-4.29,6.11-8.01c0-2.9-1.43-5.15-4.38-5.15    c-3.94,0-6.05,4.71-6.05,8.27C348.9,185.86,350.24,188.06,353.22,188.06z"></path>
		<path class="st6" d="M386.62,186.59c-0.29,1.3-0.48,2.42-0.53,3.19h-2.07c0.09-0.9,0.28-1.94,0.51-2.59h-0.07    c-1.17,1.76-2.81,2.95-5.54,2.95c-3.91,0-5.5-3.28-5.5-6.93c0-4.51,2.97-10.05,8.12-10.05c2.35,0,4.36,1.16,4.97,3.37h0.06    l2.22-10.62h2.09L386.62,186.59z M379.58,188.44c3.63,0,6.24-4.81,6.24-8.4c0-2.9-1.34-5.15-4.14-5.15    c-4.16,0-6.07,4.97-6.07,8.71C375.6,186.3,376.77,188.44,379.58,188.44z"></path>
		<path class="st6" d="M393.21,182.22c-0.07,0.42-0.09,0.86-0.09,1.3c0,3.12,2.07,4.9,4.93,4.9c2,0,3.47-0.53,4.75-1.08l-0.17,1.94    c-0.95,0.35-2.2,0.86-4.84,0.86c-3.78,0-6.68-2.26-6.68-6.62c0-5.45,3.19-10.38,8.4-10.38c3.81,0,5.72,2.35,5.72,6.05    c0,0.99-0.13,2-0.22,3.03C405.02,182.22,393.21,182.22,393.21,182.22z M403.15,180.52c0.04-0.44,0.09-0.86,0.09-1.25    c0-2.64-1.12-4.38-3.72-4.38c-3.12,0-5.41,2.68-5.94,5.63H403.15z"></path>
		<path class="st6" d="M409.42,176.45c0.2-0.92,0.35-1.87,0.44-2.9h2c-0.09,1.03-0.18,1.87-0.35,2.44h0.07    c1.01-1.6,2.42-2.82,4.51-2.82c0.68,0,1.21,0.13,1.74,0.22l-0.48,2.13c-0.53-0.22-1.14-0.26-1.72-0.26    c-3.28,0-4.58,3.59-5.19,6.53l-1.65,8h-2.13L409.42,176.45z"></path>
		<path class="st6" d="M437.68,167.57h2.6l4.33,22.21h-2.22l-1.12-5.96H429.9l-3.65,5.96h-2.35L437.68,167.57z M438.6,169.75    l-7.5,12.16h9.83L438.6,169.75z"></path>
		<path class="st6" d="M452.44,165.9h2.11l-5.1,23.86h-2.11L452.44,165.9z"></path>
		<path class="st6" d="M456.88,182.22c-0.07,0.42-0.09,0.86-0.09,1.3c0,3.12,2.07,4.9,4.93,4.9c2,0,3.47-0.53,4.73-1.08l-0.17,1.94    c-0.95,0.35-2.2,0.86-4.84,0.86c-3.8,0-6.68-2.26-6.68-6.62c0-5.45,3.19-10.38,8.4-10.38c3.81,0,5.72,2.35,5.72,6.05    c0,0.99-0.13,2-0.22,3.03C468.67,182.22,456.88,182.22,456.88,182.22z M466.8,180.52c0.04-0.44,0.09-0.86,0.09-1.25    c0-2.64-1.12-4.38-3.72-4.38c-3.12,0-5.41,2.68-5.94,5.63H466.8z"></path>
		<path class="st6" d="M475.59,181.22l-3.67-7.67h2.2l2.82,6.05l5.15-6.05h2.55l-6.75,7.67l3.85,8.56h-2.29l-2.97-6.88l-5.92,6.88    h-2.46L475.59,181.22z"></path>
		<path class="st6" d="M487.91,173.55H490l-3.43,16.23h-2.09L487.91,173.55z M491.07,169.22h-2.38l0.57-2.68h2.38L491.07,169.22z"></path>
		<path class="st6" d="M503.67,185.93c-0.31,1.25-0.53,2.73-0.61,3.85h-2c0.09-0.86,0.17-1.69,0.31-2.38h-0.07    c-1.38,2.04-3.15,2.77-5.54,2.77c-2.51,0-4.64-1.87-4.64-4.55c0-4.73,5.34-5.72,9.32-5.72c0.83,0,1.56,0.07,2.2,0.13    c0.07-0.48,0.09-0.95,0.09-1.61c0-2.22-1.25-3.5-3.47-3.5c-1.87,0-3.72,0.86-4.8,1.39l0.22-2.04c1.14-0.48,2.99-1.08,4.9-1.08    c3.5,0,5.34,1.91,5.34,5.28c0,0.64-0.13,1.82-0.4,3.08L503.67,185.93z M496.48,188.44c3.76,0,5.47-3.37,5.92-6.77    c-0.68,0-1.3-0.07-1.96-0.07c-2.71,0-7.1,0.42-7.1,3.98C493.32,187.41,494.84,188.44,496.48,188.44z"></path>
		<path class="st6" d="M510.25,176.12c0.2-1.08,0.31-1.78,0.39-2.59h2.02c-0.09,1.03-0.2,1.87-0.35,2.44h0.07    c1.12-1.72,3.15-2.82,5.15-2.82c2.93,0,5.1,1.65,5.1,4.71c0,1.12-0.26,2.33-0.48,3.34l-1.82,8.56h-2.11l1.83-8.95    c0.22-1.05,0.35-1.74,0.35-2.82c0-1.91-1.08-3.12-3.12-3.12c-3.5,0-5.37,3.47-6.14,7.19l-1.6,7.7h-2.11L510.25,176.12z"></path>
		<path class="st6" d="M527.6,182.22c-0.07,0.42-0.09,0.86-0.09,1.3c0,3.12,2.07,4.9,4.93,4.9c2,0,3.47-0.53,4.73-1.08l-0.17,1.94    c-0.95,0.35-2.2,0.86-4.82,0.86c-3.8,0-6.69-2.26-6.69-6.62c0-5.45,3.19-10.38,8.4-10.38c3.81,0,5.72,2.35,5.72,6.05    c0,0.99-0.13,2-0.22,3.03C539.39,182.22,527.6,182.22,527.6,182.22z M537.54,180.52c0.04-0.44,0.09-0.86,0.09-1.25    c0-2.64-1.12-4.38-3.72-4.38c-3.12,0-5.41,2.68-5.94,5.63H537.54z"></path>
		<path class="st6" d="M543.81,176.45c0.18-0.92,0.35-1.87,0.44-2.9h2c-0.09,1.03-0.18,1.87-0.35,2.44h0.07    c1.01-1.6,2.42-2.82,4.51-2.82c0.68,0,1.21,0.13,1.76,0.22l-0.48,2.13c-0.53-0.22-1.14-0.26-1.71-0.26    c-3.28,0-4.58,3.59-5.19,6.53l-1.65,8h-2.13L543.81,176.45z"></path>
		<path class="st6" d="M158.14,223.78c-0.18,1.08-0.31,1.78-0.39,2.59h-2c0.09-1.03,0.18-1.87,0.35-2.46h-0.06    c-1.12,1.72-3.15,2.82-5.15,2.82c-2.93,0-5.1-1.65-5.1-4.71c0-1.12,0.26-2.33,0.48-3.34l1.82-8.56h2.09l-1.85,8.95    c-0.22,1.05-0.35,1.74-0.35,2.82c0,1.91,1.08,3.12,3.12,3.12c3.5,0,5.37-3.47,6.14-7.19l1.6-7.7h2.11L158.14,223.78z"></path>
		<path class="st6" d="M165.37,212.72c0.18-1.08,0.31-1.78,0.39-2.59h2c-0.09,1.03-0.18,1.87-0.35,2.46h0.06    c1.12-1.72,3.15-2.82,5.15-2.82c2.93,0,5.1,1.65,5.1,4.71c0,1.12-0.26,2.33-0.48,3.34l-1.82,8.56h-2.09l1.85-8.95    c0.22-1.05,0.35-1.76,0.35-2.82c0-1.91-1.08-3.12-3.12-3.12c-3.5,0-5.37,3.47-6.14,7.19l-1.6,7.7h-2.11L165.37,212.72z"></path>
		<path class="st6" d="M193.83,223.18c-0.29,1.3-0.48,2.42-0.55,3.19h-2.07c0.09-0.9,0.29-1.94,0.51-2.59h-0.06    c-1.17,1.74-2.81,2.95-5.54,2.95c-3.91,0-5.5-3.28-5.5-6.93c0-4.51,2.95-10.05,8.11-10.05c2.35,0,4.36,1.14,4.97,3.37h0.06    l2.22-10.64h2.11L193.83,223.18z M186.81,225.03c3.63,0,6.24-4.81,6.24-8.4c0-2.9-1.34-5.15-4.14-5.15    c-4.16,0-6.07,4.97-6.07,8.71C182.83,222.9,184,225.03,186.81,225.03z"></path>
		<path class="st6" d="M220.39,223.18c-0.29,1.3-0.48,2.42-0.53,3.19h-2.07c0.09-0.9,0.29-1.94,0.51-2.59h-0.06    c-1.17,1.74-2.81,2.95-5.54,2.95c-3.91,0-5.5-3.28-5.5-6.93c0-4.51,2.95-10.05,8.11-10.05c2.35,0,4.36,1.14,4.97,3.37h0.06    l2.22-10.64h2.11L220.39,223.18z M213.35,225.03c3.63,0,6.24-4.81,6.24-8.4c0-2.9-1.34-5.15-4.14-5.15    c-4.16,0-6.07,4.97-6.07,8.71C209.37,222.9,210.54,225.03,213.35,225.03z"></path>
		<path class="st6" d="M226.97,218.83c-0.07,0.42-0.09,0.86-0.09,1.3c0,3.12,2.07,4.9,4.93,4.9c2,0,3.47-0.53,4.73-1.08l-0.17,1.94    c-0.95,0.35-2.2,0.86-4.84,0.86c-3.78,0-6.68-2.26-6.68-6.62c0-5.45,3.19-10.38,8.4-10.38c3.81,0,5.72,2.35,5.72,6.05    c0,0.99-0.13,2-0.22,3.03H226.97z M236.91,217.11c0.04-0.44,0.09-0.86,0.09-1.25c0-2.64-1.12-4.4-3.72-4.4    c-3.12,0-5.41,2.68-5.94,5.63h9.57V217.11z"></path>
		<path class="st6" d="M243.19,213.04c0.18-0.92,0.35-1.87,0.44-2.9h2c-0.09,1.03-0.18,1.87-0.35,2.46h0.07    c1.01-1.6,2.42-2.82,4.51-2.82c0.68,0,1.21,0.13,1.76,0.22l-0.48,2.13c-0.55-0.22-1.14-0.26-1.72-0.26    c-3.28,0-4.58,3.59-5.19,6.53l-1.65,8h-2.13L243.19,213.04z"></path>
		<path class="st6" d="M279.77,206.76c-1.61-0.86-3.43-1.08-5.34-1.08c-6.46,0-10.89,4.93-10.89,11.35c0,4.33,3.41,7.79,8.09,7.79    c2.77,0,3.47-0.39,4.73-0.73l-0.26,1.94c-0.88,0.26-1.96,0.7-4.33,0.7c-5.7,0-10.44-3.72-10.44-9.74c0-7.76,5.54-13.24,13.2-13.24    c2.38,0,4.14,0.29,5.98,1.14L279.77,206.76z"></path>
		<path class="st6" d="M284.43,202.51h2.11l-5.1,23.86h-2.09L284.43,202.51z"></path>
		<path class="st6" d="M288.85,218.83c-0.07,0.42-0.09,0.86-0.09,1.3c0,3.12,2.07,4.9,4.93,4.9c2,0,3.47-0.53,4.73-1.08l-0.17,1.94    c-0.95,0.35-2.2,0.86-4.84,0.86c-3.8,0-6.68-2.26-6.68-6.62c0-5.45,3.19-10.38,8.4-10.38c3.81,0,5.72,2.35,5.72,6.05    c0,0.99-0.13,2-0.22,3.03H288.85z M298.79,217.11c0.04-0.44,0.09-0.86,0.09-1.25c0-2.64-1.12-4.4-3.72-4.4    c-3.12,0-5.41,2.68-5.94,5.63h9.57V217.11z"></path>
		<path class="st6" d="M305.1,212.87c0.18-0.79,0.35-1.87,0.4-2.73h2c-0.09,1.03-0.22,1.87-0.35,2.46h0.06    c1.52-2.04,2.81-2.82,5.03-2.82c2.29,0,3.98,1.27,4.07,3.63h0.06c1.05-2.26,2.93-3.63,5.5-3.63c2.81,0,4.58,1.82,4.58,4.77    c0,0.64-0.22,1.87-0.48,3.06l-1.85,8.78h-2.11l1.82-8.6c0.22-0.99,0.42-1.94,0.42-3.15c0-1.78-0.77-3.15-2.71-3.15    c-3.3,0-4.99,3.72-5.59,6.66l-1.69,8.25h-2.11l1.82-8.6c0.22-0.99,0.42-1.94,0.42-3.15c0-1.78-0.77-3.15-2.7-3.15    c-3.3,0-4.99,3.72-5.59,6.66l-1.69,8.25h-2.09L305.1,212.87z"></path>
		<path class="st6" d="M331.29,218.83c-0.07,0.42-0.09,0.86-0.09,1.3c0,3.12,2.07,4.9,4.93,4.9c2,0,3.47-0.53,4.75-1.08l-0.17,1.94    c-0.95,0.35-2.2,0.86-4.84,0.86c-3.78,0-6.68-2.26-6.68-6.62c0-5.45,3.19-10.38,8.4-10.38c3.81,0,5.72,2.35,5.72,6.05    c0,0.99-0.13,2-0.22,3.03H331.29z M341.21,217.11c0.04-0.44,0.09-0.86,0.09-1.25c0-2.64-1.12-4.4-3.72-4.4    c-3.12,0-5.41,2.68-5.94,5.63h9.57V217.11z"></path>
		<path class="st6" d="M347.56,212.72c0.18-1.08,0.31-1.78,0.39-2.59h2c-0.09,1.03-0.18,1.87-0.35,2.46h0.06    c1.12-1.72,3.15-2.82,5.15-2.82c2.93,0,5.1,1.65,5.1,4.71c0,1.12-0.26,2.33-0.48,3.34l-1.82,8.56h-2.09l1.85-8.95    c0.22-1.05,0.35-1.76,0.35-2.82c0-1.91-1.08-3.12-3.12-3.12c-3.5,0-5.37,3.47-6.14,7.19l-1.6,7.7h-2.11L347.56,212.72z"></path>
		<path class="st6" d="M361.73,223.86c1.14,0.7,2.48,1.17,3.85,1.17c1.94,0,4.58-0.73,4.58-3.25c0-3.54-6.4-3.37-6.4-7.5    c0-3.21,3.41-4.51,6.02-4.51c1.47,0,2.82,0.26,4.16,0.79l-0.66,1.87c-1.05-0.61-2.38-0.95-3.59-0.95c-1.6,0-3.81,0.51-3.81,2.77    c0,2.77,6.49,3.12,6.49,7.41c0,3.69-3.37,5.1-6.53,5.1c-1.69,0-3.15-0.26-4.71-0.9L361.73,223.86z"></path>
		<path class="st6" d="M374.11,223.86c1.14,0.7,2.48,1.17,3.85,1.17c1.94,0,4.58-0.73,4.58-3.25c0-3.54-6.4-3.37-6.4-7.5    c0-3.21,3.41-4.51,6.02-4.51c1.47,0,2.82,0.26,4.16,0.79l-0.68,1.87c-1.05-0.61-2.38-0.95-3.59-0.95c-1.6,0-3.81,0.51-3.81,2.77    c0,2.77,6.49,3.12,6.49,7.41c0,3.69-3.37,5.1-6.53,5.1c-1.69,0-3.15-0.26-4.71-0.9L374.11,223.86z"></path>
		<path class="st6" d="M400.61,212.21c-0.61-0.31-2.48-0.73-3.76-0.73c-4.62,0-7.1,3.37-7.1,7.7c0,3.34,2.22,5.85,5.25,5.85    c1.21,0,2.42-0.42,3.43-0.77l-0.26,2c-0.77,0.26-2.04,0.48-3.69,0.48c-4.68,0-6.93-3.91-6.93-7.41c0-5.72,3.25-9.57,9.52-9.57    c1.34,0,3.28,0.31,4.11,0.64L400.61,212.21z"></path>
		<path class="st6" d="M406.48,202.51h2.09l-2.42,10.27h0.07c1.14-1.91,2.6-2.86,5.19-3.03c2.93,0,5.1,1.65,5.1,4.71    c0,1.12-0.22,2.26-0.48,3.34l-1.82,8.56h-2.09l1.85-8.95c0.22-1.05,0.35-1.76,0.35-2.82c0-1.91-1.08-3.12-3.12-3.12    c-3.5,0-5.25,3.5-5.98,6.93l-1.74,7.96h-2.11L406.48,202.51z"></path>
		<path class="st6" d="M420.24,210.14h2.07l1.21,14.03h0.07l7.63-14.03h2.38l1.56,14.03h0.07l7.02-14.03h2.26l-8.44,16.23h-2.46    l-1.65-14.03h-0.07l-7.61,14.03h-2.38L420.24,210.14z"></path>
		<path class="st6" d="M446.28,218.83c-0.07,0.42-0.09,0.86-0.09,1.3c0,3.12,2.07,4.9,4.93,4.9c2,0,3.47-0.53,4.75-1.08l-0.17,1.94    c-0.95,0.35-2.2,0.86-4.84,0.86c-3.78,0-6.68-2.26-6.68-6.62c0-5.45,3.19-10.38,8.4-10.38c3.81,0,5.72,2.35,5.72,6.05    c0,0.99-0.13,2-0.22,3.03H446.28z M456.2,217.11c0.04-0.44,0.09-0.86,0.09-1.25c0-2.64-1.12-4.4-3.72-4.4    c-3.12,0-5.41,2.68-5.94,5.63h9.57V217.11z"></path>
		<path class="st6" d="M459.01,223.86c1.14,0.7,2.48,1.17,3.85,1.17c1.94,0,4.58-0.73,4.58-3.25c0-3.54-6.4-3.37-6.4-7.5    c0-3.21,3.41-4.51,6.02-4.51c1.47,0,2.82,0.26,4.16,0.79l-0.66,1.87c-1.05-0.61-2.38-0.95-3.59-0.95c-1.6,0-3.81,0.51-3.81,2.77    c0,2.77,6.49,3.12,6.49,7.41c0,3.69-3.37,5.1-6.53,5.1c-1.69,0-3.15-0.26-4.71-0.9L459.01,223.86z"></path>
		<path class="st6" d="M477.57,206.51l2.29-0.79l-0.99,4.42h4.24l-0.42,1.72h-4.16l-1.72,8.01c-0.22,1.08-0.48,2.13-0.48,3.19    c0,1.27,0.68,1.98,1.85,1.98c0.61,0,1.14-0.13,1.72-0.44l-0.18,1.72c-0.61,0.29-1.21,0.44-2.04,0.44c-2.26,0-3.54-1.27-3.54-3.03    c0-1.39,0.57-3.98,0.73-4.68l1.56-7.19h-3.26l0.44-1.72h3.17L477.57,206.51z"></path>
		<path class="st6" d="M485.18,218.83c-0.07,0.42-0.09,0.86-0.09,1.3c0,3.12,2.07,4.9,4.93,4.9c2,0,3.47-0.53,4.73-1.08l-0.17,1.94    c-0.95,0.35-2.2,0.86-4.84,0.86c-3.78,0-6.68-2.26-6.68-6.62c0-5.45,3.19-10.38,8.4-10.38c3.81,0,5.72,2.35,5.72,6.05    c0,0.99-0.13,2-0.22,3.03H485.18z M495.1,217.11c0.04-0.44,0.09-0.86,0.09-1.25c0-2.64-1.12-4.4-3.72-4.4    c-3.12,0-5.41,2.68-5.94,5.63h9.57V217.11z"></path>
		<path class="st6" d="M501.37,213.04c0.18-0.92,0.35-1.87,0.44-2.9h2c-0.09,1.03-0.18,1.87-0.35,2.46h0.05    c1.03-1.6,2.42-2.82,4.51-2.82c0.68,0,1.21,0.13,1.76,0.22l-0.48,2.13c-0.53-0.22-1.14-0.26-1.72-0.26    c-3.28,0-4.58,3.59-5.19,6.53l-1.65,8h-2.13L501.37,213.04z"></path>
		<path class="st6" d="M512.03,212.72c0.2-1.08,0.33-1.78,0.39-2.59h2.02c-0.09,1.03-0.18,1.87-0.35,2.46h0.07    c1.12-1.72,3.15-2.82,5.15-2.82c2.92,0,5.1,1.65,5.1,4.71c0,1.12-0.26,2.33-0.48,3.34l-1.82,8.56h-2.11l1.85-8.95    c0.22-1.05,0.35-1.76,0.35-2.82c0-1.91-1.08-3.12-3.12-3.12c-3.5,0-5.37,3.47-6.14,7.19l-1.6,7.7h-2.11L512.03,212.72z"></path>
	</g>
</g>
</svg>
