<?xml version="1.0" encoding="UTF-8"?>
<!-- Generator: Adobe Illustrator 25.0.0, SVG Export Plug-In . SVG Version: 6.00 Build 0)  -->
<svg xmlns="http://www.w3.org/2000/svg" xmlns:xlink="http://www.w3.org/1999/xlink" version="1.1" id="Ebene_1" x="0px" y="0px" viewBox="0 0 766.43 226.77" style="enable-background:new 0 0 766.43 226.77;" xml:space="preserve">
<style type="text/css">
	.st0{fill:#FFFFFF;}
	.st1{fill:#C6C6C6;}
	.st2{clip-path:url(#SVGID_2_);}
	.st3{clip-path:url(#SVGID_4_);}
	.st4{clip-path:url(#SVGID_6_);}
	.st5{fill:#B61F29;}
	.st6{fill:#706F6F;}
</style>
<path class="st0" d="M5.83,77.74c0,0.13-0.16,0.22-0.38,0.22c-0.22,0-0.38-0.11-0.38-0.22c0-0.13,0.16-0.22,0.38-0.22  C5.67,77.5,5.83,77.61,5.83,77.74L5.83,77.74z"></path>
<path class="st0" d="M5.29,81.67c0,0.13-0.16,0.22-0.38,0.22c-0.22,0-0.38-0.11-0.38-0.22c0-0.13,0.16-0.22,0.38-0.22  C5.12,81.44,5.29,81.55,5.29,81.67L5.29,81.67z"></path>
<polygon class="st1" points="50.93,16.99 50.93,9.4 59.55,9.42 59.55,0.18 67.14,0.18 67.14,9.4 75.73,9.4 75.73,16.99 67.14,16.97   67.14,201.79 59.55,201.79 59.55,16.97 "></polygon>
<g>
	<g>
		<defs>
			<rect id="SVGID_1_" width="124.41" height="201.97"></rect>
		</defs>
		<clipPath id="SVGID_2_">
			<use xlink:href="#SVGID_1_" style="overflow:visible;"></use>
		</clipPath>
		<path class="st2" d="M67.32,201.97h-7.96V17.17h-8.61V9.22h8.61V0h7.96v9.22h8.61v7.96h-8.6L67.32,201.97z M59.73,201.61h7.21    l0.02-184.82h8.6V9.6h-8.61V0.38h-7.21V9.6h-8.61v7.21h8.61L59.73,201.61z"></path>
	</g>
</g>
<path class="st0" d="M115.91,103.46c0,0,1.9,2.6,2.32,3.55c0.44,0.95,0.86,3.58,0.86,3.58s-0.71-1.79-2.12-2.6  c-1.17-0.68-3.64-0.82-4.04-0.59c-0.4,0.24,1.77-0.99,2.16-1.55C115.49,105.28,115.91,103.46,115.91,103.46L115.91,103.46z"></path>
<path class="st0" d="M7.44,114.1c0,0-1.48-1.5-1.66-1.98c-0.18-0.48-1.7-1.7-3.04-3.04c-1.35-1.35-1.26-3.77-1.26-3.77  c-0.22-3.02,2.38-5.34,2.58-5.67c0.18-0.35,0.53-1.41,0.88-1.83c0.35-0.4,1.37-1.61,1.37-1.61s1.54-2.36,2.27-3.91  c0.71-1.57,0.26-2.54,0.09-4.55c-0.16-2.01,0.91-4.7,3.15-10.22s5.25-6.78,5.25-6.78s1.1-13.62-0.97-12.62S7.28,67.9,5.3,71.1  S0.44,82.68,0.26,83.94s0.22,3.9,1.23,4.9c1.01,1.01,1.59,0.93,2.14,1.06c0.53,0.13,1.85-0.16,2.76-0.27  c0.91-0.13,2.1,0.13,2.36,0.16s0,0,2.49,1.01c2.49,1.01,4.24,2.67,4.17,4.77c-0.05,2.1-2.14,4.83-2.14,4.83s-4.43,5.25-5.65,9.29  s0.16,5.05,1.44,6.09c1.28,1.04,3.24,0.88,3.24,0.88c0.69,0,1.57-0.18,1.79-0.4c0.22-0.22,1.94-1.37,2.1-4.04  c0,0,0.04-1.35-2.01-2.71c-2.05-1.35-4.68-3.66-4.68-3.75c0,0-1.92,3.33-2.14,4.94"></path>
<g>
	<g>
		<defs>
			<rect id="SVGID_3_" width="124.41" height="201.97"></rect>
		</defs>
		<clipPath id="SVGID_4_">
			<use xlink:href="#SVGID_3_" style="overflow:visible;"></use>
		</clipPath>
		<path class="st3" d="M11.94,116.84c-0.6,0-2.01-0.09-3.05-0.93l-0.07-0.07c-0.55-0.44-1.13-0.9-1.5-1.61    c-0.16-0.16-1.5-1.54-1.7-2.03c-0.11-0.26-0.79-0.9-1.52-1.57c-0.46-0.42-0.99-0.91-1.48-1.41c-1.39-1.39-1.32-3.8-1.32-3.91    c-0.18-2.58,1.66-4.68,2.36-5.47c0.11-0.13,0.22-0.26,0.24-0.29c0.05-0.11,0.15-0.31,0.24-0.53c0.18-0.46,0.42-1.02,0.68-1.32    c0.35-0.4,1.39-1.61,1.39-1.61s1.52-2.34,2.23-3.88c0.38-0.82,0.42-1.46,0.35-2.23c-0.02,0-0.04,0-0.07-0.02    c-0.04,0-0.11-0.02-0.2-0.04c-0.4-0.07-1.37-0.22-2.1-0.13c-0.22,0.04-0.48,0.07-0.73,0.11c-0.82,0.13-1.66,0.27-2.1,0.16    c-0.09-0.02-0.16-0.04-0.26-0.05c-0.48-0.09-1.08-0.18-1.96-1.06c-1.06-1.06-1.48-3.75-1.28-5.07c0.18-1.26,3.09-9.67,5.08-12.91    c1.88-3.05,8.69-12,10.88-13.06c0.27-0.13,0.49-0.05,0.62,0.04c1.52,1.04,0.73,11.58,0.62,12.77v0.11l-0.11,0.04    c-0.04,0.02-2.96,1.3-5.14,6.68c-2.27,5.63-3.27,8.21-3.13,10.15c0.04,0.53,0.11,0.99,0.16,1.39c0.04,0.2,0.05,0.4,0.07,0.59    c0.02,0.02,0.05,0.02,0.09,0.04c0.27,0.13,0.84,0.37,2.07,0.86c2.78,1.13,4.35,2.93,4.3,4.96c-0.07,2.14-2.08,4.83-2.18,4.94    c-0.07,0.09-2.08,2.49-3.75,5.25c0.42,0.42,2.74,2.41,4.57,3.62c2.1,1.39,2.1,2.8,2.1,2.87c-0.15,2.47-1.59,3.69-2.05,4.1    c-0.05,0.04-0.07,0.07-0.11,0.09c-0.31,0.31-1.32,0.46-1.92,0.46C12.23,116.84,12.12,116.84,11.94,116.84z M8.03,114.61    c0.29,0.35,0.66,0.64,1.02,0.93l0.09,0.07c1.21,0.97,3.07,0.84,3.09,0.84c0.71,0,1.52-0.2,1.66-0.35    c0.02-0.02,0.07-0.05,0.13-0.11c0.44-0.37,1.79-1.5,1.92-3.82c0,0-0.02-1.24-1.9-2.51c-0.59-0.13-1.7-0.37-3.53,0.42    c0.07,0,0.15,0,0.22,0c2.08,0.2,2.78,1.15,2.74,1.9c-0.04,0.73-0.75,1.3-1.65,1.3v-0.38c0.8,0,1.24-0.48,1.26-0.93    c0.04-0.62-0.69-1.34-2.38-1.52c-0.57,0-1.02,0.09-1.3,0.29c-0.22,0.15-0.33,0.35-0.33,0.6c0,0.79,0.97,1.74,1.77,1.74v0.38    c-1.01,0-2.16-1.13-2.16-2.12c0-0.02,0-0.05,0-0.07C7.68,112.56,7.97,114.34,8.03,114.61z M7.85,109.44    c-0.02,0.09-0.05,0.2-0.09,0.29c-0.62,2.07-0.57,3.31-0.18,4.17c-0.04-1.04,0.18-2.8,1.92-3.73c1.77-0.95,3-1.08,3.84-1.01    c-1.3-0.93-3.18-2.45-3.84-3.11C9.18,106.6,8.34,108.14,7.85,109.44z M9.14,90.14c0.05,0.73,0,1.39-0.38,2.23    c-0.71,1.55-2.25,3.93-2.27,3.95c-0.02,0.02-1.04,1.21-1.39,1.63c-0.2,0.26-0.42,0.79-0.6,1.23c-0.09,0.24-0.18,0.44-0.26,0.57    c-0.04,0.07-0.13,0.16-0.29,0.37c-0.66,0.77-2.43,2.78-2.25,5.21c0,0.04-0.07,2.38,1.21,3.64c0.49,0.49,1.01,0.97,1.46,1.39    c0.95,0.88,1.48,1.39,1.63,1.72c0.09,0.22,0.57,0.77,1.04,1.3c-0.15-0.68-0.13-1.55,0.13-2.71l0,0c0-0.4,0.15-0.86,0.33-1.35    c1.34-3.99,5.41-8.83,5.58-9.03c0.02-0.02,2.03-2.71,2.08-4.72c0.05-1.85-1.43-3.53-4.06-4.59C10.02,90.53,9.45,90.27,9.14,90.14z     M16.29,58.27c-0.04,0-0.07,0-0.13,0.04c-2.05,0.99-8.81,9.84-10.72,12.91c-1.98,3.2-4.85,11.5-5.03,12.77    c-0.18,1.23,0.24,3.8,1.17,4.74c0.79,0.79,1.3,0.88,1.76,0.97c0.09,0.02,0.2,0.04,0.29,0.05c0.37,0.09,1.21-0.05,1.96-0.16    c0.26-0.04,0.51-0.07,0.73-0.11c0.79-0.11,1.76,0.05,2.21,0.13c0.07,0.02,0.13,0.02,0.16,0.02c-0.02-0.13-0.04-0.27-0.05-0.42    c-0.05-0.42-0.13-0.88-0.16-1.41c-0.16-2.01,0.86-4.61,3.15-10.31c2.03-5.01,4.66-6.55,5.23-6.84c0.37-4.61,0.53-11.63-0.48-12.31    C16.37,58.28,16.33,58.27,16.29,58.27z"></path>
	</g>
</g>
<path d="M5.45,111.78c0-0.13-0.22-3.31,0.57-4.85c0.68-1.35,0.68-1.35,0.79-1.32l0.09,0.04l-0.04,0.11l-0.04-0.02l0.02,0.02  c-0.02,0.02-0.11,0.16-0.64,1.24c-0.75,1.5-0.55,4.72-0.53,4.75L5.45,111.78z M4.24,110.72c0-0.16-0.04-4.1,0.22-4.72l0.18,0.07  c-0.2,0.48-0.22,3.26-0.22,4.65H4.24z M2.93,109.22c0-0.26-0.07-2.45,0.07-2.78c0.15-0.31,0.18-0.69,0.18-0.69l0.18,0.02  c0,0.02-0.04,0.42-0.18,0.77c-0.11,0.22-0.09,1.74-0.07,2.71L2.93,109.22z M13.62,96.45l-0.15-0.13c0,0,0.59-0.69,0.86-1.5  c0.29-0.8,0.16-1.55,0.15-1.55l0.18-0.04c0,0.04,0.15,0.8-0.15,1.66C14.23,95.74,13.66,96.43,13.62,96.45z M12.11,95.48L12,95.34  c0,0,0.37-0.26,0.86-1.1s0.38-2.27,0.38-2.29l0.18-0.02c0,0.05,0.11,1.5-0.42,2.4C12.51,95.21,12.12,95.48,12.11,95.48z   M10.46,94.51l-0.09-0.16c0,0,0.24-0.16,0.48-0.9c0.26-0.79,0.44-2.56,0.44-2.58l0.18,0.02c0,0.07-0.18,1.81-0.44,2.62  C10.75,94.31,10.5,94.49,10.46,94.51z"></path>
<path class="st0" d="M81.33,42.59c0,0,2.89-2.98,4.04-3.05c1.15-0.07,2.62-0.09,3.36-0.91c0.75-0.82,2.43-2.54,2.18-4.61  c-0.26-2.07-4.68-8.72-27.96-8.72c-13.84,0-28.82,1.99-28.79,9.07c0,0,0.57,4.32,4.63,6.13c4.06,1.81,4.97,2.56,4.86,3.57  c-0.11,1.01-2.56,3.05-2.6,4.26l-12.75,0.53c0,0,0.27-0.99,1.99-2.07c1.72-1.08,5.8-3.93,6.09-4.61c0.29-0.66,1.06-2.08,0.97-2.43  c-0.09-0.35-1.55-0.55-0.11-1.81s4.52-3.47,13.79-3.97c9.27-0.48,8.96-0.64,12.33-0.69c3.36-0.04,8.03-0.09,13.64,0.93  c5.61,1.02,11.16,2.62,10.81,4.46c-0.11,0.6-0.15,1.08-0.13,1.46c0,0.02,0,0.04,0,0.05c0.05,0.73,0.33,1.08,0.66,1.34  c0.51,0.38,5.52,4.46,6.77,5.29c1.24,0.82,2.71,2.65,2.71,2.65l-8.54,1.7c0,0-8.12-5.32-7.97-8.17l0.79-7.61c0,0,5.83,1.5,5.82,3.27  l-0.13,0.75"></path>
<path d="M89.25,51.39l-0.07-0.04c-0.33-0.22-8.19-5.41-8.07-8.34l0.77-7.5c-1.41-0.37-3.05-0.73-4.9-1.08  c-5.69-1.04-10.44-0.99-13.61-0.93c-1.72,0.02-2.45,0.07-4.04,0.18c-1.5,0.11-3.75,0.26-8.27,0.49c-8.76,0.46-12,2.45-13.68,3.91  c-0.48,0.42-0.57,0.68-0.57,0.8c0,0.02,0,0.04,0.02,0.05c0.55,0.51,1.23,0.99,2.05,1.35c4.02,1.79,5.1,2.62,4.97,3.77  c-0.05,0.51-0.6,1.19-1.23,1.96c-0.64,0.79-1.35,1.68-1.37,2.29v0.18h-0.18l-13,0.53l0.07-0.26c0.02-0.04,0.31-1.08,2.07-2.18  c1.88-1.17,5.76-3.95,6.02-4.52c0.07-0.15,0.16-0.35,0.26-0.55c0.24-0.49,0.75-1.55,0.69-1.76c-0.02-0.04-0.13-0.11-0.2-0.15  c-0.16-0.11-0.38-0.26-0.48-0.48c-2.14-2.05-2.52-4.75-2.52-4.79c-0.02-1.41,0.53-2.65,1.61-3.73c4.81-4.83,19.2-5.56,27.36-5.56  c21.4,0,27.76,5.82,28.15,8.91c0.26,2.07-1.3,3.75-2.12,4.65l-0.09,0.11c-0.24,0.26-0.55,0.46-0.88,0.59l-0.02,0.07h-0.05  c-0.04,0.27-0.04,0.51-0.02,0.73v0.05c0.05,0.69,0.31,0.99,0.59,1.19c0.11,0.09,0.48,0.37,0.95,0.77c1.57,1.26,4.85,3.9,5.8,4.52  c1.24,0.82,2.69,2.62,2.74,2.71l0.2,0.24L89.25,51.39z M81.53,42.65l-0.04,0.37c-0.13,2.58,7.06,7.44,7.83,7.96l8.16-1.61  c-0.44-0.53-1.52-1.76-2.45-2.38c-0.97-0.64-4.11-3.18-5.82-4.54c-0.49-0.38-0.84-0.68-0.95-0.77c-0.33-0.26-0.68-0.62-0.73-1.46  v-0.05c-0.02-0.2,0-0.42,0.02-0.68c-0.62,0.16-1.32,0.2-1.92,0.24l-0.24,0.02C84.51,39.78,82.37,41.79,81.53,42.65z M37.55,40.01  c-0.07,0.37-0.35,0.95-0.71,1.7c-0.09,0.2-0.18,0.38-0.26,0.53c-0.35,0.79-4.85,3.86-6.16,4.68c-1.12,0.69-1.59,1.35-1.79,1.7  l12.27-0.51c0.11-0.69,0.79-1.52,1.43-2.32c0.53-0.68,1.1-1.35,1.13-1.77c0.09-0.82-0.57-1.52-4.75-3.38  C38.3,40.47,37.91,40.25,37.55,40.01z M82.26,35.63l-0.66,6.42c0.86-0.84,2.8-2.65,3.75-2.71l0.24-0.02  c0.64-0.04,1.37-0.07,1.98-0.26c0.02-0.13,0.04-0.27,0.07-0.42s0-0.29-0.05-0.46C86.9,37.11,83.78,36.05,82.26,35.63z M87.98,38.19  c0.07,0.16,0.11,0.33,0.11,0.49l-0.04,0.22c0.2-0.11,0.38-0.22,0.53-0.38l0.09-0.11c0.79-0.86,2.27-2.45,2.03-4.35  c-0.04-0.27-0.46-2.72-5.23-4.99c-4.99-2.38-12.56-3.57-22.53-3.57c-8.1,0-22.38,0.71-27.08,5.45c-1.01,1.01-1.52,2.18-1.5,3.44  c0,0.02,0.35,2.34,2.12,4.24c0.09-0.26,0.31-0.51,0.64-0.82c1.72-1.5,5.03-3.55,13.92-4.01c4.52-0.24,6.77-0.4,8.27-0.49  c1.55-0.11,2.34-0.16,4.06-0.18c3.16-0.04,7.96-0.11,13.68,0.95c4.26,0.79,9.56,2.07,10.74,3.77  C87.87,37.93,87.95,38.06,87.98,38.19z"></path>
<path class="st0" d="M43.12,45.1c0.97-1.34,0.66-1.99,0.75-2.82c0.09-0.82-0.29-3-0.62-3.79c-0.33-0.79-0.4-3.29-0.4-3.29  s-6.66,2.14-5.89,3.99C37.03,40.03,46.16,42.45,43.12,45.1L43.12,45.1z"></path>
<path d="M43.25,45.24l-0.27-0.26c0.29-0.38,0.48-0.75,0.59-1.1c-0.11-1.26-2.85-2.52-4.68-3.37c-1.39-0.64-2.03-0.95-2.08-1.28  c-0.11-0.27-0.09-0.55,0.04-0.84c0.79-1.7,5.76-3.33,5.98-3.38l0.24-0.07v0.26c0,0.02,0.09,2.49,0.38,3.22  c0.33,0.8,0.73,3.02,0.64,3.88c-0.02,0.18-0.02,0.37-0.02,0.55c0,0.33,0,0.68-0.11,1.08C43.95,44.4,43.71,44.84,43.25,45.24z   M42.67,35.48c-1.01,0.35-4.88,1.76-5.5,3.11c-0.09,0.2-0.11,0.38-0.04,0.55l0.02,0.05c0.07,0.16,1.08,0.62,1.88,0.99  c1.68,0.77,3.88,1.77,4.63,2.96c0-0.09,0-0.18,0-0.27c0-0.18,0-0.38,0.02-0.6c0.09-0.79-0.29-2.94-0.6-3.69  C42.79,37.93,42.7,36.16,42.67,35.48z"></path>
<path class="st0" d="M115.87,103.42c0,2.41-1.77,3.24-2.76,3.82c-0.79,0.46-3.95,2.29-3.95,3.73c0,3.09,2.91,4.22,4.26,4.22  s5.21-0.49,5.49-3.22c0.27-2.72-0.09-3.97-1.55-6.46c-1.46-2.49-3.36-4.19-4.28-4.99c-0.91-0.8-1.46-1.81-1.46-1.81  s-0.64-1.9-1.9-5.08c-1.26-3.18,1.1-3.79,1.41-3.79s1.92-0.09,2.23-0.24c0.31-0.15,2.3-0.55,2.87-0.6c0.59-0.05,2.14-0.46,4.59-1.26  c2.45-0.8,3.36-2.69,3.42-6.05c0.05-3.36-7.55-15.76-7.55-15.76c-0.88-1.28-8.08-8.78-8.08-8.78l0.13,13.37  c0.71,0.15,4.37,4.74,6.49,10.35s1.63,9.82,1.63,10.77c0,0.95,4.83,8.17,5.96,9.69c1.13,1.54,1.23,3.69,1.23,3.69  c-0.09,4.32-5.34,7.86-5.34,7.86"></path>
<g>
	<g>
		<defs>
			<rect id="SVGID_5_" width="124.41" height="201.97"></rect>
		</defs>
		<clipPath id="SVGID_6_">
			<use xlink:href="#SVGID_5_" style="overflow:visible;"></use>
		</clipPath>
		<path class="st4" d="M113.42,115.4c-1.55,0-4.44-1.3-4.44-4.41c0-1.5,2.98-3.27,3.97-3.86l0.31-0.18c0.95-0.55,2.4-1.37,2.41-3.46    c-1.15-1.43-2.29-2.4-2.74-2.8c-0.93-0.8-1.48-1.81-1.52-1.87c-0.02-0.05-0.68-1.96-1.9-5.1c-0.51-1.3-0.51-2.34,0.02-3.11    c0.49-0.73,1.34-0.95,1.57-0.95c0.4,0,1.9-0.11,2.14-0.22c0.35-0.16,2.4-0.57,2.94-0.64c0.11-0.02,0.27-0.04,0.46-0.07    c-0.09-1.94-0.44-4.65-1.63-7.81c-2.18-5.8-5.83-10.11-6.35-10.22l-0.15-0.04v-0.15l-0.13-13.84l0.33,0.35    c0.29,0.31,7.21,7.52,8.1,8.81c0.31,0.51,7.66,12.49,7.59,15.87c-0.07,3.58-1.13,5.45-3.57,6.24c-1.59,0.51-2.93,0.91-3.8,1.12    c0.04,0.93,0,1.66-0.02,2.14c0,0.18-0.02,0.35-0.02,0.46c0,0.84,4.55,7.74,5.93,9.58c1.15,1.55,1.26,3.71,1.26,3.8    c-0.09,4.37-5.21,7.88-5.43,8.03l0,0C117.81,114.89,115,115.4,113.42,115.4z M116.04,103.95c-0.22,1.96-1.63,2.78-2.58,3.33    l-0.31,0.18c-3.13,1.85-3.79,2.94-3.79,3.53c0,3.07,2.98,4.04,4.06,4.04c0.05,0,4.99-0.04,5.29-3.04    c0.27-2.76-0.11-3.95-1.54-6.35C116.82,105.03,116.42,104.46,116.04,103.95z M111.76,98.68c0,0,0.55,0.97,1.41,1.72    c0.68,0.59,2.76,2.4,4.32,5.03c1.44,2.43,1.87,3.73,1.59,6.57c-0.02,0.15-0.04,0.27-0.07,0.4c1.26-0.97,4.72-3.95,4.79-7.37    c0,0-0.11-2.12-1.19-3.58c-0.91-1.23-6-8.74-6-9.82c0-0.11,0-0.27,0.02-0.46c0.02-0.46,0.05-1.15,0.02-2.05    c-0.18,0.04-0.33,0.05-0.44,0.07c-0.6,0.05-2.56,0.46-2.82,0.59c-0.37,0.18-2.1,0.27-2.32,0.27c-0.09,0-0.82,0.15-1.26,0.79    c-0.44,0.66-0.44,1.57,0.04,2.74C111.1,96.73,111.76,98.65,111.76,98.68L111.76,98.68z M108.91,70.41    c1.06,0.6,4.48,5.1,6.47,10.41c1.19,3.16,1.55,5.91,1.66,7.86c0.77-0.18,1.99-0.53,3.71-1.08c2.29-0.75,3.24-2.45,3.29-5.89    c0.05-3.27-7.46-15.53-7.53-15.65c-0.75-1.1-6.29-6.91-7.72-8.41L108.91,70.41z"></path>
	</g>
</g>
<path class="st0" d="M115.73,114.92c3.8-0.86,3.16-3.84,3.16-3.84c0-2.67-2.49-3.58-4.1-3.77c-1.52-0.16-2.45,0.4-2.45,0.4  s-3.09,1.79-3.18,3.22C109.07,112.34,110.3,116.15,115.73,114.92L115.73,114.92z"></path>
<path d="M113.75,115.36L113.75,115.36c-1.52,0-2.72-0.48-3.58-1.39c-1.02-1.08-1.23-2.43-1.19-3.05c0.09-1.5,3.15-3.29,3.27-3.36  c0.04-0.02,0.99-0.59,2.56-0.42c2.07,0.22,4.26,1.37,4.26,3.95l0,0c0,0,0.62,3.15-3.31,4.04  C115.05,115.27,114.37,115.36,113.75,115.36z M114.23,107.48c-1.12,0-1.79,0.4-1.79,0.4c-0.84,0.49-3.02,1.98-3.09,3.05  c-0.04,0.73,0.27,1.9,1.08,2.76c0.79,0.84,1.9,1.26,3.31,1.26l0,0c0.59,0,1.24-0.07,1.94-0.24c3.58-0.8,3.04-3.51,3.02-3.62  c0-3.04-3.27-3.55-3.93-3.62C114.57,107.48,114.39,107.48,114.23,107.48z"></path>
<path class="st0" d="M108.8,86.63c0,0,3.82-5.08,5.36-4.96c1.21,0.09,1.87,0.59,2.14,2.98c0,0,0.73,4.21,0.62,4.37  c-0.18,0.22-3.2,0.35-3.38,0.55c-0.16,0.2-1.9,0.27-2.36,0.29c-0.48,0.02-1.76,0.86-1.79,1.48c-0.05,0.62-1.12,0.42-1.12,0.42  L108.8,86.63L108.8,86.63z"></path>
<path d="M108.63,91.95c-0.22,0-0.38-0.04-0.4-0.04l-0.16-0.04l0.57-5.34l0.04-0.04c0.38-0.53,3.95-5.16,5.52-5.03  c1.28,0.11,2.03,0.64,2.32,3.15c0.75,4.3,0.64,4.43,0.57,4.5c-0.13,0.15-0.53,0.22-1.9,0.37c-0.59,0.05-1.37,0.15-1.5,0.2  c-0.11,0.13-0.55,0.24-2.38,0.33h-0.09c-0.38,0.02-1.57,0.8-1.63,1.3C109.55,91.53,109.44,91.95,108.63,91.95z M108.47,91.57  c0.04,0,0.09,0,0.15,0c0.35,0,0.55-0.09,0.57-0.27c0.05-0.73,1.44-1.63,1.98-1.65h0.09c1.68-0.09,2.07-0.18,2.14-0.24  c0.11-0.13,0.44-0.16,1.7-0.31c0.57-0.05,1.39-0.15,1.63-0.22c0-0.42-0.31-2.43-0.62-4.21c-0.26-2.29-0.84-2.72-1.98-2.82l0,0  c-1.24,0-4.11,3.46-5.16,4.85L108.47,91.57z"></path>
<path class="st0" d="M10.11,81.97c0,0,5.61,0.73,6.13,4.15c0.51,3.44,0.11,8.32,0.11,8.32l-0.82,0.62l-0.15,0.07  c0,0-0.22-2.6-3.9-4.17c-3.68-1.57-2.54-1.13-2.54-1.13s-0.49-2.62-0.02-4.48C9.4,83.48,10.11,81.97,10.11,81.97L10.11,81.97z"></path>
<path d="M15.23,95.45l-0.02-0.29c0-0.02-0.27-2.51-3.79-4.01c-1.66-0.71-2.36-1.01-2.63-1.17c-0.02,0-0.02,0-0.04-0.02l0,0  c-0.16-0.11-0.16-0.15-0.15-0.22l0.04-0.15h0.09c-0.11-0.73-0.37-2.74,0.02-4.28c0.48-1.87,1.19-3.4,1.21-3.42l0.05-0.13l0.13,0.02  c0.24,0.04,5.76,0.79,6.29,4.32c0.51,3.42,0.11,8.3,0.11,8.36v0.09l-0.9,0.68L15.23,95.45z M9.13,89.74  c0.29,0.13,0.97,0.42,2.43,1.06c3.05,1.3,3.79,3.29,3.95,4.02l0.66-0.49c0.05-0.66,0.37-5.07-0.11-8.19  c-0.46-2.96-4.97-3.84-5.83-3.97c-0.18,0.4-0.73,1.7-1.12,3.22C8.71,87.05,9.05,89.32,9.13,89.74z"></path>
<path class="st0" d="M114.96,108.63c1.08,0,2.19,0.99,2.19,2.19c0,1.21-1.79,1.43-2.29,1.43c-0.49,0-2.58-0.6-2.58-2.05  C112.29,108.74,113.88,108.63,114.96,108.63L114.96,108.63z"></path>
<path d="M114.87,112.42c-0.64,0-2.76-0.69-2.76-2.23c0-1.76,2.07-1.76,2.85-1.76c1.12,0,2.38,1.02,2.38,2.38  C117.34,112.14,115.54,112.42,114.87,112.42z M114.96,108.81c-1.72,0-2.47,0.42-2.47,1.37c0,1.26,1.9,1.87,2.38,1.87  c0.02,0,2.08-0.05,2.08-1.23C116.95,109.69,115.87,108.81,114.96,108.81z"></path>
<path d="M5.39,87.62c-1.3,0-2.23-1.3-2.1-2.71c0.13-1.43,0.62-1.26,0.71-0.88s-0.55,2.49,1.3,2.49s1.87-1.39,1.87-1.72  s-1.44-1.85-2.49-2.27c-1.02-0.42-1.32-0.55-1.32-0.9s3.77-1.44,3.77-1.65s-3.09-1.3-3.09-1.3s0.64-2.52,1.43-2.45  c0.77,0.07,1.52,1.1,1.48,1.19c-0.04,0.09,1.85-0.22,1.9-0.51c0.07-0.29-3.33-1.98-3.33-1.98S6,73.88,6.46,74.07  c0.46,0.2,3.04,1.61,3.16,1.57c0.13-0.04-0.8,2.62-0.8,2.62S7.5,78.33,7.88,78.8c0.38,0.49,0.22,2.12,0.22,2.12l-1.74,0.55  l0.13,1.06c0,0,1.19,0.38,1.19,2.54C7.68,86.03,7.97,87.62,5.39,87.62L5.39,87.62z"></path>
<path class="st0" d="M5.83,77.74c0,0.13-0.16,0.22-0.38,0.22c-0.22,0-0.38-0.11-0.38-0.22c0-0.13,0.16-0.22,0.38-0.22  C5.67,77.5,5.83,77.61,5.83,77.74L5.83,77.74z"></path>
<path class="st0" d="M5.29,81.67c0,0.13-0.16,0.22-0.38,0.22c-0.22,0-0.38-0.11-0.38-0.22c0-0.13,0.16-0.22,0.38-0.22  C5.12,81.44,5.29,81.55,5.29,81.67L5.29,81.67z"></path>
<path d="M11.03,73.28c0,0-2.89-1.7-2.85-1.88c0.04-0.18,0.27-0.95,0.27-0.95L7.9,70.23l-1.39,2.85l0.33,0.22l0.69-0.69l2.85,1.66  L11.03,73.28L11.03,73.28z"></path>
<path d="M11.69,71.96c0,0-0.4-1.28-0.13-1.7c0.27-0.42,0.4-0.49,0.77-0.4c0.37,0.09,1.21-0.18,1.48-0.77  c0.27-0.59,0.42-0.73,0.6-0.88c0.18-0.15,0.77-0.73,0.69-1.21c-0.05-0.49-0.33-1.3-1.15-1.28c-0.82,0.04-1.02,0.55-1.76,0.49  s-0.51-0.59-0.51-0.59s0.69-0.69,0.88-0.69s-0.46-0.51-0.46-0.51s-1.19,0.91-1.02,1.65c0.15,0.73,0.68,1.19,1.19,1.15  c0.51-0.04,2.29-0.46,2.19-0.04c-0.09,0.42-0.73,0.84-1.21,0.84c-0.49,0-0.04,0.42-0.04,0.42l0.4,0.18c0,0,0.11,0.24-0.22,0.22  c-0.66-0.04-2.1-0.35-3.07-0.42c-1.43-0.13-1.46,0.05-1.46,0.05l2.54,3.9L11.69,71.96L11.69,71.96z"></path>
<path d="M51.15,27.14c-0.82,0-2.94,0.88-2.94,3.04s1.15,2.85,2.85,2.85c1.7,0,2.01-1.1,2.01-1.34s-0.37-0.31-0.46-0.22  c0,0-3.04,1.74-3.04-1.37c0-2.4,1.65-2.29,1.65-2.29l1.12,0.24l0.31-0.59C52.65,27.51,52.19,27.14,51.15,27.14L51.15,27.14z"></path>
<path d="M53.58,27.45l0.69,5.29h1.15l-0.09-2.62l1.94-0.05l0.33,2.25l1.43-0.15l-0.64-5.32c0,0-1.01-0.05-1.06,0.13  c-0.05,0.18,0.09,2.01,0.09,2.01l-2.3,0.05l-0.31-1.55L53.58,27.45L53.58,27.45z"></path>
<path d="M59.98,32.17l0.05-5.43c0,0,3.55-0.27,3.53,1.37c-0.02,1.37-0.82,1.7-0.82,1.7l1.26,2.38l-1.15,0.15  c0,0-1.28-2.03-1.24-1.85c0,0-0.18,0-0.24,0.18c-0.15,0.48-0.27,1.52-0.27,1.52L59.98,32.17L59.98,32.17z"></path>
<path class="st0" d="M62.09,28.44c0,0.44-0.16,0.8-0.35,0.8c-0.2,0-0.35-0.37-0.35-0.8c0-0.44,0.16-0.8,0.35-0.8  C61.92,27.63,62.09,28,62.09,28.44L62.09,28.44z"></path>
<polygon points="66.15,32.28 65,32.28 65,26.85 66.15,26.85 "></polygon>
<polygon points="76.7,32.85 75.55,32.75 76.04,27.32 77.18,27.43 "></polygon>
<path d="M69.75,27.76c0,0-0.46-0.42-0.82-0.4c-0.37,0.04-0.55,0.46-0.55,0.69c0,1.1,2.01,0.49,2.01,2.49c0,1.46-1.46,1.83-1.94,1.83  c-0.49,0-1.24-0.24-1.28-0.84c-0.04-0.6-0.04-0.6-0.04-0.6v-0.18c0,0,0.84,0.97,1.46,0.93c0.6-0.04,0.73-0.27,0.69-0.84  c-0.04-0.59-2.19-1.12-2.19-2.62c0-1.48,1.02-1.46,1.79-1.52c0.77-0.05,1.34,0.64,1.34,0.64L69.75,27.76L69.75,27.76z"></path>
<polygon points="71.09,26.94 75.07,27.29 74.98,28.29 73.54,28.26 73.08,32.41 71.82,32.31 72.38,28.09 70.99,27.91 "></polygon>
<path d="M112.87,64.92l0.51,0.59c0,0-2.54,2.25-2.45,2.76c0.09,0.51,0.84,1.52,1.61,0.95c0.75-0.59,2.19-1.88,2.19-1.88l0.33,0.55  c0,0-2.25,2.01-3.13,2.01s-1.92-1.52-1.98-2.25C109.89,66.9,112.87,64.92,112.87,64.92L112.87,64.92z"></path>
<path d="M112.64,71.07L116,69c0,0,2.03,1.92,1.12,2.89c-0.75,0.8-1.88,0.37-1.88,0.37l-0.75,1.48l-0.69-0.68l0.49-1.12l-0.05-0.24  l-0.93,0.31L112.64,71.07L112.64,71.07z"></path>
<path class="st0" d="M116.42,70.81c0-0.26-0.22-0.48-0.49-0.48s-0.49,0.22-0.49,0.48c0,0.26,0.22,0.48,0.49,0.48  C116.2,71.27,116.42,71.07,116.42,70.81L116.42,70.81z"></path>
<path d="M119.31,76.32c0,0,0.18-2.56-2.34-1.66c-1.55,0.59-1.15,2.34-0.55,2.34s1.1-0.51,1.1-0.51l0.46,0.77l-1.48,0.93  c0,0-1.3-1.7-1.3-2.72s0.37-1.61,1.52-1.98s3.82,0.68,3.07,2.91C119.71,76.55,119.31,76.32,119.31,76.32L119.31,76.32z"></path>
<path d="M121.47,79.59l-0.93-2.18l-3.86,1.55l0.84,2.34l0.69-0.22c0,0-0.55-1.12-0.37-1.21c0.18-0.09,0.84-0.46,1.01-0.22  c0.15,0.24,0.55,1.02,0.55,1.02l0.73-0.22c0,0-0.55-1.28-0.46-1.37s0.73-0.4,0.84-0.31c0.13,0.09,0.55,1.1,0.55,1.1L121.47,79.59  L121.47,79.59z"></path>
<path d="M122.86,83.67l-0.73,0.24l-0.37-0.97c0,0-3,0.93-3.35,0.93c-0.33,0-0.22-1.06-0.22-1.06s1.99-0.49,3.18-0.91  c-0.13-0.42-0.31-0.97-0.31-0.97l0.77-0.29"></path>
<path d="M111.69,94.59c0,0,3.46-2.65,3.75-2.21c0.31,0.44-0.8,3.79-0.8,3.79s2.25-1.39,2.6-1.02c0.35,0.37-3.64,2.49-3.64,2.49  s-0.38-0.49-0.26-0.95c0.26-0.99,1.08-2.4,0.79-2.76c-0.44-0.51-2.18,1.23-2.18,1.23L111.69,94.59L111.69,94.59z"></path>
<path d="M117.13,97.02c0.68,0,2.43,1.01,2.43,2.43c0,1.43-1.15,2.3-2.19,2.3s-2.47-1.24-2.47-2.49  C114.9,98.01,116.57,97.02,117.13,97.02L117.13,97.02z"></path>
<path class="st0" d="M117.72,98.24c0.6,0,1.04,0.27,1.04,0.82c0,0.55-0.77,1.7-1.83,1.7c-1.06,0-1.28-0.55-1.28-0.93  C115.67,99.43,116.42,98.24,117.72,98.24L117.72,98.24z"></path>
<path d="M117.85,102.67l0.37,0.37c0,0-0.57,1.17,0.44,1.24c1.01,0.07-0.42-2.93,1.77-2.87c2.19,0.07,1.37,1.7,1.37,1.7l-0.59,0.07  c0,0,0.37-1.02-0.48-1.04c-0.84-0.02,0.33,3.04-1.85,2.89C116.73,104.86,117.19,102.72,117.85,102.67L117.85,102.67z"></path>
<path class="st0" d="M10.9,69.53c-0.05,0.11-0.26,0.15-0.44,0.05c-0.2-0.09-0.31-0.24-0.27-0.37c0.05-0.11,0.26-0.15,0.44-0.05  C10.83,69.26,10.95,69.4,10.9,69.53L10.9,69.53z"></path>
<polygon class="st5" points="109.23,111.23 16,111.23 16,48.15 109.23,48.15 "></polygon>
<path d="M109.42,111.41h-93.6V47.95h93.6V111.41z M16.2,111.03h92.83V48.34H16.2V111.03z"></path>
<path d="M16.28,108.58c0,15.67,0.09,27.34,9.88,36.01c9.8,8.67,13.86,10.08,27.71,18.93c4.94,3.46,9.62,8.3,9.62,9.11v-64.04  C63.48,108.58,17.78,108.58,16.28,108.58L16.28,108.58z"></path>
<path d="M63.68,172.62h-0.38c0-0.62-4.33-5.32-9.53-8.96c-3.88-2.47-6.97-4.35-9.67-6.02c-6.86-4.17-10.99-6.69-18.05-12.93  c-9.95-8.8-9.95-20.87-9.95-36.16v-0.18h47.59V172.62z M16.46,108.76c0,15.09,0.04,27.03,9.82,35.68c7.04,6.22,11.16,8.74,18,12.89  c2.72,1.66,5.82,3.53,9.69,6.02c3.86,2.69,8.07,6.68,9.33,8.49v-63.08H16.46z"></path>
<path class="st1" d="M109.23,108.58c0,15.67-0.09,27.16-9.64,35.83c-9.55,8.67-13.5,10.08-26.99,18.93  c-4.81,3.46-9.36,8.3-9.36,9.11v-63.86C63.24,108.58,107.77,108.58,109.23,108.58L109.23,108.58z"></path>
<path d="M63.42,172.42h-0.38v-64.04h46.38v0.18c0,15.18,0,27.16-9.69,35.95c-6.88,6.25-10.9,8.76-17.57,12.93  c-2.65,1.66-5.65,3.53-9.44,6.02C67.65,167.1,63.42,171.8,63.42,172.42z M63.42,108.76v62.87c1.24-1.83,5.34-5.8,9.07-8.47  c3.8-2.49,6.8-4.37,9.45-6.02c6.66-4.15,10.68-6.68,17.52-12.89c9.53-8.65,9.56-20.5,9.56-35.5  C109.03,108.76,63.42,108.76,63.42,108.76z"></path>
<path class="st0" d="M52.38,84.75c0,0-0.46-0.69-1.37-0.69c-2.29,0-3.18,2.78-4.15,2.78c0,0-13.81-0.75-13.66,6.95  c0.15,7.7,19.75,9.86,33.65,9.86c14.01-0.6,24.2-5.23,24.2-10.19c0,0,1.02-6.89-7.61-6.89c-3.44,0-4.02,0.31-4.02,0.31  s-1.28-2.78-2.14-2.63c-0.86,0.15-1.34,0.46-1.37,0.97c-0.04,0.51-1.74-0.71-2.6-3.24c-0.86-2.52-1.23-6.14-1.23-6.14  s1.34-0.05,1.57-0.04c0.22,0.04,0.51,0.26,0.95,0.29c0.42,0.04,0.37-0.04,1.02-0.04s1.06,0,1.21,0s0.66,0,0.66-0.09  c0-0.09,0.26-0.09,0.4-0.04s0.15,0.15,0.8,0.15c0.66,0,0.86-0.05,1.08,0.04c0.22,0.09,0.15,0.16,0.42,0.2  c0.29,0.04,0.51,0.11,0.6,0.11c0.09,0,0.82,0.2,0.95,0.29c0.11,0.09,0.86,0.46,1.01,0.42c0.15-0.04,0.51-0.16,0.71,0.04  c0.2,0.2,1.13,0.97,1.48,0.97s0.86,0.31,1.01,0.46s0.51,0.29,0.86,0.29c0.35,0,0.6,0.11,0.69,0.2s1.37,1.01,1.98,1.02  c0.6,0.04,1.46,0.15,1.68,0.35c0.22,0.2,0.29,0.37,0.91,0.46c0.62,0.09,0.95-0.15,1.48,0.16c0.55,0.31,2.23,0.16,2.65,0.16  s0.66-0.11,0.75-0.24c0.09-0.11,0.49-0.11,0.88-0.11c0.4,0,0.77-0.26,0.77-0.66c0-0.4-4.41-5.78-5.69-6.86  c-1.28-1.08-2.03-1.43-2.23-1.87c-0.2-0.42-2.07-2.78-3-4.35c-0.95-1.57-4.72-9.67-9.78-9.73c-5.07-0.05-4.02,4.15-4.02,4.15  s1.15,4.72,1.02,5.03c-0.11,0.31-3.24,2.12-3.86,2.8c-0.62,0.69-0.86,0.95-0.86,0.95s-1.98-0.46-2.49-1.08s-1.66-1.74-1.23-2.74  c0.42-1.01,2.34-5.21,2.34-7.55c0-2.34-1.13-6.14-5.87-6.14c-4.72,0-6.05,3.66-6.05,7.3c0,3.64,1.37,4.02,1.37,4.02  s0.86,1.92,0.88,2.63c0.04,0.71-0.04,1.72-0.04,1.72s-1.72,0.37-3.09,0.37c-1.37,0-3.93-0.15-3.69-2.43  c0.24-2.14,0.37-2.38,0.37-2.38s1.34-4.63-3.2-5.6c0,0-2.45-1.06-8.28,7.44c-6.29,9.16-3.49,5.43-7.24,9.29  c-3.75,3.86-8.61,8.12-8.69,8.69c-0.09,0.57,0.15,0.82,0.75,0.88c0.6,0.05,0.51,0.11,1.02,0.26c0.51,0.15,0.77,0.15,0.91,0.11  c0.15-0.04,2.52-0.91,2.94-1.23c0.42-0.31,1.34-0.69,1.77-0.66c0.42,0.04,0.75-0.15,0.95-0.2c0.2-0.05,2.07-1.23,2.32-1.26  c0.26-0.04,1.34-0.29,1.46-0.4c0.11-0.11,1.21-0.42,1.66-0.46c0.46-0.04,0.95-0.29,1.02-0.37c0.09-0.09,0.88-1.08,1.43-1.13  c0.55-0.05,1.06-0.42,1.21-0.62c0.15-0.2,1.88-1.48,2.72-1.57c0.82-0.09,3.46-0.26,4.06-0.26s1.99-0.2,2.23-0.4  c0.22-0.2,0.75-1.37,1.63-1.34c0.88,0.04,2.83,0,2.94,0.2c0.11,0.2,0.42,1.41,0.88,1.61c0.46,0.2,1.41,0.42,1.43,0.69  c0.04,0.26-1.12,0.8-1.12,0.8s-2.29-0.22-2.69,0.86s-0.46,3.4-0.91,4.22C53.44,84.49,53.38,84.69,52.38,84.75L52.38,84.75z"></path>
<path d="M66.84,103.84c-5.61,0-33.67-0.48-33.85-10.06c-0.04-1.54,0.49-2.87,1.54-3.93c2.85-2.91,8.89-3.22,11.34-3.22  c0.62,0,0.99,0.02,0.99,0.02c0.29,0,0.64-0.42,1.04-0.9c0.68-0.79,1.61-1.88,3.09-1.88c0.8,0,1.3,0.48,1.46,0.68  c0.75-0.05,0.82-0.18,1.19-0.86l0.07-0.13c0.24-0.42,0.37-1.3,0.49-2.16c0.11-0.75,0.22-1.54,0.42-2.05  c0.42-1.12,2.47-1.01,2.83-0.99c0.44-0.2,0.84-0.46,0.95-0.59c-0.13-0.11-0.55-0.26-0.8-0.35c-0.18-0.07-0.37-0.13-0.49-0.18  c-0.38-0.16-0.64-0.79-0.86-1.41c-0.04-0.11-0.07-0.18-0.09-0.24c-0.24-0.09-1.43-0.11-2.08-0.13c-0.27,0-0.51,0-0.71-0.02l0,0  c-0.59,0-0.99,0.59-1.24,0.97c-0.11,0.15-0.18,0.26-0.26,0.31c-0.31,0.27-1.83,0.44-2.36,0.44c-0.59,0-3.22,0.16-4.04,0.26  c-0.77,0.07-2.45,1.32-2.58,1.5c-0.18,0.26-0.75,0.64-1.34,0.71c-0.18,0.02-0.55,0.2-1.24,1.01c-0.04,0.04-0.05,0.07-0.07,0.09  c-0.13,0.13-0.68,0.4-1.15,0.42c-0.44,0.02-1.43,0.33-1.54,0.4c-0.18,0.18-1.41,0.42-1.55,0.44c-0.15,0.04-0.91,0.48-1.37,0.75  c-0.59,0.35-0.8,0.48-0.91,0.49c-0.04,0.02-0.09,0.04-0.15,0.05c-0.2,0.07-0.49,0.18-0.86,0.16l0,0c-0.44,0-1.28,0.35-1.65,0.62  c-0.46,0.33-2.85,1.23-3.02,1.26c-0.18,0.04-0.53,0.02-1.01-0.11c-0.18-0.05-0.29-0.09-0.38-0.13c-0.16-0.05-0.24-0.09-0.6-0.13  c-0.37-0.04-0.62-0.15-0.77-0.35c-0.15-0.18-0.18-0.44-0.15-0.77c0.05-0.35,1.01-1.3,3.73-3.88c1.59-1.52,3.4-3.24,5.01-4.92  c0.95-0.99,1.48-1.48,1.85-1.81c0.79-0.73,0.79-0.73,2.62-3.44c0.66-0.95,1.54-2.25,2.74-4.02c4.68-6.82,7.26-7.55,8.16-7.55  c0.24,0,0.35,0.05,0.38,0.05c1.34,0.27,2.32,0.91,2.91,1.9c1.02,1.72,0.44,3.84,0.4,3.93c0,0.02-0.02,0.04-0.02,0.05l0,0  c0,0-0.13,0.33-0.35,2.29c-0.05,0.57,0.05,1.02,0.37,1.37c0.77,0.84,2.54,0.84,3.13,0.84c1.12,0,2.47-0.26,2.91-0.33  c0.02-0.31,0.04-1.01,0.02-1.55c-0.02-0.53-0.59-1.92-0.84-2.49c-0.33-0.16-1.43-0.93-1.43-4.17c0-2.8,0.8-7.48,6.25-7.48  c4.46,0,6.05,3.42,6.05,6.35c0,2.21-1.63,5.94-2.23,7.35l-0.13,0.27c-0.33,0.77,0.46,1.68,0.99,2.29c0.07,0.09,0.16,0.18,0.22,0.26  c0.37,0.44,1.68,0.84,2.27,0.99c0.11-0.13,0.35-0.4,0.79-0.86c0.35-0.37,1.3-1.01,2.23-1.63c0.68-0.44,1.5-0.99,1.59-1.13  c0.04-0.26-0.51-2.72-1.04-4.9c-0.02-0.07-0.42-1.77,0.59-3.05c0.69-0.9,1.88-1.34,3.53-1.34h0.11c4.59,0.05,8.05,6.36,9.51,9.05  c0.18,0.33,0.33,0.59,0.42,0.77c0.53,0.9,1.37,2.03,2.03,2.94c0.57,0.77,0.9,1.23,0.99,1.41c0.09,0.2,0.4,0.42,0.84,0.75  c0.35,0.26,0.79,0.59,1.34,1.04c1.13,0.95,5.76,6.47,5.76,7c0,0.48-0.42,0.84-0.97,0.84c-0.26,0-0.66,0-0.75,0.05  c-0.07,0.09-0.29,0.29-0.88,0.29c-0.07,0-0.2,0-0.35,0.02c-0.24,0-0.55,0.02-0.86,0.02c-0.79,0-1.28-0.07-1.55-0.24  c-0.33-0.2-0.53-0.15-0.77-0.13c-0.18,0.02-0.38,0.02-0.64-0.02c-0.55-0.07-0.71-0.2-0.91-0.4c-0.04-0.04-0.07-0.05-0.11-0.09  c-0.15-0.13-0.86-0.26-1.57-0.29c-0.68-0.04-2.01-0.99-2.1-1.08c-0.04-0.04-0.24-0.15-0.55-0.15c-0.37,0-0.8-0.15-0.99-0.35  c-0.11-0.11-0.59-0.4-0.86-0.4c-0.48,0-1.52-0.91-1.63-1.02c-0.02-0.02-0.05-0.05-0.16-0.05c-0.09,0-0.2,0.04-0.29,0.05  c-0.04,0-0.07,0.02-0.09,0.02c-0.02,0-0.04,0-0.05,0c-0.26,0-0.99-0.38-1.1-0.48c-0.09-0.05-0.73-0.24-0.84-0.26  c-0.05,0.02-0.11-0.02-0.2-0.04c-0.11-0.02-0.24-0.05-0.4-0.07c-0.22-0.02-0.29-0.07-0.37-0.15c-0.04-0.02-0.05-0.04-0.11-0.07  c-0.11-0.04-0.24-0.04-0.48-0.04c-0.15,0-0.31,0.02-0.55,0.02c-0.53,0-0.68-0.05-0.82-0.13c-0.02,0-0.04-0.02-0.05-0.02  c-0.04-0.02-0.13-0.04-0.16-0.02c-0.09,0.15-0.38,0.15-0.82,0.15H75.6c-0.31,0-0.46,0.02-0.57,0.02c-0.13,0.02-0.24,0.02-0.48,0  c-0.29-0.02-0.51-0.11-0.69-0.2c-0.11-0.04-0.18-0.09-0.26-0.09c-0.16-0.02-0.97,0-1.34,0.02c0.09,0.79,0.48,3.77,1.19,5.91  c0.69,2.03,1.88,3.07,2.25,3.2c0.07-0.55,0.59-0.91,1.52-1.08c0.88-0.16,1.94,1.88,2.27,2.58c0.37-0.09,1.37-0.27,3.93-0.27  c2.93,0,5.08,0.79,6.42,2.32c1.77,2.05,1.41,4.68,1.39,4.79C91.22,98.7,80.52,103.25,66.84,103.84L66.84,103.84z M45.88,87  c-2.41,0-8.32,0.31-11.08,3.11c-0.97,0.99-1.46,2.23-1.43,3.68c0.13,7.15,18.11,9.67,33.47,9.67c13.46-0.59,24.01-4.97,24.01-9.99  c0-0.05,0.37-2.6-1.3-4.52c-1.24-1.44-3.31-2.18-6.13-2.18c-3.27,0-3.91,0.27-3.95,0.29c-0.09,0.05-0.22,0-0.26-0.09  c-0.49-1.04-1.41-2.52-1.9-2.52c-0.82,0.13-1.23,0.4-1.24,0.8c-0.02,0.18-0.13,0.29-0.31,0.29c-0.59,0-1.96-1.39-2.67-3.47  c-0.86-2.51-1.23-6.14-1.24-6.18c0-0.05,0.02-0.11,0.04-0.15c0.04-0.04,0.09-0.05,0.13-0.07c0,0,1.37-0.05,1.61-0.02  c0.11,0.02,0.24,0.07,0.37,0.13c0.16,0.07,0.35,0.15,0.57,0.16c0.2,0.02,0.29,0,0.4,0c0.13-0.02,0.27-0.02,0.6-0.02h1.21  c0.31,0,0.46-0.02,0.51-0.02c0.04-0.07,0.13-0.13,0.33-0.13c0.11,0,0.22,0.02,0.29,0.05c0.04,0.02,0.07,0.04,0.09,0.04  c0.07,0.04,0.16,0.09,0.64,0.09c0.22,0,0.4,0,0.53-0.02c0.26-0.02,0.4-0.04,0.62,0.05c0.13,0.05,0.18,0.11,0.24,0.15  c0.04,0.04,0.04,0.04,0.15,0.05c0.18,0.02,0.33,0.05,0.46,0.09c0.05,0.02,0.11,0.02,0.13,0.04c0.13,0,0.9,0.22,1.06,0.33  c0.09,0.07,0.73,0.38,0.88,0.38l0.05-0.02c0.11-0.02,0.24-0.05,0.38-0.05c0.18,0,0.33,0.05,0.42,0.16c0.26,0.26,1.12,0.91,1.35,0.91  c0.4,0,0.97,0.35,1.13,0.51c0.09,0.09,0.4,0.24,0.73,0.24c0.38,0,0.69,0.13,0.82,0.26c0.13,0.13,1.34,0.95,1.85,0.97  c0.15,0,1.44,0.07,1.81,0.38c0.04,0.04,0.07,0.07,0.11,0.11c0.15,0.15,0.24,0.24,0.69,0.31c0.22,0.04,0.4,0.02,0.57,0  c0.29-0.02,0.57-0.05,0.99,0.18c0.15,0.07,0.49,0.18,1.35,0.18c0.31,0,0.62-0.02,0.84-0.02c0.15,0,0.27-0.02,0.37-0.02  c0.38,0,0.55-0.09,0.59-0.15c0.13-0.18,0.46-0.18,1.04-0.18c0.27,0,0.59-0.16,0.59-0.48c-0.11-0.42-4.28-5.58-5.61-6.71  c-0.53-0.46-0.97-0.77-1.32-1.02c-0.51-0.38-0.82-0.6-0.97-0.9c-0.07-0.16-0.48-0.71-0.95-1.35c-0.68-0.91-1.5-2.07-2.05-2.98  c-0.11-0.18-0.26-0.46-0.44-0.79c-1.32-2.41-4.81-8.8-9.18-8.85h-0.09c-1.52,0-2.62,0.4-3.24,1.19c-0.9,1.13-0.51,2.71-0.51,2.72  c0.44,1.77,1.13,4.83,1.02,5.14c-0.07,0.18-0.42,0.44-1.74,1.3c-0.88,0.57-1.87,1.23-2.16,1.55c-0.62,0.68-0.86,0.93-0.86,0.93  c-0.05,0.05-0.11,0.07-0.18,0.05c-0.2-0.05-2.05-0.49-2.6-1.15c-0.05-0.07-0.13-0.16-0.22-0.26c-0.59-0.68-1.46-1.7-1.04-2.69  l0.13-0.27c0.6-1.39,2.21-5.07,2.21-7.19c0-0.99-0.27-5.96-5.67-5.96c-5.1,0-5.87,4.44-5.87,7.1c0,3.4,1.23,3.84,1.24,3.86  c0.05,0.02,0.09,0.05,0.11,0.11c0.04,0.07,0.88,1.96,0.9,2.71c0.04,0.71-0.02,1.7-0.04,1.74c0,0.09-0.07,0.16-0.15,0.18  S57.37,69.2,56,69.2c-1.08,0-2.62-0.11-3.4-0.97c-0.38-0.42-0.55-0.99-0.48-1.66c0.18-1.79,0.33-2.29,0.38-2.41  c0.04-0.15,0.55-2.1-0.37-3.62c-0.53-0.88-1.43-1.46-2.69-1.74c-0.04-0.02-0.11-0.04-0.26-0.04c-0.64,0-3.13,0.53-7.83,7.39  c-1.23,1.77-2.1,3.07-2.74,4.02c-1.87,2.74-1.87,2.74-2.67,3.49c-0.35,0.33-0.9,0.82-1.83,1.79c-1.63,1.68-3.44,3.4-5.03,4.92  c-1.74,1.65-3.53,3.36-3.62,3.68c-0.04,0.22-0.02,0.37,0.07,0.48c0.07,0.11,0.26,0.16,0.51,0.2c0.4,0.04,0.51,0.07,0.69,0.15  c0.09,0.04,0.18,0.07,0.37,0.11c0.38,0.11,0.69,0.15,0.82,0.11c0.16-0.04,2.47-0.91,2.87-1.19c0.44-0.33,1.34-0.69,1.83-0.69h0.05  c0.29,0.02,0.53-0.07,0.71-0.13c0.05-0.02,0.11-0.04,0.16-0.05c0.07-0.02,0.49-0.27,0.82-0.46c0.99-0.59,1.37-0.79,1.54-0.8  c0.26-0.04,1.23-0.27,1.35-0.35c0.16-0.16,1.35-0.48,1.77-0.49c0.4-0.02,0.84-0.26,0.91-0.31c0.02-0.02,0.04-0.04,0.05-0.07  c0.4-0.46,0.99-1.08,1.48-1.13c0.48-0.05,0.95-0.38,1.06-0.55c0.18-0.26,1.98-1.55,2.85-1.65c0.84-0.09,3.46-0.26,4.08-0.26  c0.66,0,1.94-0.22,2.1-0.35c0.04-0.04,0.11-0.15,0.18-0.26c0.29-0.42,0.79-1.13,1.54-1.13c0.24,0,0.48,0.02,0.75,0.02  c1.85,0.02,2.29,0.07,2.4,0.27c0.04,0.05,0.07,0.18,0.13,0.33c0.13,0.35,0.4,1.08,0.66,1.19c0.13,0.05,0.29,0.11,0.48,0.18  c0.64,0.22,1.04,0.38,1.08,0.66c0.02,0.09,0.04,0.38-1.23,0.99c-0.04,0.02-0.07,0.02-0.09,0.02c0,0-0.2-0.02-0.48-0.02  c-0.53,0-1.77,0.07-2.01,0.75c-0.18,0.48-0.29,1.24-0.4,1.98c-0.13,0.93-0.27,1.81-0.53,2.29L54,84c-0.44,0.79-0.59,1.01-1.61,1.06  c-0.05,0.02-0.13-0.04-0.16-0.09c-0.02-0.02-0.42-0.6-1.21-0.6c-1.3,0-2.14,0.97-2.8,1.76c-0.49,0.57-0.88,1.02-1.35,1.02  C46.84,87.01,46.49,87,45.88,87z"></path>
<path class="st0" d="M69.46,71.36c0,0,1.01-1.26,1.34-1.63"></path>
<path d="M69.46,71.54c-0.04,0-0.09-0.02-0.11-0.04c-0.07-0.07-0.09-0.18-0.04-0.27c0.04-0.05,1.01-1.26,1.35-1.65  c0.07-0.07,0.2-0.07,0.27-0.02c0.07,0.07,0.07,0.18,0.02,0.27c-0.33,0.37-1.32,1.61-1.34,1.61C69.57,71.52,69.51,71.54,69.46,71.54z  "></path>
<path class="st5" d="M62.82,66.92c0,0-0.2-3.38,0.49-4.43c0.69-1.06,2.03-2.71,1.92-4.75c-0.09-2.05-1.5-2.67-3.13-2.3  c-1.63,0.38-1.63,0.97-1.83,1.77c-0.05,1.48,2.63,3.88,2.21,5.27C62.05,63.83,62.82,66.92,62.82,66.92L62.82,66.92z"></path>
<path d="M62.62,66.95c-0.04-0.13-0.75-3.15-0.33-4.55c0.2-0.66-0.44-1.66-1.06-2.63c-0.6-0.95-1.17-1.83-1.15-2.58l0.05-0.24  c0.16-0.73,0.31-1.35,1.92-1.72c0.31-0.07,0.6-0.11,0.9-0.11c1.48,0,2.4,0.95,2.47,2.58c0.09,1.88-0.99,3.46-1.7,4.5  c-0.09,0.13-0.18,0.26-0.26,0.37c-0.66,0.99-0.48,4.28-0.48,4.32L62.62,66.95z M62.97,55.5c-0.26,0-0.53,0.04-0.8,0.09  c-1.37,0.31-1.48,0.77-1.65,1.44l-0.05,0.2c-0.02,0.59,0.55,1.46,1.1,2.32c0.69,1.1,1.35,2.12,1.12,2.94  c-0.16,0.57-0.15,1.43-0.04,2.25c0.05-0.91,0.2-1.88,0.53-2.4c0.07-0.11,0.16-0.24,0.26-0.37c0.73-1.06,1.72-2.51,1.65-4.26  C64.98,56.29,64.25,55.5,62.97,55.5z"></path>
<path d="M59.95,61.92c0,0.46-0.37,0.82-0.82,0.82c-0.46,0-0.82-0.37-0.82-0.82c0-0.46,0.37-0.82,0.82-0.82  C59.58,61.1,59.95,61.47,59.95,61.92L59.95,61.92z"></path>
<path d="M65.49,97.46h-0.02c-0.07,0-0.13-0.05-0.16-0.13c-0.02-0.04-0.2-0.62-0.73-1.17c-0.71-0.13-2.4-0.31-2.96,0.07  c-0.8,0.53-1.28,0.73-1.3,0.75c-0.09,0.04-0.2,0-0.26-0.11c-0.04-0.09,0-0.2,0.11-0.26c0,0,0.48-0.2,1.24-0.71  c0.57-0.38,1.83-0.31,2.63-0.22c-0.48-0.33-1.13-0.59-1.99-0.6c-0.59-0.04-0.68,0.09-0.8,0.27c-0.29,0.38-0.66,0.68-2.43,0.62  c-0.97-0.04-1.57-0.79-1.59-0.8c-0.07-0.07-0.05-0.2,0.04-0.27c0.07-0.07,0.2-0.05,0.27,0.04c0,0,0.53,0.64,1.32,0.68  c1.72,0.07,1.94-0.22,2.1-0.46c0.05-0.07,0.09-0.13,0.16-0.18c-0.35-0.42-1.39-1.7-1.55-2.41c-0.16-0.68-0.62-3.71,0.37-5.05  c0.29-0.4,0.69-0.6,1.17-0.64c0.77-0.09,1.13,0.15,1.3,0.35c0.37-0.29,1.24-1.19,0.53-2.45c-0.27-0.49-0.55-0.9-0.8-1.3  c-0.66-0.99-1.17-1.77-1.17-3c0-0.77,0.33-1.7,1.87-1.7c0.04,0,0.05,0,0.07,0c0.38-0.04,1.13-0.02,1.68,0.49  c0.42,0.38,0.64,0.99,0.62,1.77c-0.02,1.5-0.26,2.34-0.38,2.85c-0.07,0.26-0.11,0.44-0.09,0.55c0.04,0.27,0.62,1.9,1.06,3.09  c0.15-0.18,0.29-0.42,0.31-0.57c0.07-0.49,0.8-0.99,1.21-0.99c0.18,0,0.84,0.13,1.43,0.75c0.33,0.35,0.57,0.79,0.69,1.28  c0.07-0.51,0.24-0.93,0.44-1.23c0.53-0.73,1.74-0.77,2.27-0.73c-0.13-0.53-0.49-1.85-1.28-2.69c-0.49-0.55-1.13-0.82-1.74-1.12  c-0.64-0.29-1.23-0.57-1.63-1.12c-0.29-0.4-0.31-0.88-0.04-1.32c0.42-0.66,1.52-1.19,2.85-0.93c1.96,0.38,3.58,4.21,3.66,4.37  c0.04,0.09,0,0.2-0.11,0.26c-0.09,0.04-0.2,0-0.26-0.11c-0.02-0.04-1.61-3.8-3.38-4.15c-1.15-0.22-2.12,0.22-2.47,0.77  c-0.13,0.22-0.24,0.53,0.02,0.88c0.35,0.46,0.9,0.71,1.48,0.99c0.6,0.27,1.3,0.6,1.85,1.19c1.08,1.17,1.41,3.05,1.43,3.13  c0.02,0.05,0,0.13-0.05,0.16c-0.04,0.04-0.09,0.07-0.16,0.05c-0.02,0-1.61-0.2-2.18,0.55c-0.55,0.75-0.79,2.71,0.97,4.77  c1.77,2.08,2.16,2.29,2.94,2.16c0.33-0.05,0.68-0.07,1.01-0.09c-0.16-0.16-0.38-0.42-0.64-0.71c-0.04,0.11-0.13,0.18-0.24,0.22  c-0.09,0.04-0.2,0-0.26-0.09c-0.04-0.09,0-0.2,0.09-0.26c0.04-0.02,0.04-0.04,0.04-0.04c0.02-0.07-0.02-0.2-0.04-0.26  c0-0.02-0.02-0.02-0.02-0.04c-0.27-0.33-0.59-0.68-0.86-1.01c-0.05,0.73-0.2,0.79-0.27,0.82c-0.11,0.04-0.2-0.02-0.24-0.13  c-0.02-0.07,0-0.16,0.07-0.2c0.04-0.11,0.09-0.49,0.09-0.86c0-0.02,0-0.04,0.02-0.07c-0.11-0.13-0.2-0.26-0.29-0.38  c-0.02,0.69-0.11,0.79-0.16,0.82c-0.09,0.07-0.2,0.04-0.27-0.04c-0.05-0.07-0.05-0.16,0-0.24c0.04-0.13,0.05-0.64,0.04-1.1  c-0.09-0.15-0.16-0.27-0.18-0.38l-0.26-0.79c-0.04-0.11,0.02-0.2,0.13-0.24c0.11-0.04,0.2,0.02,0.24,0.13l0.26,0.79  c0.02,0.07,0.07,0.16,0.13,0.27c0.04,0.02,0.05,0.07,0.07,0.11c0.6,0.93,2.32,2.85,3.05,3.64c0,0,0,0,0,0.02  c0.38,0,0.73,0,0.97-0.02c0.24-0.02,0.6-0.33,0.99-0.66c0.33-0.29,0.71-0.62,1.15-0.88c0.27-0.16,0.46-0.31,0.59-0.42  c0.11-0.09,0.22-0.16,0.31-0.24c-0.13-0.05-0.26-0.11-0.37-0.18c-0.05,0.07-0.11,0.15-0.18,0.18c-0.09,0.05-0.2,0-0.26-0.09  s0-0.2,0.09-0.26c0,0,0-0.02,0.02-0.02c-0.22-0.15-0.46-0.29-0.66-0.44c-0.02,0.26-0.07,0.53-0.26,0.62c-0.09,0.05-0.2,0-0.26-0.09  c-0.05-0.09-0.02-0.2,0.09-0.26c0.04-0.05,0.05-0.33,0.04-0.59c-0.11-0.09-0.22-0.18-0.33-0.27c0,0.13-0.04,0.26-0.13,0.33  c-0.07,0.07-0.2,0.05-0.27-0.02c-0.07-0.07-0.05-0.2,0.02-0.27c0-0.02-0.02-0.22-0.05-0.37c0-0.02,0-0.04,0-0.04  c-0.26-0.24-0.4-0.4-0.42-0.42c-0.07-0.07-0.07-0.2,0.02-0.27c0.07-0.07,0.2-0.07,0.27,0.02c0.02,0.02,1.87,1.99,3.4,2.29  c0.11,0,0.26,0,0.4,0.02c0.77,0.05,1.7,0.09,2.29,0.11c-0.88-0.69-2.76-2.38-3.8-4.57c-0.04-0.09,0-0.2,0.09-0.26  c0.09-0.04,0.2,0,0.26,0.09c1.3,2.78,4.11,4.77,4.13,4.79c0.07,0.05,0.09,0.13,0.07,0.22c-0.02,0.07-0.09,0.13-0.18,0.13l0,0  c-0.02,0-1.65-0.04-2.89-0.11c-0.02,0-0.05,0-0.07,0c-0.04,0.02-0.05,0.02-0.09,0.02c-0.09,0-0.16-0.02-0.26-0.04  c-0.44,0-0.55,0.09-0.8,0.31c-0.15,0.13-0.33,0.27-0.64,0.46c-0.4,0.26-0.77,0.57-1.1,0.84c-0.48,0.42-0.86,0.73-1.23,0.75  c-0.53,0.04-1.57-0.02-2.43,0.11c-0.24,0.04-0.44,0.04-0.62,0.02c-0.02,0.02-0.05,0.02-0.09,0.02s-3.46-0.29-5.1,0.6  s-2.6,2.43-2.62,2.45C65.62,97.42,65.56,97.46,65.49,97.46z M64.89,95.94c0.31,0.35,0.51,0.69,0.64,0.93  c0.37-0.51,1.24-1.57,2.56-2.3c0.15-0.07,0.29-0.15,0.44-0.2c0.07-0.42,0.44-2.65,0.59-5.05c0.05-1.02-0.18-1.83-0.71-2.38  c-0.46-0.48-1.01-0.62-1.15-0.62c-0.26,0-0.8,0.38-0.84,0.66c-0.05,0.42-0.55,0.97-0.6,1.02c-0.04,0.05-0.11,0.05-0.18,0.05  c-0.07-0.02-0.11-0.05-0.15-0.13c-0.11-0.31-1.13-3.04-1.19-3.47c-0.04-0.2,0.02-0.4,0.11-0.71c0.15-0.51,0.35-1.3,0.37-2.74  c0.02-0.68-0.16-1.17-0.49-1.5c-0.44-0.4-1.06-0.42-1.37-0.38c-0.04,0-0.05,0-0.11,0c-0.64,0-1.5,0.15-1.5,1.32  c0,1.12,0.46,1.81,1.12,2.78c0.26,0.38,0.55,0.82,0.82,1.32c1.04,1.87-0.79,3.05-0.8,3.07c-0.05,0.04-0.11,0.04-0.16,0.02  c-0.05-0.02-0.09-0.07-0.11-0.13c0-0.02-0.16-0.38-1.02-0.29c-0.38,0.02-0.68,0.18-0.9,0.48c-0.91,1.23-0.44,4.19-0.29,4.74  c0.15,0.59,1.1,1.81,1.52,2.32c0.15-0.04,0.35-0.07,0.62-0.05c1.26,0.04,2.12,0.55,2.69,1.1C64.83,95.81,64.89,95.87,64.89,95.94z   M69.48,89.54c-0.13,2.07-0.42,3.99-0.53,4.7c1.23-0.37,2.74-0.38,3.66-0.35c-0.46-0.35-1.01-0.95-1.81-1.9  C70.08,91.15,69.68,90.31,69.48,89.54z M51.41,95.3c-0.73,0-1.08-0.53-1.1-0.55c-0.02-0.02-0.02-0.04-0.02-0.05  c-0.02-0.05-0.29-1.21-2.56-1.21c-2.1,0-2.27-0.27-2.54-1.28c-0.05-0.18-0.11-0.4-0.2-0.64c-0.37-1.02-2.49-0.55-3.27-0.27  c-0.09,0.04-0.2-0.02-0.24-0.09c-0.04-0.09,0-0.2,0.07-0.24c0.02,0,1.1-0.66,1.79-1.01c0.55-0.29,2.56-2.32,3.29-3.07  c0.07-0.07,0.2-0.07,0.27,0c0.07,0.07,0.07,0.2,0,0.27c-0.09,0.09-1.79,1.87-2.82,2.72c0.97-0.02,2.52-0.09,2.93-0.33  c0.09-0.05,0.2-0.02,0.26,0.07c0.05,0.09,0.02,0.2-0.07,0.26c-0.66,0.4-3.2,0.4-3.62,0.38c-0.02,0.02-0.05,0.04-0.07,0.04  c-0.18,0.09-0.42,0.22-0.64,0.35c0.95-0.15,2.12-0.11,2.45,0.82c0.09,0.26,0.15,0.48,0.2,0.66c0.13,0.46,0.2,0.71,0.53,0.84  c0.16-0.13,0.6-0.49,0.99-0.77c0.37-0.26,0.71-0.53,1.04-0.82c-0.11-0.15-0.46-0.38-0.79-0.59c-0.09-0.05-0.13-0.16-0.07-0.26  s0.16-0.11,0.26-0.07c0.26,0.15,0.66,0.42,0.88,0.66c2.74-2.63,3.88-6.25,3.9-6.29c0.04-0.09,0.13-0.15,0.24-0.13  c0.09,0.04,0.16,0.13,0.13,0.24c-0.02,0.04-1.21,3.86-4.11,6.58c-0.02,0.04-0.02,0.05-0.05,0.09c-0.04,0.04-0.07,0.05-0.11,0.07  c-0.33,0.29-0.68,0.59-1.06,0.84c-0.24,0.18-0.53,0.4-0.73,0.57c0.29,0.04,0.66,0.05,1.19,0.05c1.9,0,2.58,0.79,2.82,1.23  c0.09-0.31,0.29-0.79,0.66-1.48c0.05-0.09,0.16-0.13,0.26-0.07c0.09,0.05,0.13,0.16,0.07,0.26c-0.35,0.68-0.71,1.52-0.69,1.72  c0.02,0.02,0.02,0.04,0.02,0.04c0.16,0.11,0.42,0.2,0.77,0.15c-0.09-0.37,0.27-1.01,0.44-1.28c0.05-0.09,0.18-0.11,0.26-0.05  c0.09,0.05,0.11,0.16,0.05,0.26c-0.24,0.38-0.42,0.84-0.4,0.97c0,0,0.02,0,0.04,0s0.04,0,0.04,0c0.27-0.09,0.55-0.22,0.79-0.35  c0.35-0.16,0.62-0.29,0.82-0.29c0.11,0,0.18,0.09,0.18,0.18c0,0.11-0.09,0.18-0.18,0.18c-0.13,0-0.38,0.13-0.66,0.26  c-0.38,0.18-0.86,0.4-1.32,0.49C51.59,95.3,51.5,95.3,51.41,95.3z M56.66,94.95c-0.31,0-0.59-0.24-0.75-0.37  c-0.04-0.04-0.07-0.05-0.09-0.07c-0.07-0.04-0.38-0.13-0.57-0.16c-0.11-0.02-0.16-0.13-0.15-0.24c0.02-0.11,0.13-0.16,0.24-0.15  c0.09,0.02,0.51,0.13,0.66,0.2c0.04,0.02,0.09,0.05,0.16,0.11c0.13,0.09,0.33,0.27,0.51,0.27h0.02c0.04,0,0.09-0.02,0.16-0.09  c0.13-0.16,0.13-0.55,0.11-0.97c-0.02-0.55-0.04-1.19,0.27-1.66c0.53-0.82,1.68-3.26,1.35-4.08c-0.05-0.13-0.13-0.2-0.27-0.24  c-1.19-0.29-1.65-0.11-1.65-0.11c-0.05,0.02-0.11,0.02-0.16,0c-0.05-0.04-0.09-0.07-0.09-0.13c-0.11-0.6-0.62-3.62-0.05-4.3  c0.2-0.26,0.55-0.49,0.91-0.77c0.55-0.4,1.24-0.9,1.23-1.3c0-0.11,0-0.24,0-0.37c0-0.97-0.07-1.72-0.99-1.77  c-0.11,0-0.18-0.09-0.18-0.2c0-0.11,0.09-0.18,0.2-0.18c1.35,0.07,1.35,1.37,1.34,2.16c0,0.13,0,0.26,0,0.35  c0.02,0.6-0.69,1.12-1.37,1.61c-0.35,0.26-0.68,0.49-0.86,0.71c-0.33,0.4-0.13,2.45,0.11,3.79c0.27-0.05,0.8-0.07,1.68,0.15  c0.26,0.05,0.44,0.22,0.53,0.48c0.46,1.13-1.06,3.93-1.39,4.43c-0.24,0.38-0.22,0.95-0.22,1.46c0.02,0.49,0.02,0.93-0.18,1.21  c-0.11,0.15-0.26,0.22-0.42,0.24C56.69,94.95,56.67,94.95,56.66,94.95z M66.61,94.44c-0.04,0-0.07-0.02-0.11-0.04  c-0.09-0.05-0.11-0.18-0.05-0.26c0.35-0.51,0.42-1.55,0.4-2.29c-0.16,0.27-0.35,0.46-0.37,0.48c-0.07,0.07-0.2,0.07-0.27,0  c-0.07-0.07-0.07-0.2,0-0.27c0,0,0.46-0.44,0.49-0.99c0-0.07,0.02-0.22,0.16-0.26c0.07-0.02,0.16,0.02,0.22,0.07  c0.15,0.22,0.31,2.52-0.35,3.46C66.71,94.4,66.66,94.44,66.61,94.44z M62.56,93.45c-0.07,0-0.16-0.05-0.18-0.13  c-0.29-0.97-0.69-2.08-0.84-2.21c-0.07-0.07-0.07-0.18-0.02-0.27c0.07-0.07,0.18-0.09,0.26-0.02c0.27,0.24,0.8,1.9,0.95,2.4  c0.04,0.09-0.02,0.2-0.13,0.24C62.6,93.45,62.58,93.45,62.56,93.45z M66.02,91.5c-0.05,0-0.11-0.02-0.15-0.07  c-0.07-0.07-0.05-0.2,0.02-0.27c0,0,0.59-0.51,0.57-1.04c0-0.11,0.07-0.2,0.18-0.2c0,0,0,0,0.02,0c0.11,0,0.18,0.07,0.18,0.18  c0.04,0.73-0.66,1.34-0.69,1.35C66.11,91.48,66.07,91.5,66.02,91.5z M26.68,85.22h-0.02c-0.11-0.02-0.18-0.11-0.16-0.22  c0.02-0.11,0.11-0.18,0.22-0.16c0.64-0.11,6.6-5.72,10.19-9.24c0.07-0.07,0.2-0.07,0.27,0c0.07,0.07,0.07,0.2,0,0.27  C34.31,78.69,27.54,85.22,26.68,85.22z M30.5,84.36c-0.07,0-0.15-0.04-0.18-0.11c-0.04-0.09,0-0.2,0.11-0.26  c2.16-0.88,7.79-7.53,7.85-7.61c0.07-0.07,0.18-0.09,0.27-0.02c0.07,0.07,0.09,0.18,0.02,0.27c-0.24,0.27-5.74,6.8-7.99,7.72  C30.56,84.36,30.52,84.36,30.5,84.36z M34.73,82.64c-0.07,0-0.15-0.05-0.18-0.13c-0.04-0.09,0.02-0.2,0.11-0.24  c1.81-0.62,5.3-5.6,5.34-5.65c0.05-0.09,0.18-0.11,0.26-0.05c0.09,0.05,0.11,0.18,0.05,0.26c-0.15,0.2-3.6,5.12-5.52,5.8  C34.78,82.64,34.75,82.64,34.73,82.64z M38.26,81.33c-0.07,0-0.15-0.04-0.16-0.11c-0.05-0.09,0-0.2,0.09-0.26  c0.84-0.4,3.2-3.6,4.04-4.79c0.05-0.09,0.18-0.11,0.26-0.05c0.09,0.05,0.11,0.18,0.05,0.26c-0.13,0.18-3.11,4.39-4.19,4.92  C38.31,81.33,38.28,81.33,38.26,81.33z M97.02,81.16c-0.05,0-0.09-0.02-0.13-0.05c-0.02-0.02-1.44-1.48-3.18-2.69  c-1.79-1.24-3.38-3.73-3.46-3.82c-0.05-0.09-0.04-0.2,0.05-0.26s0.2-0.04,0.26,0.05c0.02,0.02,1.63,2.52,3.35,3.71  c1.77,1.23,3.22,2.72,3.24,2.74c0.07,0.07,0.07,0.2,0,0.27C97.11,81.14,97.05,81.16,97.02,81.16z M93.1,81.16  c-0.02,0-0.04,0-0.07-0.02c-1.23-0.44-5.45-7.85-5.94-8.69c-0.05-0.09-0.02-0.2,0.07-0.26s0.2-0.02,0.26,0.07  c1.85,3.26,4.9,8.23,5.72,8.52c0.09,0.04,0.15,0.15,0.11,0.24C93.25,81.11,93.18,81.16,93.1,81.16z M90.62,80.5  c-0.04,0-0.07-0.02-0.11-0.04c-1.01-0.66-4.17-6.68-4.52-7.37c-0.05-0.09-0.02-0.2,0.07-0.26c0.09-0.05,0.2-0.02,0.26,0.07  c0.95,1.83,3.6,6.71,4.39,7.22c0.09,0.05,0.11,0.18,0.05,0.26C90.73,80.47,90.67,80.5,90.62,80.5z M72.66,79.79  c-0.05,0-0.13-0.04-0.16-0.09c-0.02-0.02-1.3-2.01-2.51-2.51c-0.09-0.04-0.15-0.15-0.11-0.26c0.04-0.09,0.15-0.15,0.26-0.11  c1.34,0.53,2.63,2.56,2.69,2.65c0.05,0.09,0.04,0.2-0.05,0.26C72.73,79.77,72.69,79.79,72.66,79.79z M87.78,79.55  c-0.04,0-0.07-0.02-0.11-0.04c-1.61-1.02-3.46-5.87-3.53-6.07c-0.04-0.09,0.02-0.2,0.11-0.24c0.09-0.04,0.2,0.02,0.24,0.11  c0.02,0.05,1.88,4.92,3.38,5.89c0.09,0.05,0.11,0.16,0.05,0.26C87.91,79.53,87.84,79.55,87.78,79.55z M85.7,78.64  c-0.04,0-0.07-0.02-0.11-0.04c-1.3-0.95-2.65-5.45-2.71-5.65c-0.04-0.09,0.04-0.2,0.13-0.24c0.09-0.04,0.2,0.02,0.24,0.13  c0.02,0.04,1.37,4.57,2.56,5.45c0.09,0.05,0.11,0.18,0.04,0.27C85.81,78.62,85.75,78.64,85.7,78.64z M43.34,78.53  c-0.05,0-0.11-0.02-0.15-0.07c-0.07-0.07-0.05-0.2,0.02-0.27c0.22-0.18,0.93-1.46,1.32-2.23c0.05-0.09,0.16-0.13,0.26-0.07  c0.09,0.05,0.13,0.16,0.07,0.26c-0.11,0.2-1.06,2.05-1.43,2.34C43.43,78.51,43.38,78.53,43.34,78.53z M64.58,78.11  c-0.16,0-0.22-0.2-0.26-0.35c-0.18-0.77-0.75-1.41-1.17-1.87c-0.22-0.24-0.38-0.44-0.48-0.6c-0.13-0.26-0.86-1.15-1.52-1.94  c-0.46-0.55-0.91-1.12-1.21-1.5c-0.73-0.97-1.02-3.16-1.04-3.27c-0.02-0.11,0.05-0.2,0.16-0.22c0.11-0.02,0.2,0.05,0.22,0.16  c0,0.02,0.29,2.19,0.97,3.09c0.27,0.37,0.75,0.93,1.19,1.48c0.18,0.22,0.35,0.42,0.51,0.62c-0.02-0.35-0.04-0.46-0.05-0.55  c-0.02-0.05-0.02-0.13-0.02-0.24c0-0.49-0.62-2.91-0.84-3.57c-0.24-0.68-0.59-3.18-0.66-4.02l0,0c-0.05-0.46-1.3-0.82-2.16-0.95  c-0.11-0.02-0.18-0.11-0.16-0.22c0.02-0.11,0.11-0.16,0.22-0.16c0.33,0.05,1.83,0.29,2.32,0.91c0.22-0.33,0.57-0.8,0.71-0.91  c0.15-0.11,1.12-1.06,1.06-2.18c-0.04-0.59-0.66-1.54-1.21-2.36c-0.53-0.8-1.04-1.57-1.1-2.1c-0.04-0.35,0.07-0.91,0.51-1.39  c0.37-0.4,1.12-0.88,2.54-0.86c1.76,0.04,2.36,1.5,2.34,2.72c-0.04,2.56-1.61,4.21-1.68,4.28l0,0c0,0-0.71,0.86-0.71,2.21  c0,1.35-0.04,2.29-0.04,2.29c0,0.04-0.02,0.07-0.04,0.09c0.07,0.37,0.16,0.77,0.27,1.23c0.15,0.69,0.33,1.5,0.53,2.43  c0.44,2.1,0.71,4.08,0.82,5.08c0.31,2.54,0.18,2.58,0.02,2.62C64.59,78.11,64.58,78.11,64.58,78.11z M62.34,74.19  c0.33,0.42,0.59,0.75,0.66,0.91c0.05,0.13,0.24,0.31,0.42,0.53c0.29,0.33,0.66,0.73,0.93,1.23c-0.11-1.35-0.44-3.9-0.97-6.36  c-0.2-0.93-0.38-1.74-0.53-2.43c-0.49-2.25-0.75-3.4-0.68-4.46c-0.27,0.4-0.57,0.68-0.68,0.75c-0.09,0.07-0.48,0.59-0.77,1.04  c0.11,0.91,0.44,3.27,0.64,3.86c0.22,0.6,0.88,3.13,0.88,3.69c0,0.07,0,0.11,0.02,0.16C62.31,73.23,62.34,73.41,62.34,74.19  L62.34,74.19z M62.64,62.69c0,0.16-0.02,0.44-0.05,0.91c-0.04,0.44,0,0.9,0.07,1.44c0-0.22,0-0.46,0-0.69c0-1.5,0.79-2.43,0.82-2.47  c0.02-0.02,1.55-1.61,1.59-4.02c0.02-1.12-0.49-2.32-1.98-2.34c-1.02-0.04-1.79,0.22-2.25,0.73c-0.35,0.38-0.44,0.82-0.4,1.08  c0.05,0.44,0.55,1.21,1.04,1.94c0.6,0.91,1.24,1.87,1.28,2.56C62.76,62.14,62.71,62.42,62.64,62.69z M83.43,77.38  c-0.04,0-0.07-0.02-0.11-0.04c-0.8-0.62-1.55-4.11-1.65-4.52c-0.02-0.11,0.04-0.2,0.15-0.22c0.11-0.02,0.2,0.04,0.22,0.15  c0.22,1.04,0.91,3.84,1.5,4.3c0.07,0.07,0.09,0.18,0.04,0.27C83.54,77.36,83.48,77.38,83.43,77.38z M72.16,77.19  c-0.04,0-0.09-0.02-0.11-0.04c-1.19-0.95-2.54-2.01-2.72-2.08c-0.11-0.04-0.15-0.13-0.13-0.24c0.04-0.09,0.15-0.15,0.24-0.13  c0.2,0.05,1.87,1.37,2.83,2.16c0.07,0.07,0.09,0.18,0.04,0.27C72.27,77.16,72.22,77.19,72.16,77.19z M81.25,76.74  c-0.04,0-0.05,0-0.09-0.02c-0.93-0.46-1.66-4.92-1.79-5.8c-0.02-0.11,0.05-0.2,0.16-0.22c0.13-0.02,0.2,0.05,0.22,0.16  c0.31,1.99,1.01,5.23,1.59,5.52c0.09,0.04,0.13,0.16,0.09,0.26C81.4,76.68,81.33,76.74,81.25,76.74z M79.74,76.33  c-0.02,0-0.05,0-0.07-0.02c-1.23-0.51-2.3-5.3-2.43-5.85c-0.02-0.11,0.04-0.2,0.15-0.22s0.2,0.04,0.22,0.15  c0.46,2.07,1.41,5.25,2.19,5.58c0.09,0.04,0.15,0.15,0.11,0.26C79.88,76.28,79.81,76.33,79.74,76.33z M78.42,76.3H78.4  c-1.1-0.15-1.87-2.21-2.32-3.44l-0.05-0.13c-0.44-1.17-0.37-3.09-0.35-3.16c0-0.11,0.09-0.16,0.2-0.18c0.11,0,0.18,0.09,0.18,0.2  c0,0.02-0.07,1.92,0.33,3.02l0.05,0.13c0.4,1.08,1.15,3.07,2.03,3.2c0.11,0.02,0.18,0.11,0.16,0.22  C78.6,76.22,78.53,76.3,78.42,76.3z M74.56,76.3L74.56,76.3c-0.44,0-1.02-0.69-1.02-0.69c-0.04-0.04-0.05-0.07-0.09-0.11  c-0.07-0.11-0.16-0.24-0.4-0.44c-0.38-0.33-0.46-1.61-0.48-1.85c0-0.11,0.07-0.2,0.18-0.2c0.11-0.02,0.2,0.07,0.2,0.18  c0.02,0.64,0.16,1.43,0.33,1.57c0.27,0.24,0.38,0.38,0.48,0.51c0.02,0.04,0.04,0.05,0.07,0.09c0.15,0.18,0.57,0.55,0.73,0.55  c0.11,0,0.18,0.09,0.18,0.18C74.76,76.21,74.67,76.3,74.56,76.3z M76.33,76.26c-0.2,0-0.38-0.09-0.57-0.24c0,0.02,0,0.04,0,0.07  c-0.02,0.11-0.11,0.18-0.22,0.16c-0.84-0.13-1.06-0.55-1.23-0.86c-0.04-0.07-0.07-0.15-0.13-0.2c-0.26-0.31-0.18-1.59-0.15-2.14  c0-0.11,0.11-0.18,0.2-0.18c0.11,0,0.18,0.09,0.18,0.2c-0.05,0.79-0.04,1.72,0.07,1.87c0.05,0.07,0.11,0.16,0.16,0.27  c0.15,0.27,0.29,0.57,0.93,0.66c-0.29-0.29-0.49-0.66-0.53-0.71c-0.02-0.04-0.02-0.05-0.02-0.09v-1.23c0-0.11,0.09-0.18,0.18-0.18  c0.11,0,0.18,0.09,0.18,0.18v1.19c0.2,0.35,0.6,0.86,0.9,0.86c0.11,0,0.18,0.09,0.18,0.18C76.54,76.19,76.44,76.26,76.33,76.26z   M51.52,76.17c-0.05,0-0.13,0-0.18-0.02c-0.38-0.05-0.59-0.27-0.64-0.33c-0.68,0.31-1.3,0.02-1.43-0.04  c-0.66,0.18-1.37-0.16-1.76-0.46c-0.05,0.04-0.11,0.07-0.15,0.09c-0.82,0.44-1.63-0.48-1.76-0.62c-0.07,0.04-0.15,0.07-0.2,0.09  c-0.37,0.15-0.62,0.05-0.75-0.04c-0.26-0.18-0.37-0.53-0.4-0.79c-0.35,0.16-0.68,0.29-0.88,0.27c-0.42-0.04-0.73-0.44-0.84-0.62  c-0.05,0.04-0.09,0.05-0.13,0.07c-0.75,0.4-1.34-0.11-1.55-0.46c-0.82,0.29-1.63,0.18-1.88,0.13c-0.95,0.44-1.98,0.29-2.25,0.26  c-0.31,0.05-0.6-0.02-0.88-0.2c-0.11-0.02-0.16-0.13-0.15-0.24c0.02-0.11,0.13-0.16,0.24-0.15c0.04,0.02,0.07,0.04,0.13,0.07  c0.16,0.11,0.35,0.16,0.57,0.15c0.04-0.02,0.05-0.02,0.09-0.02c0.44-0.09,0.95-0.46,1.55-1.13c1.66-1.88,5.3-6.88,5.34-6.93  c0.05-0.09,0.18-0.11,0.27-0.04c0.09,0.05,0.11,0.18,0.04,0.26c-0.04,0.05-3.68,5.07-5.36,6.97c-0.37,0.42-0.71,0.73-1.04,0.95  c0.38,0,0.84-0.07,1.3-0.27c0.02-0.02,0.05-0.04,0.09-0.04c0.31-0.16,0.62-0.38,0.86-0.73c1.08-1.5,4.1-5.1,4.13-5.14  c0.07-0.07,0.18-0.09,0.27-0.02c0.07,0.07,0.09,0.18,0.02,0.27c-0.04,0.04-3.04,3.62-4.11,5.1c-0.16,0.24-0.35,0.42-0.55,0.59  c0.38,0.02,0.9,0,1.39-0.22c0.26-0.11,0.48-0.27,0.68-0.46c1.08-1.06,1.59-1.92,1.59-1.94c0.05-0.09,0.16-0.13,0.26-0.07  c0.09,0.05,0.13,0.16,0.07,0.26c-0.02,0.04-0.55,0.91-1.66,2.01c-0.18,0.18-0.38,0.33-0.62,0.46c0.13,0.16,0.49,0.57,1.02,0.27  c0.79-0.42,2.54-2.36,2.69-2.78c0.16-0.48,1.43-2.82,2.12-3.22c0.09-0.05,0.2-0.02,0.26,0.07c0.05,0.09,0.02,0.2-0.07,0.26  c-0.51,0.29-1.76,2.47-1.94,3.02c-0.16,0.48-1.5,1.98-2.41,2.69c0.09,0.15,0.33,0.44,0.57,0.46c0.16,0,0.51-0.13,0.88-0.33  c0.04-0.04,0.07-0.05,0.11-0.05c0.38-0.22,0.77-0.49,0.9-0.69c0.05-0.09,0.18-0.11,0.26-0.05c0.09,0.05,0.11,0.18,0.05,0.26  c-0.15,0.22-0.55,0.53-0.99,0.79c0.02,0.2,0.07,0.55,0.26,0.68c0.04,0.02,0.15,0.09,0.4,0c0.9-0.35,3.35-2.58,3.55-3.22  c0.04-0.09,0.15-0.15,0.24-0.13c0.09,0.04,0.15,0.15,0.13,0.24c-0.22,0.69-2.1,2.43-3.24,3.16c0.18,0.2,0.75,0.77,1.24,0.49  c0.71-0.38,3.11-3.36,3.2-3.66c0-0.11,0.09-0.18,0.18-0.18c0.11,0,0.18,0.09,0.18,0.2c0,0.37-1.94,2.69-2.94,3.62  c0.27,0.18,1.23,0.75,1.87-0.02c0.84-1.02,2.18-3.51,2.18-3.55c0.05-0.09,0.16-0.13,0.26-0.07s0.13,0.16,0.07,0.26  c-0.05,0.11-1.37,2.54-2.23,3.6c-0.07,0.09-0.16,0.18-0.26,0.26c0.37,0.09,1.04,0.09,1.61-0.84c0.91-1.52,1.79-3,1.79-3  c0.05-0.09,0.16-0.11,0.26-0.07c0.09,0.05,0.13,0.16,0.07,0.26c0,0-0.9,1.48-1.81,3c-0.2,0.33-0.4,0.57-0.62,0.71  c0.15,0.13,0.62,0.42,1.55-0.29c0.07-0.05,0.2-0.05,0.27,0.04c0.05,0.09,0.05,0.2-0.04,0.27C52.34,75.99,51.9,76.17,51.52,76.17z   M72.68,75.99c-0.04,0-0.09-0.02-0.13-0.05c-0.48-0.42-2.82-2.58-3.02-3.11l-0.2-0.51c-0.04-0.09,0.02-0.2,0.11-0.24  c0.09-0.04,0.2,0.02,0.24,0.11l0.2,0.51c0.13,0.35,1.87,1.99,2.93,2.96c0.07,0.07,0.09,0.18,0.02,0.27  C72.79,75.97,72.73,75.99,72.68,75.99z M53.02,75.47c-0.04,0-0.07,0-0.09-0.02c-0.09-0.05-0.13-0.16-0.07-0.26l1.35-2.38  c0.05-0.09,0.16-0.13,0.26-0.07c0.09,0.05,0.13,0.16,0.07,0.26l-1.35,2.38C53.16,75.44,53.09,75.47,53.02,75.47z M54.57,75.44  c-0.04,0-0.07,0-0.09-0.02c-0.09-0.05-0.13-0.16-0.07-0.26l0.71-1.23c0.05-0.09,0.16-0.13,0.26-0.07s0.13,0.16,0.07,0.26l-0.71,1.23  C54.7,75.4,54.64,75.44,54.57,75.44z M90.93,72.09c-0.04,0-0.07,0-0.09-0.02c-0.09-0.04-0.6-0.16-1.06-0.27  c-0.69-0.16-1.46-0.35-1.9-0.51c-0.16-0.05-0.31-0.13-0.46-0.22c-0.02,0-0.02,0-0.04,0l-1.59-0.38c-0.02,0-0.05,0-0.09-0.02l0,0l0,0  c-0.15-0.04-0.37-0.09-0.75-0.2c-0.07-0.02-0.16-0.09-0.29-0.2c-0.04-0.02-0.07-0.04-0.09-0.07c-0.04-0.04-0.26-0.26-1.37-0.49  c-0.48-0.09-1.01-0.64-1.5-1.26c-0.05-0.04-0.15-0.04-0.31-0.04s-0.37,0.02-0.66-0.02c-0.84-0.09-1.92-2.07-2.03-2.3  c-0.05-0.09-0.02-0.2,0.07-0.26c0.09-0.05,0.2-0.02,0.26,0.07c0.42,0.79,1.24,2.05,1.74,2.1c0.27,0.04,0.46,0.02,0.6,0.02h0.02  c-0.55-0.77-0.95-1.52-1.04-1.68c-0.05-0.09-0.02-0.2,0.07-0.26s0.2-0.02,0.26,0.07c0.24,0.46,0.75,1.32,1.3,2.01  c0.04,0.04,0.07,0.07,0.11,0.13c0.02,0.02,0.02,0.04,0.04,0.05c0.4,0.49,0.82,0.9,1.15,0.97c0.27,0.05,0.51,0.11,0.71,0.18  c-1.1-1.39-2.72-3.9-3.33-4.85c-0.05-0.09-0.04-0.2,0.05-0.26s0.2-0.04,0.26,0.05c1.7,2.67,3.68,5.5,4.06,5.63  c0.29,0.09,0.48,0.13,0.59,0.16c0.02,0,0.04,0,0.07,0l0.95,0.24c-0.18-0.18-0.31-0.31-0.31-0.33l-4.02-5.72  c-0.05-0.09-0.04-0.2,0.05-0.26s0.2-0.04,0.26,0.05l4.01,5.72l0,0c0,0,0.62,0.73,1.37,0.99c0,0,0,0,0.02,0  c-0.09-0.15-0.18-0.31-0.27-0.49c-0.15-0.27-0.33-0.62-0.6-1.04c-0.82-1.21-3.15-4.24-3.16-4.28c-0.05-0.09-0.05-0.2,0.04-0.27  c0.09-0.05,0.2-0.05,0.27,0.04c0.02,0.04,2.36,3.07,3.18,4.3c0.29,0.44,0.48,0.8,0.64,1.1c0.27,0.51,0.4,0.77,0.84,0.93  c0.02,0,0.02,0,0.04,0.02c0.31,0.07,0.64,0.16,0.93,0.22c0.77,0.18,1.06,0.26,1.17,0.31c0.09,0.05,0.13,0.16,0.07,0.26  C91.06,72.05,90.98,72.09,90.93,72.09z"></path>
<path d="M66.68,102.67c-0.02,0-0.04,0-0.05-0.02c0,0-0.16-0.13-0.77-0.4c-0.6-0.27-1.26-0.13-1.26-0.13  c-0.05,0.02-0.11-0.02-0.11-0.07c-0.02-0.05,0.02-0.11,0.07-0.11c0.04,0,0.71-0.15,1.37,0.15c0.64,0.27,0.8,0.42,0.82,0.42  c0.04,0.04,0.04,0.09,0,0.13C66.73,102.65,66.71,102.67,66.68,102.67z M62.23,102.6c-0.04,0-0.07-0.02-0.09-0.05  c-0.02-0.05,0-0.11,0.04-0.13c0.04-0.02,0.73-0.37,1.08-0.44c0.05-0.02,0.11,0.02,0.11,0.07c0.02,0.05-0.02,0.11-0.07,0.11  c-0.31,0.05-1.02,0.42-1.02,0.42C62.27,102.6,62.25,102.6,62.23,102.6z M57.02,101.3c-0.02,0-0.05,0-0.07-0.04  c-0.04-0.04-0.04-0.09,0-0.13c0.07-0.07,1.68-1.63,3.35-1.46c0.88,0.09,1.52,0.48,2.01,0.79c0.46,0.27,0.8,0.49,1.21,0.44  c0.38-0.05,0.79-0.33,1.21-0.64c0.57-0.4,1.15-0.8,1.83-0.82l0,0c0.05,0,0.09,0.04,0.09,0.09s-0.04,0.09-0.09,0.09  c-0.6,0-1.17,0.4-1.72,0.79c-0.44,0.31-0.86,0.6-1.28,0.66c-0.46,0.07-0.86-0.18-1.34-0.46c-0.51-0.31-1.1-0.68-1.94-0.75  c-0.07,0-0.15-0.02-0.24-0.02c-1.5,0-2.96,1.41-2.96,1.43C57.06,101.28,57.04,101.3,57.02,101.3z M53.71,100.99  c-0.02,0-0.05-0.02-0.07-0.04l-0.6-0.64c-0.04-0.04-0.04-0.09,0-0.13c0.04-0.04,0.09-0.04,0.13,0l0.6,0.64  c0.04,0.04,0.04,0.09,0,0.13C53.75,100.97,53.73,100.99,53.71,100.99z M70.06,99.8L70.06,99.8c-0.16-0.02-0.57-0.04-0.66-0.07  c-0.05-0.02-0.07-0.07-0.05-0.13c0.02-0.05,0.07-0.07,0.13-0.05l0,0c0.05,0.02,0.35,0.04,0.6,0.05c0.05,0,0.09,0.05,0.09,0.09  C70.15,99.76,70.12,99.8,70.06,99.8z M69.24,99.63L69.24,99.63l-0.6-0.04c-0.05,0-0.09-0.05-0.09-0.09c0-0.05,0.04-0.09,0.09-0.09  l0,0l0.59,0.04c0.05,0,0.09,0.05,0.09,0.09C69.33,99.6,69.29,99.63,69.24,99.63z M75.18,99.58c-0.02,0-0.05-0.02-0.07-0.04  c-0.04-0.04-0.04-0.09,0-0.13c0.04-0.04,3.42-3.24,6.86-4.17c2.25-0.6,3.6-0.79,3.71-0.49c0.02,0.04,0,0.09-0.04,0.11  c-0.02,0.02-1.79,1.34-1.65,2.34c0,0.05-0.04,0.09-0.07,0.11h-0.02c-0.05,0-0.09-0.04-0.09-0.07c-0.15-0.97,1.15-2.08,1.57-2.43  c-0.2-0.02-0.73-0.02-2.05,0.29c0,0-0.02,0-0.02,0.02c-1.54,0.4-2.41,3.62-2.41,3.66c-0.02,0.05-0.07,0.07-0.11,0.07  c-0.05-0.02-0.07-0.07-0.07-0.11c0.04-0.11,0.66-2.47,1.87-3.44c-0.18,0.05-0.37,0.09-0.59,0.15c-0.75,0.2-1.5,0.51-2.19,0.88  c-0.02,0.02-0.02,0.04-0.04,0.04c-0.95,0.46-1.21,2.85-1.21,2.87c0,0.05-0.05,0.09-0.11,0.09c-0.05,0-0.09-0.05-0.09-0.11  c0-0.09,0.18-1.66,0.79-2.54c-2.19,1.26-3.9,2.87-3.93,2.89C75.22,99.58,75.2,99.58,75.18,99.58z M48.12,99.25  c-0.04,0-0.05-0.02-0.07-0.04c0,0-0.09-0.15-0.24-0.35c-0.02,0-0.04-0.02-0.05-0.04c-0.13-0.2-1.26-0.09-2.25,0.15  c-0.05,0.02-0.11-0.02-0.11-0.07c-0.02-0.05,0.02-0.11,0.07-0.11c0.4-0.09,1.55-0.33,2.14-0.22c-0.38-0.57-0.95-1.34-1.26-1.54  c-0.11-0.11-0.22-0.13-0.35-0.11c-0.29,0.07-0.51,0.44-0.51,0.44c-0.04,0.04-0.09,0.05-0.13,0.04c-0.04-0.02-0.05-0.09-0.04-0.13  c0.02-0.02,0.26-0.44,0.64-0.53c0.16-0.04,0.33,0,0.49,0.09c0.55,0.37,1.7,2.19,1.76,2.27c0.04,0.04,0.02,0.11-0.04,0.13  C48.15,99.25,48.13,99.25,48.12,99.25z M64.43,99.23c-0.02,0-0.02,0-0.04,0c-0.05-0.02-0.07-0.07-0.05-0.13c0,0,0.27-0.69,0.99-0.69  c0.04,0,0.07,0,0.11,0c0.05,0,0.09,0.05,0.09,0.11c0,0.05-0.04,0.09-0.11,0.09c-0.64-0.05-0.88,0.55-0.9,0.57  C64.5,99.21,64.47,99.23,64.43,99.23z M53.31,99.16c-0.04,0-0.05-0.02-0.07-0.04c-0.73-1.17-1.76-0.91-1.77-0.91  c-0.05,0.02-0.11-0.02-0.11-0.07c-0.02-0.05,0.02-0.11,0.07-0.11c0.02,0,1.19-0.27,1.98,0.99c0.04,0.04,0.02,0.11-0.04,0.13  C53.35,99.16,53.33,99.16,53.31,99.16z M39.47,98.54c-0.04,0-0.07-0.02-0.09-0.07c0-0.02-0.49-1.66-1.02-2.41  c-0.51-0.73-1.61-1.15-1.63-1.15c-0.05-0.02-0.07-0.07-0.05-0.13c0.02-0.05,0.07-0.07,0.13-0.05c0.05,0.02,1.15,0.44,1.7,1.23  s1.02,2.4,1.04,2.47c0.02,0.05-0.02,0.11-0.07,0.11C39.48,98.54,39.47,98.54,39.47,98.54z M58.56,98.28c-0.05,0-0.09-0.04-0.09-0.07  c-0.05-0.05-0.29-0.13-0.53-0.16c-0.05-0.02-0.09-0.05-0.07-0.11c0.02-0.05,0.05-0.07,0.11-0.07c0.69,0.13,0.69,0.29,0.69,0.35  C58.65,98.24,58.61,98.28,58.56,98.28z M72.9,97.77c-0.24,0-0.44-0.22-0.62-0.42c-0.05-0.05-0.09-0.11-0.15-0.15  c-0.24-0.24-1.28-0.51-1.66-0.6c-0.05-0.02-0.09-0.05-0.07-0.11c0.02-0.05,0.05-0.09,0.11-0.07c0.15,0.04,1.44,0.33,1.76,0.66  c0.05,0.05,0.09,0.11,0.15,0.16c0.16,0.18,0.35,0.37,0.49,0.35c0.11,0,0.22-0.09,0.33-0.27c0.46-0.68,0.66-0.95,1.04-1.06  c0.04-0.02,0.11,0.02,0.11,0.07c0.02,0.05-0.02,0.11-0.07,0.11c-0.31,0.09-0.49,0.33-0.93,0.99C73.23,97.64,73.06,97.77,72.9,97.77  C72.91,97.77,72.9,97.77,72.9,97.77z M54.33,97.55c-0.02,0-0.05-0.02-0.07-0.04c-0.82-0.84-2.32-0.71-2.34-0.71l0,0  c-0.05,0-0.09-0.04-0.09-0.09s0.04-0.09,0.09-0.11c0.07,0,1.61-0.15,2.51,0.77c0.04,0.04,0.04,0.09,0,0.13  C54.37,97.55,54.35,97.55,54.33,97.55z M68.71,97.29c-0.04,0-0.09-0.04-0.09-0.07c-0.02-0.05,0.02-0.11,0.07-0.11  c0.26-0.05,0.64-0.2,0.69-0.33c0.02-0.05,0.07-0.07,0.13-0.05c0.05,0.02,0.07,0.07,0.05,0.13c-0.11,0.26-0.71,0.4-0.82,0.44  C68.73,97.29,68.71,97.29,68.71,97.29z M56.56,97.27c-0.02,0-0.04,0-0.05-0.02c-0.04-0.02-0.05-0.09-0.04-0.13  c0.02-0.02,0.38-0.64,0.93-0.64c0.05,0,0.13,0.04,0.11,0.09c0,0.05-0.04,0.09-0.09,0.09h-0.02c-0.44,0-0.77,0.55-0.77,0.55  C56.64,97.26,56.6,97.27,56.56,97.27z M45.28,95.57c-0.04,0-0.05-0.02-0.07-0.04c0,0-0.2-0.33-0.48-0.69  c-0.26-0.13-1.08,0.18-1.61,0.48c-0.04,0.02-0.11,0-0.13-0.04c-0.02-0.05,0-0.11,0.04-0.13c0.2-0.11,0.99-0.53,1.52-0.53h0.02  c-0.2-0.27-0.42-0.55-0.6-0.77c-0.49-0.53-1.66-0.46-1.66-0.46l0,0c-0.05,0-0.09-0.04-0.09-0.09s0.04-0.09,0.09-0.11  c0.05,0,1.28-0.07,1.83,0.53c0.24,0.27,0.53,0.64,0.75,0.97c0.02,0.02,0.04,0.04,0.05,0.05s0.02,0.04,0.02,0.05  c0.24,0.33,0.4,0.6,0.42,0.62c0.04,0.04,0.02,0.11-0.04,0.13C45.32,95.57,45.3,95.57,45.28,95.57z M79.04,94.66  c-0.02,0-0.05,0-0.07-0.02c-0.04-0.04-0.04-0.09,0-0.13c0.05-0.05,1.26-1.3,2.36-1.5c0.05,0,0.09,0.02,0.11,0.07  c0,0.05-0.02,0.11-0.07,0.11c-1.02,0.18-2.25,1.43-2.25,1.44C79.08,94.64,79.06,94.66,79.04,94.66z M85.26,92.45  c-0.05,0-0.09-0.04-0.09-0.07c-0.05-0.42-0.24-1.57-0.38-1.81c-0.02-0.04-0.02-0.11,0.04-0.13c0.05-0.04,0.11-0.02,0.13,0.04  c0.18,0.31,0.38,1.72,0.4,1.88C85.37,92.39,85.33,92.45,85.26,92.45L85.26,92.45z M35.59,92.24L35.59,92.24  c-0.05,0-0.09-0.05-0.09-0.11c0.04-0.46,0.88-1.32,0.97-1.41c0.04-0.04,0.09-0.04,0.13,0c0.04,0.04,0.04,0.09,0,0.13  c-0.24,0.26-0.9,0.97-0.91,1.3C35.68,92.21,35.64,92.24,35.59,92.24z M87.07,91.26c-0.05,0-0.09-0.04-0.09-0.09  c0-0.02-0.04-1.7-0.66-2.12c-0.04-0.04-0.05-0.09-0.02-0.13c0.04-0.04,0.09-0.05,0.13-0.02c0.71,0.48,0.75,2.21,0.75,2.29  C87.16,91.2,87.12,91.24,87.07,91.26L87.07,91.26z M89.47,91.17c-0.04,0-0.07-0.02-0.09-0.07c0-0.02-0.69-2.34-1.68-2.52  c-0.05-0.02-0.09-0.05-0.07-0.11c0.02-0.05,0.05-0.07,0.11-0.07c1.1,0.2,1.81,2.56,1.83,2.65c0.02,0.05-0.02,0.11-0.07,0.11  C89.48,91.17,89.47,91.17,89.47,91.17z M38.15,90.64c-0.05,0-0.09-0.04-0.09-0.07c-0.05-0.42,0.8-0.82,0.99-0.91  c0.05-0.02,0.11,0,0.13,0.05s0,0.11-0.05,0.13c-0.38,0.16-0.9,0.49-0.86,0.71C38.24,90.58,38.2,90.64,38.15,90.64L38.15,90.64z"></path>
<path d="M58.61,77.96c-0.05,0-0.09-0.02-0.13-0.05c-0.05-0.05-0.07-0.13-0.04-0.2c-0.07,0-0.13-0.02-0.16-0.07  c0-0.02-0.24-0.27-0.91-1.35c-0.71-1.15,0.22-4.63,0.26-4.77c0.02-0.11,0.13-0.16,0.24-0.13c0.11,0.02,0.16,0.13,0.13,0.24  c-0.26,0.97-0.82,3.64-0.29,4.48c0.66,1.04,0.88,1.3,0.88,1.32l0.02,0.02c0.18-0.49,0.46-1.68,0.68-2.78  c0.02-0.11,0.11-0.16,0.22-0.15c0.11,0.02,0.16,0.13,0.15,0.22c-0.16,0.88-0.6,2.93-0.88,3.2C58.7,77.94,58.67,77.96,58.61,77.96z"></path>
<path d="M58.81,81.05l2.43-4.1c0,0-2.3,0.26-3.58,1.44C57.79,78.93,58.65,79,58.81,81.05L58.81,81.05z"></path>
<path d="M61.01,79.92c0,0,0.95-3.55,1.24-3.99c0.29-0.44,1.87,3.07,1.87,3.07S61.56,78.53,61.01,79.92L61.01,79.92z"></path>
<path d="M65.36,76.77c0,0,3.4,2.12,3.9,2.1c0.51-0.02-1.9,0.29-1.9,1.61C67.35,81.35,65.64,77.85,65.36,76.77L65.36,76.77z"></path>
<path d="M55.78,92.32l-0.35-0.16c0.2-0.42,0.49-1.13,0.73-1.66c-0.6,0.44-0.75,0.37-0.82,0.33c-0.09-0.05-0.15-0.15-0.13-0.26  c0.04-0.42,0.8-1.43,0.97-1.63l0.29,0.24c-0.27,0.35-0.64,0.88-0.8,1.19c0.22-0.15,0.57-0.4,0.84-0.64l0.29,0.22  C56.8,89.98,56.13,91.57,55.78,92.32z M54.55,89.25l-0.29-0.24l1.04-1.24L55.6,88L54.55,89.25z M59.73,89.19h-0.38  c0.02-2.25,0-8.28-0.35-9.09l-0.44-1.02l0.35-0.15l0.44,1.02C59.78,81,59.73,88.86,59.73,89.19z"></path>
<path class="st0" d="M31.66,131.93l1.21,1.06l-0.9,2.93c0,0,2.71-0.86,3.31-0.38c0.6,0.48,0.66,0.77,0.66,0.77s-6.46,8.19-9.38,5.05  S31.66,131.93,31.66,131.93L31.66,131.93z"></path>
<path class="st0" d="M35.46,131.02l1.87,1.83c0,0-2.18,1.5-3.07,1.39C33.34,134.12,35.46,131.02,35.46,131.02L35.46,131.02z"></path>
<polygon class="st0" points="38.3,132.3 36.1,130.08 53.68,112.51 55.89,114.7 "></polygon>
<polygon points="46.18,125.58 41.86,129.9 38.26,126.28 42.57,121.96 "></polygon>
<path class="st0" d="M47.82,136.26l1.06-1.21l2.93,0.9c0,0-0.86-2.71-0.38-3.31c0.48-0.6,0.77-0.66,0.77-0.66s8.19,6.46,5.05,9.38  C54.1,144.31,47.82,136.26,47.82,136.26L47.82,136.26z"></path>
<path class="st0" d="M46.91,132.46l1.83-1.87c0,0,1.5,2.18,1.39,3.07C50.02,134.58,46.91,132.46,46.91,132.46L46.91,132.46z"></path>
<polygon class="st0" points="48.19,129.63 45.99,131.84 28.4,114.25 30.61,112.05 "></polygon>
<path class="st0" d="M73.81,129.97c0,0-1.94,5.16-3.18,5.67s-2.21,0.62-2.21,0.62s-2.62-2.78-2.16-3.97  c0.46-1.19,2.51-4.15,3.97-3.86c1.48,0.29,2.62,0.46,2.62,0.46s2.05,1.13,0.68,4.94c-0.68,1.9-1.24,2.16-3.24,3.13  c-1.99,0.97-2.1,0.84-2.1,0.84l-2.1-2.56c0,0-0.22-2.21,0.22-3.13"></path>
<path d="M68.18,138.18c-0.15,0-0.2-0.05-0.26-0.13l-2.19-2.67l-0.02-0.11c-0.02-0.24-0.22-2.36,0.27-3.33H66  c0.57-1.26,2.56-4.24,4.32-3.9c1.46,0.29,2.6,0.46,2.6,0.46l0.13,0.04c0.09,0.05,2.3,1.34,0.86,5.39c-0.73,2.03-1.39,2.34-3.36,3.31  C69.02,138,68.45,138.18,68.18,138.18z M66.46,135.09l1.88,2.29c0.22-0.07,0.69-0.26,1.77-0.79c1.98-0.95,2.41-1.17,3.04-2.91  c0.33-0.9,0.44-1.63,0.46-2.21c-0.69,1.66-1.87,4.11-2.83,4.52c-1.28,0.53-2.27,0.64-2.3,0.64l-0.18,0.02l-0.13-0.15  c-0.27-0.29-1.13-1.24-1.72-2.25C66.42,134.6,66.44,134.89,66.46,135.09z M70.02,128.8c-1.17,0-2.96,2.49-3.4,3.64  c-0.24,0.64,0.95,2.34,1.94,3.44c0.33-0.05,1.06-0.22,1.92-0.57c0.73-0.29,2.07-3.13,2.87-5.19c-0.22-0.49-0.53-0.75-0.64-0.84  c-0.29-0.04-1.3-0.2-2.54-0.44C70.12,128.8,70.06,128.8,70.02,128.8z"></path>
<path d="M86.3,117.48c2.1,0,2.89-0.51,3.07-0.57c0.16-0.05,3,0,4.59,0.05c1.57,0.07,4.54,0.46,5.89,0.07  c1.37-0.4,2.89-1.13,2.83-0.84c-0.05,0.27-2.89,3.13-4.83,4.08c-1.92,0.97-2.27,1.19-2.32,1.43c-0.05,0.22,3.24-0.11,6.02-0.79  c2.78-0.68,2.67-0.27,2.67-0.27s-1.35,3.35-4.32,4.37c-2.94,1.02-6.42,1.43-6.42,1.43s-1.35,1.48-1.81,1.54  c-0.46,0.05-0.51,0.22-0.51,0.4c0,0.16,1.02,0.84,1.24,1.24c0.22,0.4,4.32,4.02,7.15,4.08c2.83,0.05,3.58,0.27,2.94,1.02  c-0.62,0.73-1.65,1.65-1.65,1.99c0,0.35-0.22,0.79-1.08,0.79c-0.86,0-5.29-2.1-7.77-1.92c-2.51,0.16-2.56,0.73-2.89,0.73  c-0.35,0-1.13,0-1.13,0s-1.35,2.27-1.54,2.32c-0.16,0.05,1.92,1.92,1.19,2.38c-0.73,0.46-0.86,0.73-1.13,0.51  c-0.27-0.22-0.91-1.08-1.3-1.08c-0.4,0-2.16,0.29-2.16,0.29s-1.68,1.46-1.7,1.13c-0.05-1.7-0.97-1.08-1.43-0.97  c-0.46,0.11,0.11-0.51,0.29-1.02c0.16-0.51-0.79-0.68-0.73-1.13s0.46-1.54,1.76-1.3c1.3,0.22,2.51,1.08,2.72,0.22  c0.22-0.86,0.22-0.86,0.22-0.86s-2.67-1.24-4.48-3.35c-1.81-2.1-1.7-3.4-2.51-3.51c-0.8-0.11-2.51-0.22-3.58,0.4  s-2.43,1.87-2.43,1.87s1.48-2.49,1.24-4.43c-0.22-1.94,0.68-5.1,2.94-4.77c2.27,0.35,4.48,2.1,4.88,1.02  c0.4-1.08-0.27-6.02,1.99-6.24C84.53,117.56,86.3,117.48,86.3,117.48L86.3,117.48z"></path>
<path class="st0" d="M74.83,125.91c0,0.29-0.24,0.53-0.53,0.53c-0.29,0-0.53-0.24-0.53-0.53c0-0.29,0.24-0.53,0.53-0.53  S74.83,125.62,74.83,125.91L74.83,125.91z"></path>
<path d="M68.87,134.95c-0.04,0-0.09,0-0.13-0.02c-0.15-0.05-0.26-0.2-0.26-0.37v-2.89c0-0.09,0.04-0.18,0.09-0.26l1.76-1.99  c0.11-0.13,0.27-0.16,0.42-0.11c0.15,0.05,0.24,0.18,0.26,0.35l0.11,2.67c0,0.09-0.04,0.18-0.09,0.26l-1.87,2.21  C69.09,134.91,68.98,134.95,68.87,134.95z M69.26,131.82v1.72l1.1-1.32l-0.07-1.57L69.26,131.82z"></path>
<polygon points="68.62,137.58 67.87,137.47 68.05,136.23 68.8,136.32 "></polygon>
<g>
	<path d="M175,103.05c4.1,7.02,6.91,12.2,9.51,17.7c2.71,5.61,4.1,6.91,7.13,7.13l3.24,0.22l-0.75,4.86h-14.58   c-2.16-7.77-10.26-23.76-15.01-30.14c-0.55-0.75-1.63-0.97-2.82-1.08l-2.91,13.61c-1.08,4.86-1.72,8.1-1.72,10.37   c0,1.72,0.64,2.49,3.02,2.82l-0.64,4.43h-15.76c2.82-6.36,4.21-10.81,6.16-20.08l6.8-31.86c0.44-1.94,0.97-4.65,0.97-6.47   s-0.86-3.13-4.32-3.46l-3.24-0.33l0.33-4.86h29.15c6.16,0,18.25,3.68,18.25,15.98C197.77,89.56,193.89,103.05,175,103.05z    M175.86,72.16c-2.49,0-5.08,0.22-7.24,0.55c-1.19,3.68-2.6,8.74-3.9,14.8l-1.83,8.43c2.91,0.55,6.36,0.86,9.51,0.86   c10.26,0,14.8-4.01,14.9-14.25C187.31,73.24,178.55,72.16,175.86,72.16z"></path>
	<path d="M248.75,130.38l-7.02,2.27c-2.16,0.75-3.79,1.3-5.39,1.3c-2.71,0-5.39-2.05-5.39-5.18c0-1.41,0-4.01,0.22-5.18   c-4.75,6.25-9.4,10.9-15.34,10.9c-2.38,0-13.72-0.22-13.72-17.06c0-12.09,9.82-32.83,28.07-32.83c5.83,0,12.2,2.27,16.31,4.75   l-5.83,26.88c-0.44,2.05-0.86,5.39-0.86,7.55c0,1.94,0.75,2.71,3.02,2.71c1.3,0,3.9-0.33,6.69-0.86L248.75,130.38z M228.78,91.5   c-8.32,0-16.84,11.34-16.84,25.16c0,8.85,3.13,10.26,5.61,10.26c4.32,0,10.37-6.16,14.05-12.2l4.65-21.27   C233.85,92.03,231.36,91.5,228.78,91.5z"></path>
	<path d="M275.55,134.36c-4.86,0-8.32-1.72-10.15-3.13l-1.52,7.88c-0.22,1.3-0.64,3.9-0.64,5.29c0,1.3,0.55,2.6,2.27,2.71l3.9,0.22   l-1.08,4.86h-17.39c1.83-6.69,3.68-14.8,5.08-21.27l6.25-29.04c0.75-3.35,0.86-5.61,0.86-7.44c0-1.72-0.86-3.02-4.01-3.46   l-3.68-0.53l0.44-4.75h16.84c0,2.71-0.11,6.05-0.75,9.51c3.24-5.08,9.71-10.59,15.34-10.59c8.63,0,14.36,5.08,14.36,17.61   C301.68,117.08,291.31,134.36,275.55,134.36z M284.93,91.93c-4.43,0-9.71,5.83-13.61,11.78l-4.21,19.33   c1.72,2.27,4.65,4.97,9.29,4.97c8.54,0,15.23-12.97,15.23-24.62C291.64,93.32,288.18,91.93,284.93,91.93z"></path>
	<path d="M356.43,130.38l-9.93,2.82c-1.63,0.44-3.46,0.86-4.32,0.86c-2.71,0-4.86-1.52-4.86-5.18c0-3.24,0.33-4.65,1.19-8.54   l2.91-12.2c0.86-3.68,1.63-8.1,1.63-11.23c0-4.43-1.83-4.86-4.65-4.86c-4.21,0-9.51,6.16-15.12,15.01   c-0.86,3.99-4.65,20.74-5.61,25.91h-10.04c0.64-2.05,2.05-7.02,2.82-10.59l4.75-21.71c4.21-18.78,6.05-27.1,6.05-31.53   c0-1.52-0.86-2.71-2.71-2.82L315.08,66l0.44-4.43h18.25c-0.75,1.94-2.38,7.99-3.57,13.17l-2.49,10.9c-0.55,2.38-1.3,6.36-2.27,9.93   c4.65-6.05,9.07-11.01,15.34-11.01c7.13,0,11.45,2.91,11.45,11.89c0,2.49-0.55,7.55-1.19,10.59l-2.71,11.23   c-0.53,2.05-0.86,4.21-0.86,5.83c0,1.52,0.86,2.38,2.82,2.38c2.27,0,5.61-0.53,6.8-0.75L356.43,130.38z"></path>
	<path d="M408.5,130.38l-7.02,2.27c-2.16,0.75-3.79,1.3-5.39,1.3c-2.71,0-5.39-2.05-5.39-5.18c0-1.41,0-4.01,0.22-5.18   c-4.75,6.25-9.4,10.9-15.33,10.9c-2.38,0-13.72-0.22-13.72-17.06c0-12.09,9.82-32.83,28.07-32.83c5.83,0,12.2,2.27,16.31,4.75   l-5.83,26.88c-0.44,2.05-0.86,5.39-0.86,7.55c0,1.94,0.75,2.71,3.02,2.71c1.3,0,3.9-0.33,6.69-0.86L408.5,130.38z M388.51,91.5   c-8.32,0-16.84,11.34-16.84,25.16c0,8.85,3.13,10.26,5.61,10.26c4.32,0,10.37-6.16,14.05-12.2l4.65-21.27   C393.6,92.03,391.11,91.5,388.51,91.5z"></path>
	<path d="M444.23,110.28c-6.16,2.27-12.2,2.82-20.08,2.82c-0.11,0.64-0.22,1.52-0.22,2.38c0,7.77,3.57,11.67,8.96,11.67   c5.83,0,10.48-2.91,13.61-6.47l3.9,3.13c-5.61,6.91-11.45,10.59-19.33,10.59c-7.24,0-16.95-4.97-16.95-19   c0-12.42,9.07-30.78,26.24-30.78c2.49,0,14.15,0.22,14.15,13.72C454.49,103.69,450.07,108.23,444.23,110.28z M438.95,91.06   c-6.05,0-11.98,6.69-13.94,15.98c6.25,0,11.34-0.86,14.36-1.83c4.43-1.41,6.05-4.54,6.05-6.69   C445.42,96.47,445.2,91.06,438.95,91.06z"></path>
	<path d="M478.16,90.42l-5.94,27.76c-0.44,2.16-0.97,4.21-0.97,5.94c0,1.52,0.86,2.38,2.91,2.38c2.27,0,5.18-0.53,6.8-0.86   l-0.75,4.75l-10.04,2.82c-1.52,0.44-3.24,0.86-4.32,0.86c-2.49,0-4.65-1.52-4.65-5.29c0-3.13,0.33-4.54,1.19-8.54l8.63-38.77   c1.19-5.08,2.16-9.29,2.16-12.31c0-2.38-0.55-2.49-2.91-2.82l-2.91-0.44l0.55-4.32h18.47C483.66,68.6,480.43,79.94,478.16,90.42z"></path>
	<path d="M517.9,98.3c-0.86-3.46-3.24-6.91-7.99-6.91c-4.86,0-8.32,1.94-8.32,7.02c0,2.16,1.08,4.01,3.79,5.61l6.25,3.79   c4.75,2.82,7.24,6.36,7.24,11.67c0,4.43-3.68,14.9-19.44,14.9c-3.79,0-8.74-1.08-11.67-3.24c0-2.82-0.11-7.44-0.44-10.59h4.86   c0.64,3.79,3.68,7.02,8.32,7.02c4.32,0,8.74-0.97,8.74-7.13c0-3.13-0.97-4.65-5.18-7.13l-5.08-3.02c-4.32-2.6-7.02-5.61-7.02-10.7   c0-6.36,5.39-15.01,19.22-15.01c3.79,0,8.96,2.05,11.01,3.79c0,2.6,0,7.35,0.33,9.93H517.9z"></path>
	<path d="M572.65,90.53c-3.13,0.53-6.05,1.94-9.51,4.97l-13.17,11.34l7.99,14.25c2.49,4.32,3.68,5.72,7.35,5.72   c1.41,0,3.57-0.22,4.86-0.44l-0.75,3.79l-7.02,2.82c-1.52,0.53-3.02,1.08-3.9,1.08c-1.83,0-4.1-1.08-7.24-6.47l-10.37-18.25   c-1.83,8.43-3.02,15.23-3.79,23.65h-11.45c2.05-6.69,4.43-15.98,6.16-23.98l6.05-27.43c0.97-4.65,2.05-8.96,2.05-11.98   c0-2.49-1.19-3.02-2.91-3.24l-3.13-0.44l0.44-4.32h18.8c-2.6,7.02-6.16,19.66-8.43,30.23l-3.02,13.94l13.61-11.45   c3.46-2.91,4.54-4.75,4.54-8.63h13.72L572.65,90.53z"></path>
	<path d="M592.64,90.42l-5.94,27.76c-0.44,2.16-0.97,4.21-0.97,5.94c0,1.52,0.86,2.38,2.91,2.38c2.27,0,5.18-0.53,6.8-0.86   l-0.75,4.75l-10.04,2.82c-1.52,0.44-3.24,0.86-4.32,0.86c-2.49,0-4.65-1.52-4.65-5.29c0-3.13,0.33-4.54,1.19-8.54l8.63-38.77   c1.19-5.08,2.16-9.29,2.16-12.31c0-2.38-0.55-2.49-2.91-2.82l-2.91-0.44l0.55-4.32h18.47C598.15,68.6,594.91,79.94,592.64,90.42z"></path>
	<path d="M621.26,101.1l-3.68,16.84c-0.44,2.16-0.97,4.43-0.97,6.16c0,1.52,0.86,2.38,2.91,2.38c2.05,0,5.29-0.44,6.91-0.86   l-0.86,4.86l-9.71,2.71c-1.52,0.44-3.46,0.86-4.32,0.86c-2.6,0-4.86-1.52-4.86-5.29c0-3.13,0.44-4.54,1.3-8.54l4.32-19.97   c0.55-2.38,0.97-4.43,0.97-6.36c0-2.05-0.86-2.71-4.65-3.13l-3.24-0.44l0.33-4.65h21.07C624.72,89.56,622.98,93.01,621.26,101.1z    M624.06,74.87c-3.68,0-6.47-3.02-6.47-6.58c0-3.68,2.91-6.69,6.58-6.69s6.58,3.02,6.58,6.58   C630.75,71.84,627.74,74.87,624.06,74.87z"></path>
	<path d="M684.12,130.38l-10.15,2.82c-1.52,0.44-3.35,0.86-4.21,0.86c-2.6,0-4.97-1.52-4.97-5.18c0-3.24,0.44-4.65,1.3-8.54   l2.82-12.09c1.19-4.75,1.63-8.21,1.63-11.34c0-4.43-1.72-4.86-4.54-4.86c-4.21,0-9.07,5.29-15.23,15.01l-5.61,25.91H635   c0.75-2.49,2.71-9.93,3.57-14.05l3.13-14.9c0.75-3.35,1.19-7.02,1.19-8.96c0-2.05-0.86-3.68-3.99-4.1l-3.68-0.53l0.44-4.75h16.84   c0,3.24-0.53,8.54-1.08,11.78c5.29-7.66,10.59-12.86,16.84-12.86c7.13,0,11.56,2.91,11.56,11.89c0,2.49-0.75,7.55-1.41,10.59   l-2.49,11.12c-0.44,2.16-0.97,4.21-0.97,5.83c0,1.52,0.86,2.49,2.91,2.49c1.83,0,5.29-0.44,6.8-0.86L684.12,130.38z"></path>
	<path d="M707.98,101.1l-3.68,16.84c-0.44,2.16-0.97,4.43-0.97,6.16c0,1.52,0.86,2.38,2.91,2.38c2.05,0,5.29-0.44,6.91-0.86   l-0.86,4.86l-9.71,2.71c-1.52,0.44-3.46,0.86-4.32,0.86c-2.6,0-4.86-1.52-4.86-5.29c0-3.13,0.44-4.54,1.3-8.54l4.32-19.97   c0.53-2.38,0.97-4.43,0.97-6.36c0-2.05-0.86-2.71-4.65-3.13l-3.24-0.44l0.33-4.65h21.07C711.44,89.56,709.72,93.01,707.98,101.1z    M710.8,74.87c-3.68,0-6.47-3.02-6.47-6.58c0-3.68,2.91-6.69,6.58-6.69c3.68,0,6.58,3.02,6.58,6.58   C717.49,71.84,714.46,74.87,710.8,74.87z"></path>
	<path d="M765.56,90.53c-3.13,0.53-6.05,1.94-9.51,4.97l-13.17,11.34l7.99,14.25c2.49,4.32,3.68,5.72,7.35,5.72   c1.41,0,3.57-0.22,4.86-0.44l-0.75,3.79l-7.04,2.8c-1.52,0.53-3.02,1.08-3.9,1.08c-1.83,0-4.1-1.08-7.24-6.47l-10.37-18.25   c-1.83,8.43-3.02,15.23-3.79,23.65h-11.45c2.05-6.69,4.43-15.98,6.16-23.98l6.05-27.43c0.97-4.65,2.05-8.96,2.05-11.98   c0-2.49-1.19-3.02-2.91-3.24l-3.13-0.44l0.44-4.32h18.8c-2.6,7.02-6.16,19.66-8.43,30.23l-3.02,13.94l13.61-11.45   c3.46-2.91,4.54-4.75,4.54-8.63h13.72L765.56,90.53z"></path>
</g>
<g>
	<path class="st6" d="M149.76,167.55h10.95l-0.35,1.9h-8.81l-1.63,7.94h8.3l-0.35,1.9h-8.34l-1.79,8.56h9.14l-0.31,1.9h-11.39   L149.76,167.55z"></path>
	<path class="st6" d="M164.24,173.55h2.1l-3.44,16.24h-2.1L164.24,173.55z M167.39,169.22h-2.4l0.57-2.67h2.4L167.39,169.22z"></path>
	<path class="st6" d="M170.66,176.13c0.18-1.08,0.31-1.79,0.38-2.58h2.01c-0.09,1.02-0.18,1.88-0.35,2.45h0.05   c1.12-1.72,3.15-2.83,5.16-2.83c2.93,0,5.1,1.66,5.1,4.72c0,1.12-0.26,2.32-0.48,3.35l-1.81,8.56h-2.1l1.85-8.94   c0.22-1.04,0.35-1.76,0.35-2.83c0-1.9-1.08-3.13-3.13-3.13c-3.51,0-5.38,3.47-6.14,7.21l-1.59,7.7h-2.1L170.66,176.13z"></path>
	<path class="st6" d="M188.02,182.24c-0.05,0.42-0.09,0.86-0.09,1.3c0,3.13,2.07,4.9,4.94,4.9c2.01,0,3.47-0.55,4.74-1.08   l-0.16,1.94c-0.95,0.35-2.19,0.86-4.85,0.86c-3.79,0-6.69-2.27-6.69-6.62c0-5.45,3.18-10.39,8.41-10.39c3.82,0,5.72,2.36,5.72,6.05   c0,0.99-0.13,2.01-0.22,3.02h-11.8V182.24z M197.95,180.52c0.04-0.44,0.09-0.86,0.09-1.24c0-2.65-1.12-4.39-3.73-4.39   c-3.13,0-5.41,2.67-5.96,5.63H197.95z"></path>
	<path class="st6" d="M215.21,167.55h10.95l-0.35,1.9h-8.81l-1.63,7.94h8.3l-0.35,1.9h-8.34l-1.79,8.56h9.14l-0.31,1.9h-11.39   L215.21,167.55z"></path>
	<path class="st6" d="M229.7,173.55h2.1l-3.44,16.24h-2.1L229.7,173.55z M232.84,169.22h-2.4l0.57-2.67h2.4L232.84,169.22z"></path>
	<path class="st6" d="M236.12,176.13c0.18-1.08,0.31-1.79,0.38-2.58h2.01c-0.09,1.02-0.18,1.88-0.35,2.45h0.05   c1.12-1.72,3.15-2.83,5.16-2.83c2.93,0,5.1,1.66,5.1,4.72c0,1.12-0.26,2.32-0.48,3.35l-1.81,8.56h-2.1l1.85-8.94   c0.22-1.04,0.35-1.76,0.35-2.83c0-1.9-1.08-3.13-3.13-3.13c-3.51,0-5.38,3.47-6.14,7.21l-1.59,7.7h-2.1L236.12,176.13z"></path>
	<path class="st6" d="M253.76,176.44c0.18-0.91,0.35-1.88,0.44-2.89h2.01c-0.09,1.02-0.18,1.88-0.35,2.45h0.05   c1.02-1.59,2.41-2.83,4.52-2.83c0.68,0,1.21,0.13,1.76,0.22l-0.48,2.14c-0.55-0.22-1.15-0.26-1.72-0.26c-3.27,0-4.59,3.6-5.19,6.53   l-1.66,7.99H251L253.76,176.44z"></path>
	<path class="st6" d="M265.07,173.55h2.1l-3.44,16.24h-2.1L265.07,173.55z M268.21,169.22h-2.4l0.57-2.67h2.4L268.21,169.22z"></path>
	<path class="st6" d="M282.09,175.62c-0.6-0.31-2.49-0.73-3.75-0.73c-4.61,0-7.1,3.38-7.1,7.7c0,3.35,2.23,5.85,5.25,5.85   c1.21,0,2.41-0.42,3.44-0.77l-0.26,2.01c-0.77,0.26-2.03,0.48-3.69,0.48c-4.68,0-6.95-3.91-6.95-7.42c0-5.72,3.26-9.58,9.53-9.58   c1.34,0,3.27,0.31,4.11,0.64L282.09,175.62z"></path>
	<path class="st6" d="M287.95,165.91h2.1l-2.41,10.28h0.07c1.15-1.9,2.62-2.87,5.19-3.02c2.93,0,5.1,1.66,5.1,4.72   c0,1.12-0.22,2.27-0.48,3.35l-1.81,8.56h-2.1l1.85-8.94c0.22-1.04,0.35-1.76,0.35-2.83c0-1.9-1.08-3.13-3.13-3.13   c-3.51,0-5.25,3.51-5.98,6.95l-1.76,7.96h-2.1L287.95,165.91z"></path>
	<path class="st6" d="M305.98,169.91l2.29-0.79l-0.99,4.43h4.24l-0.42,1.72h-4.17l-1.72,8.03c-0.22,1.08-0.48,2.14-0.48,3.18   c0,1.28,0.68,1.98,1.85,1.98c0.6,0,1.15-0.13,1.72-0.44l-0.18,1.72c-0.6,0.29-1.21,0.44-2.03,0.44c-2.27,0-3.53-1.28-3.53-3.02   c0-1.41,0.57-3.99,0.73-4.68l1.55-7.21h-3.26l0.44-1.72h3.18L305.98,169.91z"></path>
	<path class="st6" d="M324.41,187.2c-0.18,1.08-0.31,1.77-0.38,2.58h-2.01c0.09-1.02,0.18-1.88,0.35-2.45h-0.05   c-1.12,1.72-3.15,2.83-5.16,2.83c-2.93,0-5.1-1.66-5.1-4.72c0-1.12,0.26-2.32,0.48-3.35l1.81-8.56h2.1l-1.85,8.94   c-0.22,1.06-0.35,1.76-0.35,2.83c0,1.9,1.08,3.13,3.13,3.13c3.51,0,5.38-3.47,6.14-7.19l1.59-7.7h2.1L324.41,187.2z"></path>
	<path class="st6" d="M331.64,176.13c0.18-1.08,0.31-1.79,0.38-2.58h2.01c-0.09,1.02-0.18,1.88-0.35,2.45h0.05   c1.12-1.72,3.15-2.83,5.16-2.83c2.93,0,5.1,1.66,5.1,4.72c0,1.12-0.26,2.32-0.48,3.35l-1.81,8.56h-2.1l1.85-8.94   c0.22-1.04,0.35-1.76,0.35-2.83c0-1.9-1.08-3.13-3.13-3.13c-3.51,0-5.38,3.47-6.14,7.21l-1.59,7.7h-2.1L331.64,176.13z"></path>
	<path class="st6" d="M345.95,193.54c1.59,1.04,3.22,1.41,4.97,1.41c4.65,0,5.89-2.29,6.84-6.33l0.26-1.17h-0.07   c-1.43,1.59-3.27,2.36-5.45,2.36c-3.86,0-5.8-3.13-5.8-6.62c0-5.12,2.87-10,8.28-10c2.54,0,4.74,1.04,5.25,3.69h0.07   c0.18-1.08,0.44-2.19,0.77-3.31h2.01c-0.16,0.68-0.44,1.9-0.77,3.31l-2.41,11.17c-1.21,5.63-2.4,8.63-8.98,8.63   c-1.88,0-3.57-0.22-5.5-1.08L345.95,193.54z M353.25,188.06c4.04,0,6.11-4.3,6.11-8.03c0-2.89-1.43-5.16-4.39-5.16   c-3.95,0-6.05,4.72-6.05,8.28C348.92,185.86,350.25,188.06,353.25,188.06z"></path>
	<path class="st6" d="M386.65,186.59c-0.29,1.3-0.48,2.41-0.55,3.18h-2.07c0.09-0.9,0.29-1.94,0.51-2.58h-0.05   c-1.17,1.76-2.8,2.96-5.54,2.96c-3.91,0-5.5-3.27-5.5-6.95c0-4.52,2.96-10.06,8.12-10.06c2.36,0,4.37,1.15,4.97,3.38h0.05   l2.23-10.64h2.1L386.65,186.59z M379.6,188.44c3.62,0,6.24-4.81,6.24-8.41c0-2.89-1.33-5.16-4.13-5.16c-4.17,0-6.09,4.97-6.09,8.72   C375.62,186.32,376.81,188.44,379.6,188.44z"></path>
	<path class="st6" d="M393.23,182.24c-0.07,0.42-0.09,0.86-0.09,1.3c0,3.13,2.07,4.9,4.94,4.9c2.01,0,3.47-0.55,4.74-1.08   l-0.16,1.94c-0.95,0.35-2.19,0.86-4.85,0.86c-3.79,0-6.69-2.27-6.69-6.62c0-5.45,3.18-10.39,8.41-10.39c3.82,0,5.72,2.36,5.72,6.05   c0,0.99-0.13,2.01-0.22,3.02h-11.8V182.24z M403.16,180.52c0.04-0.44,0.09-0.86,0.09-1.24c0-2.65-1.12-4.39-3.73-4.39   c-3.13,0-5.41,2.67-5.96,5.63H403.16z"></path>
	<path class="st6" d="M409.43,176.44c0.18-0.91,0.35-1.88,0.44-2.89h2.01c-0.09,1.02-0.18,1.88-0.35,2.45h0.07   c1.02-1.59,2.41-2.83,4.52-2.83c0.68,0,1.21,0.13,1.76,0.22l-0.48,2.14c-0.55-0.22-1.15-0.26-1.72-0.26c-3.27,0-4.59,3.6-5.19,6.53   l-1.66,7.99h-2.14L409.43,176.44z"></path>
	<path class="st6" d="M437.71,167.55h2.62l4.33,22.22h-2.23l-1.12-5.96h-11.36l-3.66,5.96h-2.36L437.71,167.55z M438.62,169.75   l-7.52,12.16h9.84L438.62,169.75z"></path>
	<path class="st6" d="M452.48,165.91h2.1l-5.1,23.88h-2.1L452.48,165.91z"></path>
	<path class="st6" d="M456.91,182.24c-0.07,0.42-0.09,0.86-0.09,1.3c0,3.13,2.07,4.9,4.94,4.9c2.01,0,3.47-0.55,4.74-1.08   l-0.16,1.94c-0.95,0.35-2.19,0.86-4.85,0.86c-3.79,0-6.69-2.27-6.69-6.62c0-5.45,3.18-10.39,8.41-10.39c3.82,0,5.72,2.36,5.72,6.05   c0,0.99-0.13,2.01-0.22,3.02h-11.8V182.24z M466.84,180.52c0.04-0.44,0.09-0.86,0.09-1.24c0-2.65-1.12-4.39-3.73-4.39   c-3.13,0-5.41,2.67-5.96,5.63H466.84z"></path>
	<path class="st6" d="M475.62,181.22l-3.66-7.68h2.19l2.83,6.05l5.16-6.05h2.54l-6.75,7.68l3.86,8.56h-2.29l-2.96-6.88l-5.93,6.88   h-2.45L475.62,181.22z"></path>
	<path class="st6" d="M487.94,173.55h2.1l-3.44,16.24h-2.1L487.94,173.55z M491.09,169.22h-2.4l0.57-2.67h2.4L491.09,169.22z"></path>
	<path class="st6" d="M503.69,185.93c-0.31,1.24-0.55,2.74-0.6,3.86h-1.99c0.09-0.86,0.16-1.68,0.31-2.4h-0.07   c-1.37,2.03-3.15,2.76-5.54,2.76c-2.52,0-4.65-1.88-4.65-4.55c0-4.74,5.36-5.72,9.33-5.72c0.82,0,1.55,0.07,2.19,0.13   c0.07-0.48,0.09-0.95,0.09-1.63c0-2.23-1.24-3.51-3.47-3.51c-1.88,0-3.73,0.86-4.81,1.41l0.22-2.03c1.15-0.48,3-1.08,4.9-1.08   c3.51,0,5.34,1.9,5.34,5.29c0,0.64-0.13,1.81-0.42,3.09L503.69,185.93z M496.5,188.44c3.75,0,5.47-3.38,5.93-6.78   c-0.68,0-1.3-0.07-1.98-0.07c-2.71,0-7.1,0.42-7.1,3.99C493.36,187.43,494.87,188.44,496.5,188.44z"></path>
	<path class="st6" d="M510.29,176.13c0.18-1.08,0.31-1.79,0.38-2.58h2.01c-0.09,1.02-0.18,1.88-0.35,2.45h0.07   c1.12-1.72,3.15-2.83,5.16-2.83c2.93,0,5.1,1.66,5.1,4.72c0,1.12-0.26,2.32-0.48,3.35l-1.81,8.56h-2.1l1.85-8.94   c0.22-1.04,0.35-1.76,0.35-2.83c0-1.9-1.08-3.13-3.13-3.13c-3.49,0-5.38,3.47-6.14,7.21l-1.59,7.7h-2.1L510.29,176.13z"></path>
	<path class="st6" d="M527.63,182.24c-0.07,0.42-0.09,0.86-0.09,1.3c0,3.13,2.07,4.9,4.94,4.9c2.01,0,3.47-0.55,4.74-1.08   l-0.16,1.94c-0.95,0.35-2.19,0.86-4.85,0.86c-3.79,0-6.69-2.27-6.69-6.62c0-5.45,3.18-10.39,8.41-10.39c3.82,0,5.72,2.36,5.72,6.05   c0,0.99-0.13,2.01-0.22,3.02h-11.8V182.24z M537.58,180.52c0.04-0.44,0.09-0.86,0.09-1.24c0-2.65-1.12-4.39-3.73-4.39   c-3.13,0-5.41,2.67-5.96,5.63H537.58z"></path>
	<path class="st6" d="M543.83,176.44c0.18-0.91,0.35-1.88,0.44-2.89h2.01c-0.09,1.02-0.18,1.88-0.35,2.45h0.07   c1.02-1.59,2.41-2.83,4.52-2.83c0.68,0,1.21,0.13,1.76,0.22l-0.48,2.14c-0.55-0.22-1.15-0.26-1.72-0.26c-3.27,0-4.59,3.6-5.19,6.53   l-1.66,7.99h-2.14L543.83,176.44z"></path>
	<path class="st6" d="M158.15,223.79c-0.18,1.08-0.31,1.77-0.38,2.58h-2.01c0.09-1.02,0.18-1.88,0.35-2.45h-0.05   c-1.12,1.72-3.15,2.83-5.16,2.83c-2.93,0-5.1-1.66-5.1-4.72c0-1.12,0.26-2.32,0.48-3.35l1.81-8.56h2.1l-1.85,8.94   c-0.22,1.06-0.35,1.76-0.35,2.83c0,1.9,1.08,3.13,3.13,3.13c3.51,0,5.38-3.47,6.14-7.19l1.59-7.7h2.1L158.15,223.79z"></path>
	<path class="st6" d="M165.4,212.73c0.18-1.08,0.31-1.79,0.38-2.58h2.01c-0.09,1.02-0.18,1.88-0.35,2.45h0.05   c1.12-1.72,3.15-2.83,5.16-2.83c2.93,0,5.1,1.66,5.1,4.72c0,1.12-0.26,2.32-0.48,3.35l-1.81,8.56h-2.1l1.85-8.94   c0.22-1.04,0.35-1.76,0.35-2.83c0-1.9-1.08-3.13-3.13-3.13c-3.51,0-5.38,3.47-6.14,7.21l-1.59,7.7h-2.12L165.4,212.73z"></path>
	<path class="st6" d="M193.85,223.19c-0.29,1.3-0.48,2.41-0.55,3.18h-2.07c0.09-0.9,0.29-1.94,0.51-2.58h-0.07   c-1.17,1.76-2.8,2.96-5.54,2.96c-3.91,0-5.5-3.27-5.5-6.95c0-4.52,2.96-10.06,8.12-10.06c2.36,0,4.37,1.15,4.97,3.36h0.07   l2.23-10.63h2.1L193.85,223.19z M186.81,225.03c3.62,0,6.24-4.81,6.24-8.41c0-2.89-1.34-5.16-4.13-5.16   c-4.17,0-6.09,4.97-6.09,8.72C182.84,222.91,184.01,225.03,186.81,225.03z"></path>
	<path class="st6" d="M220.41,223.19c-0.29,1.3-0.48,2.41-0.55,3.18h-2.07c0.09-0.9,0.29-1.94,0.51-2.58h-0.07   c-1.17,1.76-2.8,2.96-5.54,2.96c-3.91,0-5.5-3.27-5.5-6.95c0-4.52,2.96-10.06,8.12-10.06c2.36,0,4.37,1.15,4.97,3.36h0.07   l2.23-10.63h2.1L220.41,223.19z M213.37,225.03c3.62,0,6.24-4.81,6.24-8.41c0-2.89-1.34-5.16-4.13-5.16   c-4.17,0-6.09,4.97-6.09,8.72C209.38,222.91,210.57,225.03,213.37,225.03z"></path>
	<path class="st6" d="M226.99,218.83c-0.05,0.42-0.09,0.86-0.09,1.3c0,3.13,2.07,4.9,4.94,4.9c2.01,0,3.47-0.55,4.74-1.08   l-0.16,1.94c-0.95,0.35-2.19,0.86-4.85,0.86c-3.79,0-6.69-2.27-6.69-6.62c0-5.45,3.18-10.39,8.41-10.39c3.82,0,5.72,2.36,5.72,6.05   c0,0.99-0.13,2.01-0.22,3.02h-11.8V218.83z M236.92,217.12c0.04-0.44,0.09-0.86,0.09-1.24c0-2.65-1.12-4.39-3.73-4.39   c-3.13,0-5.41,2.67-5.96,5.63H236.92z"></path>
	<path class="st6" d="M243.19,213.04c0.18-0.91,0.35-1.88,0.44-2.89h2.01c-0.09,1.02-0.18,1.88-0.35,2.45h0.05   c1.02-1.59,2.41-2.83,4.52-2.83c0.68,0,1.21,0.13,1.76,0.22l-0.48,2.14c-0.55-0.22-1.15-0.26-1.72-0.26c-3.27,0-4.59,3.6-5.19,6.53   l-1.66,7.99h-2.14L243.19,213.04z"></path>
	<path class="st6" d="M279.81,206.76c-1.63-0.86-3.44-1.08-5.36-1.08c-6.46,0-10.88,4.94-10.88,11.36c0,4.33,3.4,7.81,8.08,7.81   c2.76,0,3.47-0.38,4.74-0.73l-0.26,1.94c-0.9,0.26-1.98,0.69-4.33,0.69c-5.71,0-10.44-3.73-10.44-9.75   c0-7.77,5.54-13.24,13.22-13.24c2.4,0,4.13,0.29,5.98,1.15L279.81,206.76z"></path>
	<path class="st6" d="M284.45,202.5h2.1l-5.1,23.88h-2.1L284.45,202.5z"></path>
	<path class="st6" d="M288.88,218.83c-0.05,0.42-0.09,0.86-0.09,1.3c0,3.13,2.07,4.9,4.94,4.9c2.01,0,3.47-0.55,4.74-1.08   l-0.16,1.94c-0.95,0.35-2.19,0.86-4.85,0.86c-3.79,0-6.69-2.27-6.69-6.62c0-5.45,3.18-10.39,8.41-10.39c3.82,0,5.72,2.36,5.72,6.05   c0,0.99-0.13,2.01-0.22,3.02h-11.8V218.83z M298.81,217.12c0.04-0.44,0.09-0.86,0.09-1.24c0-2.65-1.12-4.39-3.73-4.39   c-3.13,0-5.41,2.67-5.96,5.63H298.81z"></path>
	<path class="st6" d="M305.12,212.87c0.18-0.8,0.35-1.88,0.42-2.74h2.01c-0.09,1.02-0.22,1.88-0.35,2.45h0.04   c1.54-2.03,2.8-2.83,5.03-2.83c2.29,0,3.99,1.28,4.08,3.62h0.05c1.04-2.27,2.93-3.62,5.5-3.62c2.8,0,4.59,1.81,4.59,4.77   c0,0.64-0.22,1.88-0.48,3.05l-1.85,8.8h-2.1l1.81-8.6c0.22-0.99,0.42-1.94,0.42-3.15c0-1.77-0.77-3.15-2.71-3.15   c-3.31,0-4.99,3.73-5.6,6.66l-1.68,8.25h-2.1l1.81-8.6c0.22-0.99,0.42-1.94,0.42-3.15c0-1.77-0.77-3.15-2.71-3.15   c-3.31,0-4.99,3.73-5.6,6.66l-1.68,8.25h-2.1L305.12,212.87z"></path>
	<path class="st6" d="M331.31,218.83c-0.05,0.42-0.09,0.86-0.09,1.3c0,3.13,2.07,4.9,4.94,4.9c2.01,0,3.47-0.55,4.74-1.08   l-0.16,1.94c-0.95,0.35-2.19,0.86-4.85,0.86c-3.79,0-6.69-2.27-6.69-6.62c0-5.45,3.18-10.39,8.41-10.39c3.82,0,5.72,2.36,5.72,6.05   c0,0.99-0.13,2.01-0.22,3.02h-11.8V218.83z M341.24,217.12c0.04-0.44,0.09-0.86,0.09-1.24c0-2.65-1.12-4.39-3.73-4.39   c-3.13,0-5.41,2.67-5.96,5.63H341.24z"></path>
	<path class="st6" d="M347.58,212.73c0.18-1.08,0.31-1.79,0.38-2.58h2.01c-0.09,1.02-0.18,1.88-0.35,2.45h0.07   c1.12-1.72,3.15-2.83,5.16-2.83c2.93,0,5.1,1.66,5.1,4.72c0,1.12-0.26,2.32-0.48,3.35l-1.81,8.56h-2.1l1.85-8.94   c0.22-1.04,0.35-1.76,0.35-2.83c0-1.9-1.08-3.13-3.13-3.13c-3.51,0-5.38,3.47-6.14,7.21l-1.59,7.7h-2.1L347.58,212.73z"></path>
	<path class="st6" d="M361.74,223.86c1.15,0.69,2.49,1.17,3.86,1.17c1.94,0,4.59-0.73,4.59-3.26c0-3.53-6.4-3.38-6.4-7.52   c0-3.22,3.4-4.52,6.02-4.52c1.46,0,2.83,0.26,4.17,0.79l-0.68,1.88c-1.06-0.6-2.4-0.95-3.6-0.95c-1.59,0-3.82,0.51-3.82,2.76   c0,2.78,6.49,3.13,6.49,7.42c0,3.69-3.38,5.1-6.53,5.1c-1.68,0-3.15-0.26-4.72-0.9L361.74,223.86z"></path>
	<path class="st6" d="M374.14,223.86c1.15,0.69,2.49,1.17,3.86,1.17c1.94,0,4.59-0.73,4.59-3.26c0-3.53-6.4-3.38-6.4-7.52   c0-3.22,3.4-4.52,6.02-4.52c1.46,0,2.83,0.26,4.17,0.79l-0.68,1.88c-1.06-0.6-2.4-0.95-3.6-0.95c-1.59,0-3.82,0.51-3.82,2.76   c0,2.78,6.49,3.13,6.49,7.42c0,3.69-3.38,5.1-6.53,5.1c-1.68,0-3.15-0.26-4.72-0.9L374.14,223.86z"></path>
	<path class="st6" d="M400.65,212.21c-0.6-0.31-2.49-0.73-3.75-0.73c-4.61,0-7.1,3.38-7.1,7.7c0,3.35,2.23,5.85,5.25,5.85   c1.21,0,2.41-0.42,3.44-0.77l-0.26,2.01c-0.77,0.26-2.03,0.48-3.69,0.48c-4.68,0-6.95-3.91-6.95-7.42c0-5.72,3.26-9.58,9.53-9.58   c1.34,0,3.27,0.31,4.11,0.64L400.65,212.21z"></path>
	<path class="st6" d="M406.51,202.5h2.1l-2.41,10.28h0.07c1.15-1.9,2.62-2.87,5.19-3.02c2.93,0,5.1,1.66,5.1,4.72   c0,1.12-0.22,2.27-0.48,3.35l-1.81,8.56h-2.1l1.85-8.94c0.22-1.04,0.35-1.76,0.35-2.83c0-1.9-1.08-3.13-3.13-3.13   c-3.51,0-5.25,3.51-5.98,6.95l-1.76,7.96h-2.1L406.51,202.5z"></path>
	<path class="st6" d="M420.26,210.15h2.07l1.21,14.05h0.07l7.64-14.05h2.4l1.55,14.05h0.05l7.04-14.05h2.27l-8.43,16.24h-2.45   l-1.66-14.05h-0.05l-7.61,14.05h-2.4L420.26,210.15z"></path>
	<path class="st6" d="M446.3,218.83c-0.07,0.42-0.09,0.86-0.09,1.3c0,3.13,2.07,4.9,4.94,4.9c2.01,0,3.47-0.55,4.74-1.08l-0.16,1.94   c-0.95,0.35-2.19,0.86-4.85,0.86c-3.79,0-6.69-2.27-6.69-6.62c0-5.45,3.18-10.39,8.41-10.39c3.82,0,5.72,2.36,5.72,6.05   c0,0.99-0.13,2.01-0.22,3.02h-11.8V218.83z M456.23,217.12c0.04-0.44,0.09-0.86,0.09-1.24c0-2.65-1.12-4.39-3.73-4.39   c-3.13,0-5.41,2.67-5.96,5.63H456.23z"></path>
	<path class="st6" d="M459.03,223.86c1.15,0.69,2.49,1.17,3.86,1.17c1.94,0,4.59-0.73,4.59-3.26c0-3.53-6.4-3.38-6.4-7.52   c0-3.22,3.4-4.52,6.02-4.52c1.46,0,2.83,0.26,4.17,0.79l-0.68,1.88c-1.06-0.6-2.4-0.95-3.6-0.95c-1.59,0-3.82,0.51-3.82,2.76   c0,2.78,6.49,3.13,6.49,7.42c0,3.69-3.38,5.1-6.53,5.1c-1.68,0-3.15-0.26-4.72-0.9L459.03,223.86z"></path>
	<path class="st6" d="M477.59,206.51l2.29-0.79l-0.99,4.43h4.24l-0.42,1.72h-4.17l-1.72,8.03c-0.22,1.08-0.48,2.14-0.48,3.18   c0,1.28,0.68,1.98,1.85,1.98c0.6,0,1.15-0.13,1.72-0.44l-0.18,1.72c-0.6,0.29-1.21,0.44-2.03,0.44c-2.27,0-3.53-1.28-3.53-3.02   c0-1.41,0.57-3.99,0.73-4.68l1.55-7.21h-3.26l0.44-1.72h3.18L477.59,206.51z"></path>
	<path class="st6" d="M485.2,218.83c-0.07,0.42-0.09,0.86-0.09,1.3c0,3.13,2.07,4.9,4.94,4.9c2.01,0,3.47-0.55,4.74-1.08l-0.16,1.94   c-0.95,0.35-2.19,0.86-4.85,0.86c-3.79,0-6.69-2.27-6.69-6.62c0-5.45,3.18-10.39,8.41-10.39c3.82,0,5.72,2.36,5.72,6.05   c0,0.99-0.13,2.01-0.22,3.02h-11.8V218.83z M495.13,217.12c0.04-0.44,0.09-0.86,0.09-1.24c0-2.65-1.12-4.39-3.73-4.39   c-3.13,0-5.41,2.67-5.96,5.63H495.13z"></path>
	<path class="st6" d="M501.4,213.04c0.18-0.91,0.35-1.88,0.44-2.89h2.01c-0.09,1.02-0.18,1.88-0.35,2.45h0.07   c1.02-1.59,2.41-2.83,4.52-2.83c0.68,0,1.21,0.13,1.76,0.22l-0.48,2.14c-0.55-0.22-1.15-0.26-1.72-0.26c-3.27,0-4.59,3.6-5.19,6.53   l-1.66,7.99h-2.14L501.4,213.04z"></path>
	<path class="st6" d="M512.07,212.73c0.18-1.08,0.31-1.79,0.38-2.58h2.01c-0.09,1.02-0.18,1.88-0.35,2.45h0.07   c1.12-1.72,3.15-2.83,5.16-2.83c2.93,0,5.1,1.66,5.1,4.72c0,1.12-0.26,2.32-0.48,3.35l-1.81,8.56h-2.1l1.85-8.94   c0.22-1.04,0.35-1.76,0.35-2.83c0-1.9-1.08-3.13-3.13-3.13c-3.49,0-5.38,3.47-6.14,7.21l-1.59,7.7h-2.1L512.07,212.73z"></path>
</g>
</svg>
