<?xml version="1.0" encoding="utf-8"?>
<!-- Generator: Adobe Illustrator 27.0.0, SVG Export Plug-In . SVG Version: 6.00 Build 0)  -->
<svg version="1.1" id="Ebene_1" xmlns="http://www.w3.org/2000/svg" xmlns:xlink="http://www.w3.org/1999/xlink" x="0px" y="0px"
	 viewBox="0 0 350.57 102.55" style="enable-background:new 0 0 350.57 102.55;" xml:space="preserve">
<style type="text/css">
	.st0{fill:#00A6E0;}
	.st1{fill:#86BC25;}
	.st2{fill:#3B7823;}
</style>
<g>
	<rect x="44.43" y="13.3" class="st0" width="10.71" height="60.16"/>
	<path class="st0" d="M66.63,73.46h10.71V32.27H66.63V73.46z"/>
	<path class="st0" d="M88.59,73.46h10.72V53.31c0-5.28,1.68-13.67,9.43-13.67c6.88,0,6.96,6.8,6.96,11.83v21.99h10.71V47.47
		c0-9.28-4.23-16.15-13.99-16.15c-5.6,0-10.16,1.84-13.52,6.56h-0.15v-5.6H88.59V73.46z"/>
	<path class="st0" d="M137.66,73.46h10.71V32.27h-10.71V73.46z"/>
	<path class="st0" d="M241.88,32.28h-10.71v20.15c0,5.28-1.68,13.68-9.44,13.68c-6.87,0-6.96-6.8-6.96-11.84V32.28h-10.72v25.99
		c0,9.28,4.24,16.15,13.99,16.15c5.6,0,10.24-2.56,13.52-6.56h0.16v5.6h10.15V32.28z"/>
	<path class="st0" d="M252.73,73.46h10.72V53.47c0-5.36,0.88-13.83,8-13.83c6.16,0,6.16,5.44,6.16,9.27v24.55h10.71V53.47
		c0-5.36,0.88-13.83,8-13.83c6.16,0,6.16,5.44,6.16,9.27v24.55h10.71V47.47c0-9.2-2.88-16.15-13.04-16.15
		c-5.04,0-10.4,2.32-12.88,7.28c-2.32-5.12-6.4-7.28-12.15-7.28c-4,0-8.87,1.68-12.23,6.72h-0.15v-5.76h-10V73.46z"/>
	<g>
		<path class="st1" d="M167.69,100.27c3.71,0,5.31-3.09,5.31-6.3c0-3.27-1.75-6.32-5.31-6.3c-3.55-0.02-5.31,3.02-5.31,6.3
			C162.38,97.18,163.98,100.27,167.69,100.27 M167.69,85.65c4.89,0,7.75,3.55,7.75,8.33c0,4.89-2.84,8.33-7.75,8.33
			c-4.91,0-7.75-3.43-7.75-8.33C159.94,89.2,162.8,85.65,167.69,85.65"/>
		<path class="st1" d="M188.33,88.35c-1.18-0.46-1.83-0.67-3.02-0.67c-1.29,0-2.82,0.46-2.82,2.14c0,3.09,6.92,2.38,6.92,7.68
			c0,3.44-2.65,4.8-5.88,4.8c-1.13,0-2.24-0.32-3.3-0.67l0.23-2.15c0.79,0.32,2.17,0.79,3.35,0.79c1.32,0,3.16-0.74,3.16-2.63
			c0-3.6-6.92-2.61-6.92-7.61c0-2.86,2.26-4.38,5.17-4.38c1.06,0,2.33,0.18,3.44,0.58L188.33,88.35z"/>
		<polygon class="st1" points="194.83,85.92 197.97,85.92 205.07,98.89 205.12,98.89 205.12,85.92 207.43,85.92 207.43,102.03 
			204.48,102.03 197.18,88.79 197.14,88.79 197.14,102.03 194.83,102.03 		"/>
		<path class="st1" d="M220.04,88.09l-3.21,7.98h6.41L220.04,88.09z M218.91,85.92h2.42l6.81,16.1h-2.51l-1.64-4.06h-7.89
			l-1.64,4.06h-2.43L218.91,85.92z"/>
		<path class="st1" d="M234.94,100.13h1.73c2.08,0,3.94-0.44,3.94-2.61c0-2.49-2.19-2.84-4.17-2.84h-1.5V100.13z M234.94,92.8h1.27
			c2.24,0,4.13-0.21,4.13-2.59c0-1.91-1.64-2.4-2.97-2.4h-2.42V92.8z M232.63,85.92h4.36c3.34,0,5.65,1.09,5.65,4.06
			c0,2.21-1.29,3.32-3.32,3.83v0.04c2.19,0.19,3.74,1.62,3.74,3.88c0,3.46-2.86,4.29-6.13,4.29h-4.29V85.92z"/>
		<path class="st1" d="M251.33,92.85h1.96c2.19,0,3.49-0.97,3.49-2.51c0-1.45-1.11-2.38-3.23-2.38h-2.22V92.85z M249.03,85.92h3.94
			c3.18,0,6.25,0.51,6.25,4.36c0,1.96-1.45,3.34-3.32,3.67V94c0.71,0.28,1.06,0.62,1.57,1.61l3.04,6.41h-2.63l-2.47-5.58
			c-0.71-1.57-1.47-1.57-2.7-1.57h-1.38v7.15h-2.31V85.92z"/>
		<path class="st1" d="M272.65,82.28h2.17v2.31h-2.17V82.28z M268.86,82.28h2.17v2.31h-2.17V82.28z M278.09,95.36
			c0,4.52-2.28,6.94-6.25,6.94s-6.25-2.42-6.25-6.94v-9.44h2.31v9.14c0,3.09,0.97,5.21,3.94,5.21c2.98,0,3.95-2.12,3.95-5.21v-9.14
			h2.31V95.36z"/>
		<path class="st1" d="M295.64,88.58c-1.01-0.6-2.15-0.9-3.32-0.9c-3.71,0-6.18,2.67-6.18,6.3c0,3.78,2.72,6.3,6.07,6.3
			c1.15,0,2.7-0.3,3.51-0.79l0.14,2.24c-1.22,0.51-2.72,0.58-3.67,0.58c-5.1,0-8.49-3.27-8.49-8.4c0-4.96,3.6-8.26,8.51-8.26
			c1.24,0,2.47,0.18,3.62,0.69L295.64,88.58z"/>
		<polygon class="st1" points="301.03,85.92 303.34,85.92 303.34,93.01 310.21,85.92 313.28,85.92 305.72,93.54 313.88,102.03 
			310.51,102.03 303.34,94.14 303.34,102.03 301.03,102.03 		"/>
	</g>
	<circle class="st0" cx="143.02" cy="18.67" r="6.24"/>
	<circle class="st0" cx="71.99" cy="18.67" r="6.24"/>
	<path class="st0" d="M325.67,12.45h-6.22v0c-3.43,0-6.22,2.78-6.22,6.22c0,3.43,2.78,6.22,6.22,6.22c0.01,0,0.01,0,0.02,0h6.2
		V12.45z"/>
	<path class="st0" d="M325.67,24.89v6.22c0,3.43,2.78,6.22,6.22,6.22c3.43,0,6.22-2.78,6.22-6.22v-6.22H325.67z"/>
	<path class="st2" d="M344.32,12.46h-6.22c0,9.48-12.44,12.44-12.44,12.44h6.22h6.22h6.22c3.43,0,6.22-2.78,6.22-6.22
		S347.76,12.46,344.32,12.46z"/>
	<path class="st1" d="M331.88,0.02c-3.43,0-6.22,2.78-6.22,6.22v6.22v6.22v6.22h0c0,0,12.44-2.95,12.44-12.44V6.24
		C338.1,2.8,335.32,0.02,331.88,0.02z"/>
	<polygon class="st0" points="180.82,50.67 196.17,32.28 183.54,32.28 170.74,48.75 170.58,48.75 170.58,32.28 159.86,32.28 
		159.86,73.46 170.58,73.46 170.58,53.47 170.74,53.47 184.49,73.46 198.09,73.46 	"/>
	<polygon class="st0" points="36.3,32.28 23.66,32.28 10.86,48.75 10.71,48.75 10.71,32.28 -0.01,32.28 -0.01,73.46 10.71,73.46 
		10.71,53.47 10.86,53.47 24.62,73.46 38.22,73.46 20.94,50.67 	"/>
</g>
</svg>
