<?xml version="1.0" encoding="UTF-8" standalone="no"?>
<svg
   xmlns:svg="http://www.w3.org/2000/svg"
   xmlns="http://www.w3.org/2000/svg"
   version="1.1"
   id="svg5018"
   viewBox="0 0 800.76368 233.63672"
   height="233.63672"
   width="800.76367">
  <defs
     id="defs5020" />
  <g
     transform="translate(8.9532636,-344.11527)"
     id="layer1">
    <path
       id="path36"
       d="m -3.2813836,349.11527 -0.54102,40.93946 c -0.13124,7.26177 -0.13086,15.39944 -0.13086,21.63867 0,18.58642 10.63035,40.79882 44.6699216,40.79882 37.265812,0 47.496107,-18.72928 47.632812,-49.94726 l 0.535157,-53.42969 -33.640625,0 -0.535157,56.77149 c -0.131237,10.01775 -3.903176,14.66406 -12.242187,14.66406 -9.017069,0 -12.517582,-4.35751 -12.517582,-13.06836 0,-6.09705 0.13672,-12.19396 0.13672,-18.29101 l 0.27344,-40.07618 -33.6406196,0 z m 105.5937536,0.002 -0.66602,100.4668 29.38477,0 -0.87305,-54.66992 -1.21485,-6.33789 2.83204,6.35937 19.95898,54.64844 41.27539,0 0.80274,-100.4668 -29.6543,0 -0.25195,54.1836 1.20312,6.26758 -2.78906,-6.31055 -18.59571,-54.14063 -41.4121,0 z m 153.16796,0 -0.79882,100.4668 33.38867,0 0.38281,-47.50195 c 0.19139,0.72727 0.43831,1.38364 0.75,1.88672 l 0.0273,0.0703 20.40625,45.54491 39.54102,0 -27.65234,-50.81445 27.7832,-49.65234 -38.07422,0 -22.00977,44.68555 -0.0488,0.14258 c -0.27889,0.45386 -0.49729,1.02349 -0.67774,1.65234 l 0.37695,-46.48047 -33.39453,0 z m 234.28907,0 -0.66602,100.4668 29.38477,0 -0.875,-54.83008 -1.18555,-6.17773 2.80469,6.36914 19.95898,54.63867 41.27344,0 0.80469,-100.4668 -29.6543,0 -0.25195,54.10157 0.0117,0 1.22461,6.34961 -2.82812,-6.31641 -18.5918,-54.13477 -41.41015,0 z m 105.64257,0 -0.80468,100.4668 33.39453,0 0.80273,-100.4668 -33.39258,0 z m 47.39844,0 -0.80469,100.4668 33.38868,0 0.38281,-47.49609 c 0.19139,0.72726 0.43793,1.37778 0.74414,1.88086 l 0.0332,0.0703 20.40625,45.54491 39.54102,0 -27.65235,-50.81445 27.78321,-49.65234 -38.07422,0 -22.00977,44.68555 -0.0488,0.14258 c -0.27888,0.45386 -0.49376,1.0231 -0.67968,1.64648 l 0.3789,-46.47461 -33.38867,0 z m -434.93359,0.002 -0.80469,100.46875 33.39453,0 0.80469,-100.46875 -33.39453,0 z m 149.72851,0 -0.65625,81.47071 c -0.005,0.23513 -0.0332,0.46408 -0.0332,0.69922 0,0.18045 0.0215,0.36056 0.0215,0.54101 l 0,0.13672 0.006,0.006 c 0.34997,9.1319 7.50092,16.5583 16.63282,17.50976 0.16403,0.0164 0.32775,0.0321 0.48632,0.043 0.47028,0.0382 0.94614,0.0547 1.42188,0.0547 l 0.006,0.006 54.71484,0 0.27344,-29.61718 -40.25195,0 c -0.0113,-0.0164 -0.0163,-0.0262 -0.0274,-0.0371 l 0.002,0 0.80273,-70.8125 -33.39844,0 z m 84.76563,0 -0.80469,100.46875 33.39453,0 0.80469,-100.46875 -33.39453,0 z"
       style="fill:#669900;fill-opacity:1;fill-rule:nonzero;stroke:none" />
    <path
       id="path72"
       d="m -3.7931036,470.08402 0,0.74219 0,88.55273 0,11.3418 32.1972596,0 1.28516,0 0,-77.20117 c -0.005,-0.005 13.007811,0 13.007811,0 3.986321,0.0601 7.043961,1.78813 9.160156,4.12305 2.105259,2.50991 2.984772,4.92688 3.099609,8.10937 -0.114831,6.43061 -4.270195,9.78218 -7.009765,11.13281 -3.904298,1.79358 -6.922279,1.03907 -10.96875,1.14844 3.242645,7.825 6.480011,15.23007 9.722656,23.06055 l 8.164062,19.36328 c 1.350647,2.97471 2.563417,6.146 3.914063,9.11523 0.267942,0.33903 0.537109,1.16482 0.537109,1.14844 l 33.748047,0 0.203125,0 -7.960937,-19.17187 c -2.427883,-5.53383 -4.65454,-11.13337 -7.087891,-16.73829 -1.082704,-2.83252 -2.214179,-5.29797 -3.378906,-8.45312 8.754595,-9.15377 12.068362,-22.02228 8.191406,-33.85547 -4.188645,-12.7792 -17.028047,-22.41797 -31.917969,-22.41797 l -22.708986,0 -0.0664,0 -32.1308596,0 z m 80.0644486,0 c 0.678058,2.02324 1.755537,3.84981 2.433594,5.87305 l 7.611328,17.83594 5.316407,12.48437 0.33789,0.76563 c 2.449755,5.8127 4.386172,10.37869 6.753902,15.97265 6.829794,16.16949 13.413584,31.77621 20.259774,47.70508 l 34.55859,0 0,-52.64844 c 0.88038,2.96924 1.55945,6.01006 2.22657,9.04493 5.87285,14.44152 12.22052,29.0909 18.22461,43.60351 l 34.49414,0 0,-40.83594 0,-36.51172 23.61718,0 0,34.01758 0,1.61914 0,41.71094 33.21289,0 0.26758,0 0,-34.49414 0,-33.14258 0,-7.28906 0,-2.42188 23.42188,0 0,77.34766 14.77929,0 c 6.08065,-0.0656 12.626,0 18.70118,0 l 0,-41.0332 0.26757,0 20.04688,0 3.12305,0 0,41.0332 7.33789,0 26.14453,0 0,-100.63672 -16.01758,0 -17.46484,0 0,36.31446 -21.81836,0 -1.61914,0 0,-30.03125 0,-6.28321 -24.16993,0 -85.04101,0 -23.48633,0 -2.77148,0 0,45.22266 c 0.27341,2.09432 0.74884,4.18224 0.95117,6.34766 l -9.04883,-20.5879 c -4.04647,-9.45452 -7.89181,-18.90329 -11.94922,-28.41796 -0.33356,-0.87492 -0.57426,-1.46535 -1.01172,-2.56446 l -34.55273,0 c 0,4.92685 0.0656,10.39541 0,15.18555 l 0,30.03711 c 0.33356,1.892 0.94495,4.38457 1.21289,6.34766 l -0.20117,-0.4043 c -7.42582,-16.94596 -14.57923,-33.95211 -21.66602,-51.16602 l -34.482425,0 z"
       style="fill:#00549f;fill-opacity:1;fill-rule:nonzero;stroke:none" />
    <path
       id="path80"
       d="m 555.0194,468.63285 c -30.31025,0 -34.10547,21.60968 -34.10547,52.05664 0,30.45243 3.79522,52.0625 34.10547,52.0625 26.52078,0 31.85156,-18.6627 31.85156,-40.26758 l -20.20508,0 c 0,21.60488 -5.33627,25.39453 -12.63086,25.39453 -8.69991,0 -12.91016,-5.47489 -12.91016,-35.78515 0,-28.3417 2.38891,-38.58789 12.63086,-38.58789 9.12097,0 12.07422,6.31552 12.07422,20.91015 l 20.19922,0 c 0,-14.59463 -2.10484,-35.7832 -31.00976,-35.7832 z m 104.51172,1.43359 0,100.65235 57.66601,0 0,-16.63281 -37.36328,0 0,-27.06836 33.83789,0 0,-16.62891 -33.83789,0 0,-23.6875 35.94727,0 0,-16.63477 -56.25,0 z m -252.77344,0.01 -26.64649,100.64258 21.14649,0 4.64844,-21.28321 26.78906,0 4.64648,21.28321 31.01172,0 4.64063,-21.28321 26.78906,0 4.65429,21.28321 21.14063,0 -26.64258,-100.64258 -25.09375,0 -20.99609,79.33203 -20.99805,-79.33203 -25.08984,0 z m 184.10547,0.008 0,100.63672 20.29297,0 0,-44.67578 23.68164,0 0,44.67578 20.29296,0 0,-100.63672 -20.29296,0 0,38.47852 -23.68164,0 0,-38.47852 -20.29297,0 z m 129.33984,0.002 0,100.63671 18.60742,0 0,-70.48046 0.2793,0 24.80859,70.48046 22.91211,0 0,-100.63671 -18.40039,0 0,68.91992 -0.28516,0 -24.52343,-68.91992 -23.39844,0 z m -301.04297,17.47265 0.2793,0 9.72851,45.24414 -19.73437,0 9.72656,-45.24414 z m 67.0957,0 0.2793,0 9.7207,45.24414 -19.72851,0 9.72851,-45.24414 z"
       style="fill:#8ebae5;fill-opacity:1;fill-rule:nonzero;stroke:none" />
  </g>
</svg>
