<svg width="699" height="699" viewBox="0 0 699 699" fill="none" xmlns="http://www.w3.org/2000/svg">
<rect width="699" height="699" fill="#0069DC"/>
<path d="M119.936 395V307.192H137.088L152.576 364.792C153.003 366.413 153.387 368.333 153.728 370.552C154.069 372.771 154.368 374.947 154.624 377.08C154.965 379.213 155.179 381.005 155.264 382.456C155.435 383.821 155.52 384.504 155.52 384.504H156.032C156.032 384.504 156.075 383.779 156.16 382.328C156.331 380.877 156.544 379.085 156.8 376.952C157.056 374.819 157.355 372.643 157.696 370.424C158.037 368.205 158.421 366.328 158.848 364.792L174.464 307.192H191.488V395H180.224V331.256C180.224 330.488 180.267 329.379 180.352 327.928C180.437 326.392 180.523 324.856 180.608 323.32C180.779 321.784 180.907 320.461 180.992 319.352C181.077 318.243 181.12 317.688 181.12 317.688H180.608C180.608 317.688 180.48 318.243 180.224 319.352C180.053 320.461 179.797 321.784 179.456 323.32C179.115 324.856 178.773 326.392 178.432 327.928C178.176 329.379 177.92 330.488 177.664 331.256L160.128 395H150.016L132.48 331.256C132.309 330.659 132.053 329.635 131.712 328.184C131.456 326.733 131.157 325.197 130.816 323.576C130.56 321.955 130.304 320.589 130.048 319.48C129.877 318.285 129.792 317.688 129.792 317.688H129.28C129.28 317.688 129.323 318.285 129.408 319.48C129.493 320.589 129.579 321.955 129.664 323.576C129.749 325.112 129.835 326.605 129.92 328.056C130.005 329.507 130.048 330.573 130.048 331.256V395H119.936ZM234.191 396.536C228.9 396.536 223.994 395.683 219.471 393.976C214.948 392.269 211.322 389.496 208.591 385.656C205.946 381.816 204.623 376.653 204.623 370.168C204.623 369.741 204.623 369.272 204.623 368.76C204.708 368.163 204.751 367.779 204.751 367.608H216.399C216.399 367.693 216.356 368.077 216.271 368.76C216.271 369.357 216.271 369.869 216.271 370.296C216.271 375.672 217.935 379.683 221.263 382.328C224.591 384.888 228.73 386.168 233.679 386.168C239.567 386.168 244.09 384.931 247.247 382.456C250.49 379.896 252.111 376.269 252.111 371.576C252.111 368.419 251.258 365.859 249.551 363.896C247.93 361.933 245.754 360.312 243.023 359.032C240.378 357.752 237.434 356.6 234.191 355.576C230.948 354.552 227.663 353.443 224.335 352.248C221.092 351.053 218.106 349.517 215.375 347.64C212.73 345.763 210.554 343.373 208.847 340.472C207.226 337.485 206.415 333.731 206.415 329.208C206.415 323.832 207.652 319.395 210.127 315.896C212.687 312.397 216.058 309.837 220.239 308.216C224.506 306.509 229.199 305.656 234.319 305.656C239.439 305.656 244.047 306.509 248.143 308.216C252.324 309.837 255.652 312.483 258.127 316.152C260.602 319.736 261.839 324.472 261.839 330.36V331.896H250.191V329.976C250.191 325.453 248.698 321.997 245.711 319.608C242.724 317.219 239.012 316.024 234.575 316.024C229.967 316.024 226.084 317.005 222.927 318.968C219.855 320.931 218.319 324.045 218.319 328.312C218.319 331.299 219.13 333.731 220.751 335.608C222.458 337.485 224.634 339.064 227.279 340.344C230.01 341.539 232.996 342.648 236.239 343.672C239.482 344.696 242.724 345.805 245.967 347C249.21 348.195 252.154 349.731 254.799 351.608C257.53 353.485 259.706 355.875 261.327 358.776C263.034 361.592 263.887 365.219 263.887 369.656C263.887 376.227 262.564 381.475 259.919 385.4C257.359 389.325 253.86 392.184 249.423 393.976C244.986 395.683 239.908 396.536 234.191 396.536Z" fill="white"/>
<path d="M307.46 395V307.192H342.788C351.407 307.192 357.935 309.453 362.372 313.976C366.809 318.413 369.028 324.259 369.028 331.512C369.028 336.973 367.663 341.709 364.932 345.72C362.201 349.645 358.361 352.461 353.412 354.168L371.076 395H358.532L342.276 356.216H318.724V395H307.46ZM318.724 345.976H342.404C346.927 345.976 350.511 344.653 353.156 342.008C355.887 339.363 357.252 335.864 357.252 331.512C357.252 327.16 355.972 323.747 353.412 321.272C350.852 318.712 347.183 317.432 342.404 317.432H318.724V345.976ZM383.21 395V307.192H437.354V317.432H394.474V344.952H431.722V355.192H394.474V384.76H438.122V395H383.21ZM453.21 395V307.192H484.57C490.373 307.192 495.194 308.259 499.034 310.392C502.959 312.525 505.903 315.512 507.866 319.352C509.829 323.192 510.81 327.672 510.81 332.792C510.81 337.912 509.743 342.435 507.61 346.36C505.477 350.285 502.447 353.357 498.522 355.576C494.682 357.709 490.031 358.776 484.57 358.776H464.474V395H453.21ZM464.474 348.536H484.186C488.709 348.536 492.293 347.085 494.938 344.184C497.669 341.283 499.034 337.485 499.034 332.792C499.034 328.013 497.754 324.259 495.194 321.528C492.634 318.797 488.965 317.432 484.186 317.432H464.474V348.536Z" fill="#FF3E33"/>
<line x1="348" y1="277" x2="348" y2="227" stroke="white" stroke-width="12"/>
<line x1="348" y1="472" x2="348" y2="426" stroke="white" stroke-width="12"/>
<line x1="581" y1="472" x2="581" y2="227" stroke="white" stroke-width="12"/>
<path d="M587 227L342 227" stroke="white" stroke-width="12"/>
<line x1="587" y1="466" x2="342" y2="466" stroke="white" stroke-width="12"/>
</svg>
